<svg width="77" height="60" viewBox="0 0 77 60" fill="none" xmlns="http://www.w3.org/2000/svg">
<path fill-rule="evenodd" clip-rule="evenodd" d="M32.4598 31.3429C32.6026 31.3429 32.7184 31.4587 32.7184 31.6015V32.4128L33.3086 31.6674C33.3973 31.5554 33.56 31.5365 33.672 31.6251C33.7839 31.7138 33.8028 31.8765 33.7142 31.9885L32.7184 33.2461V33.7212L33.3086 32.9758C33.3973 32.8638 33.56 32.8449 33.6719 32.9336C33.7839 33.0222 33.8028 33.1849 33.7142 33.2969L32.7184 34.5545V36.788L34.3737 35.1327L34.5588 33.5394C34.5753 33.3975 34.7037 33.2959 34.8456 33.3123C34.9875 33.3288 35.0892 33.4572 35.0727 33.5991L34.9629 34.5435L35.2989 34.2075L35.4841 32.6142C35.5005 32.4723 35.6289 32.3707 35.7708 32.3871C35.9127 32.4036 36.0144 32.532 35.9979 32.6739L35.8881 33.6183L36.3858 33.1206C36.4868 33.0196 36.6506 33.0196 36.7516 33.1206C36.8526 33.2216 36.8526 33.3854 36.7516 33.4864L36.2419 33.996L37.2078 33.8838C37.3496 33.8673 37.478 33.969 37.4945 34.1109C37.511 34.2527 37.4094 34.3811 37.2675 34.3976L35.6527 34.5853L35.3167 34.9212L36.2825 34.809C36.4244 34.7925 36.5528 34.8942 36.5693 35.0361C36.5858 35.1779 36.4841 35.3063 36.3423 35.3228L34.7275 35.5105L33.0747 37.1632H35.4346L36.6922 36.1675C36.8041 36.0788 36.9668 36.0977 37.0555 36.2097C37.1442 36.3217 37.1253 36.4844 37.0133 36.5731L36.2679 37.1632H36.743L38.0006 36.1675C38.1126 36.0788 38.2753 36.0977 38.3639 36.2097C38.4526 36.3217 38.4337 36.4844 38.3217 36.5731L37.5763 37.1632H38.2802C38.423 37.1632 38.5388 37.279 38.5388 37.4219C38.5388 37.5647 38.423 37.6805 38.2802 37.6805H37.5594L38.3217 38.2841C38.4337 38.3728 38.4526 38.5354 38.3639 38.6474C38.2753 38.7594 38.1126 38.7783 38.0006 38.6896L36.7261 37.6805H36.251L37.0133 38.2841C37.1253 38.3728 37.1442 38.5354 37.0555 38.6474C36.9668 38.7594 36.8041 38.7783 36.6922 38.6896L35.4177 37.6805H33.0803L34.7489 39.3492L36.3423 39.5343C36.4842 39.5508 36.5858 39.6792 36.5694 39.8211C36.5529 39.963 36.4245 40.0647 36.2826 40.0482L35.3382 39.9384L35.6741 40.2744L37.2675 40.4595C37.4094 40.476 37.5111 40.6044 37.4946 40.7463C37.4781 40.8882 37.3497 40.9899 37.2078 40.9734L36.2634 40.8636L36.7611 41.3613C36.8621 41.4623 36.8621 41.6261 36.7611 41.7271C36.6601 41.8281 36.4963 41.8281 36.3953 41.7271L35.8857 41.2174L35.9979 42.1832C36.0144 42.3251 35.9127 42.4535 35.7708 42.47C35.629 42.4865 35.5006 42.3849 35.4841 42.243L35.2964 40.6282L34.9604 40.2922L35.0727 41.258C35.0892 41.3999 34.9875 41.5283 34.8456 41.5448C34.7037 41.5613 34.5754 41.4596 34.5589 41.3178L34.3712 39.703L32.7184 38.0502V40.41L33.7142 41.6676C33.8028 41.7796 33.7839 41.9423 33.6719 42.031C33.56 42.1196 33.3973 42.1007 33.3086 41.9887L32.7184 41.2433V41.7184L33.7142 42.9761C33.8028 43.088 33.7839 43.2507 33.6719 43.3394C33.56 43.4281 33.3973 43.4091 33.3086 43.2972L32.7184 42.5518V43.2557C32.7184 43.3985 32.6026 43.5143 32.4598 43.5143C32.3169 43.5143 32.2011 43.3985 32.2011 43.2556V42.5349L31.5976 43.2972C31.5089 43.4091 31.3463 43.4281 31.2343 43.3394C31.1223 43.2507 31.1034 43.088 31.192 42.9761L32.2011 41.7016V41.2265L31.5976 41.9887C31.5089 42.1007 31.3463 42.1196 31.2343 42.031C31.1223 41.9423 31.1034 41.7796 31.192 41.6676L32.2011 40.3931V38.0368L30.6109 39.6271L30.4232 41.2418C30.4068 41.3837 30.2784 41.4854 30.1365 41.4689C29.9946 41.4524 29.8929 41.324 29.9094 41.1821L30.0217 40.2163L29.6857 40.5523L29.498 42.167C29.4816 42.3089 29.3532 42.4106 29.2113 42.3941C29.0694 42.3776 28.9677 42.2492 28.9842 42.1073L29.0965 41.1415L28.5109 41.7271C28.4099 41.8281 28.2461 41.8281 28.1451 41.7271C28.0441 41.6261 28.0441 41.4623 28.1451 41.3613L28.7187 40.7877L27.7743 40.8974C27.6324 40.9139 27.504 40.8123 27.4876 40.6704C27.4711 40.5285 27.5727 40.4001 27.7146 40.3836L29.308 40.1984L29.6439 39.8625L28.6995 39.9722C28.5576 39.9887 28.4292 39.8871 28.4128 39.7452C28.3963 39.6033 28.4979 39.4749 28.6398 39.4584L30.2332 39.2732L31.8259 37.6805H29.5959L28.3214 38.6896C28.2094 38.7783 28.0468 38.7594 27.9581 38.6474C27.8694 38.5354 27.8883 38.3728 28.0003 38.2841L28.7626 37.6805H28.2875L27.013 38.6896C26.901 38.7783 26.7383 38.7594 26.6497 38.6474C26.561 38.5354 26.5799 38.3728 26.6919 38.2841L27.4542 37.6805H26.626C26.4832 37.6805 26.3674 37.5647 26.3674 37.4219C26.3674 37.279 26.4832 37.1632 26.626 37.1632H27.4373L26.6919 36.5731C26.5799 36.4844 26.561 36.3217 26.6497 36.2097C26.7383 36.0977 26.901 36.0788 27.013 36.1675L28.2706 37.1632H28.7457L28.0003 36.5731C27.8883 36.4844 27.8694 36.3217 27.9581 36.2097C28.0468 36.0977 28.2094 36.0788 28.3214 36.1675L29.579 37.1632H31.8315L30.2546 35.5864L28.6399 35.3988C28.498 35.3823 28.3963 35.2539 28.4128 35.112C28.4293 34.9701 28.5577 34.8684 28.6996 34.8849L29.6654 34.9972L29.3294 34.6612L27.7147 34.4736C27.5728 34.4571 27.4711 34.3287 27.4876 34.1868C27.5041 34.0449 27.6325 33.9432 27.7744 33.9597L28.7402 34.072L28.1546 33.4864C28.0536 33.3854 28.0536 33.2216 28.1546 33.1206C28.2556 33.0196 28.4194 33.0196 28.5204 33.1206L29.094 33.6942L28.9842 32.7498C28.9677 32.608 29.0694 32.4796 29.2113 32.4631C29.3532 32.4466 29.4816 32.5482 29.4981 32.6901L29.6832 34.2834L30.0192 34.6194L29.9094 33.675C29.8929 33.5332 29.9946 33.4048 30.1365 33.3883C30.2784 33.3718 30.4068 33.4734 30.4233 33.6153L30.6084 35.2087L32.2011 36.8014V34.5714L31.192 33.2969C31.1034 33.1849 31.1223 33.0222 31.2343 32.9336C31.3463 32.8449 31.5089 32.8638 31.5976 32.9758L32.2011 33.7381V33.2629L31.192 31.9885C31.1034 31.8765 31.1223 31.7138 31.2343 31.6251C31.3463 31.5365 31.5089 31.5554 31.5976 31.6674L32.2011 32.4296V31.6015C32.2011 31.4587 32.3169 31.3429 32.4598 31.3429Z" fill="url(#paint0_linear_21_387)"/>
<path fill-rule="evenodd" clip-rule="evenodd" d="M37.9435 46.6C38.0421 46.6 38.122 46.6799 38.122 46.7785V47.3384L38.5293 46.8239C38.5905 46.7467 38.7027 46.7336 38.78 46.7948C38.8573 46.856 38.8704 46.9683 38.8092 47.0456L38.122 47.9135V48.2414L38.5293 47.7269C38.5905 47.6497 38.7027 47.6366 38.78 47.6978C38.8573 47.759 38.8704 47.8713 38.8092 47.9486L38.122 48.8165V50.3579L39.2643 49.2155L39.3921 48.1159C39.4035 48.018 39.4921 47.9478 39.59 47.9592C39.688 47.9706 39.7581 48.0592 39.7467 48.1571L39.671 48.8089L39.9029 48.577L40.0306 47.4774C40.042 47.3795 40.1306 47.3093 40.2286 47.3207C40.3265 47.3321 40.3966 47.4207 40.3853 47.5186L40.3095 48.1704L40.653 47.8269C40.7227 47.7572 40.8357 47.7572 40.9054 47.8269C40.9751 47.8966 40.9751 48.0096 40.9054 48.0793L40.5537 48.4311L41.2202 48.3536C41.3182 48.3422 41.4068 48.4124 41.4181 48.5103C41.4295 48.6082 41.3594 48.6968 41.2614 48.7082L40.147 48.8377L39.9152 49.0696L40.5817 48.9921C40.6796 48.9807 40.7682 49.0509 40.7796 49.1488C40.791 49.2468 40.7208 49.3354 40.6229 49.3467L39.5085 49.4763L38.3679 50.6169H39.9965L40.8644 49.9297C40.9417 49.8685 41.0539 49.8815 41.1151 49.9588C41.1763 50.0361 41.1633 50.1484 41.086 50.2096L40.5716 50.6169H40.8995L41.7674 49.9297C41.8447 49.8685 41.957 49.8815 42.0182 49.9588C42.0793 50.0361 42.0663 50.1484 41.989 50.2096L41.4746 50.6169H41.9604C42.0589 50.6169 42.1389 50.6968 42.1389 50.7954C42.1389 50.894 42.0589 50.9739 41.9604 50.9739H41.4629L41.989 51.3904C42.0663 51.4516 42.0793 51.5639 42.0182 51.6412C41.957 51.7185 41.8447 51.7315 41.7674 51.6703L40.8878 50.9739H40.5599L41.086 51.3904C41.1633 51.4516 41.1763 51.5639 41.1151 51.6412C41.0539 51.7185 40.9417 51.7315 40.8644 51.6703L39.9848 50.9739H38.3717L39.5233 52.1255L40.6229 52.2533C40.7209 52.2647 40.791 52.3533 40.7796 52.4512C40.7683 52.5491 40.6797 52.6193 40.5817 52.6079L39.93 52.5321L40.1618 52.764L41.2615 52.8918C41.3594 52.9032 41.4296 52.9918 41.4182 53.0897C41.4068 53.1876 41.3182 53.2578 41.2203 53.2464L40.5685 53.1707L40.912 53.5142C40.9817 53.5839 40.9817 53.6969 40.912 53.7666C40.8423 53.8363 40.7293 53.8363 40.6595 53.7666L40.3078 53.4149L40.3853 54.0814C40.3966 54.1793 40.3265 54.2679 40.2286 54.2793C40.1306 54.2907 40.042 54.2205 40.0307 54.1226L39.9011 53.0082L39.6693 52.7763L39.7467 53.4429C39.7581 53.5408 39.688 53.6294 39.59 53.6408C39.4921 53.6522 39.4035 53.582 39.3921 53.4841L39.2626 52.3697L38.122 51.229V52.8576L38.8092 53.7256C38.8704 53.8028 38.8573 53.9151 38.78 53.9763C38.7027 54.0375 38.5905 54.0244 38.5293 53.9472L38.122 53.4327V53.7606L38.8092 54.6285C38.8704 54.7058 38.8573 54.8181 38.78 54.8793C38.7027 54.9405 38.5905 54.9274 38.5293 54.8502L38.122 54.3357V54.8215C38.122 54.9201 38.0421 55 37.9435 55C37.8449 55 37.765 54.9201 37.765 54.8215V54.3241L37.3484 54.8502C37.2872 54.9274 37.175 54.9405 37.0977 54.8793C37.0204 54.8181 37.0073 54.7058 37.0685 54.6285L37.765 53.749V53.4211L37.3484 53.9472C37.2872 54.0244 37.175 54.0375 37.0977 53.9763C37.0204 53.9151 37.0073 53.8028 37.0685 53.7256L37.765 52.846V51.2198L36.6675 52.3173L36.538 53.4317C36.5266 53.5296 36.438 53.5998 36.3401 53.5884C36.2421 53.577 36.172 53.4884 36.1834 53.3905L36.2608 52.7239L36.029 52.9558L35.8995 54.0702C35.8881 54.1681 35.7995 54.2383 35.7015 54.2269C35.6036 54.2155 35.5335 54.1269 35.5448 54.029L35.6223 53.3624L35.2182 53.7666C35.1485 53.8363 35.0354 53.8363 34.9657 53.7666C34.896 53.6969 34.896 53.5839 34.9657 53.5141L35.3616 53.1183L34.7098 53.194C34.6119 53.2054 34.5233 53.1352 34.5119 53.0373C34.5005 52.9394 34.5707 52.8508 34.6686 52.8394L35.7683 52.7116L36.0001 52.4797L35.3484 52.5555C35.2504 52.5669 35.1618 52.4967 35.1504 52.3988C35.1391 52.3009 35.2092 52.2122 35.3071 52.2009L36.4068 52.0731L37.506 50.9739H35.967L35.0874 51.6703C35.0101 51.7315 34.8979 51.7185 34.8367 51.6412C34.7755 51.5639 34.7885 51.4516 34.8658 51.3904L35.3919 50.9739H35.064L34.1844 51.6703C34.1071 51.7315 33.9949 51.7185 33.9337 51.6412C33.8725 51.5639 33.8855 51.4516 33.9628 51.3904L34.4889 50.9739H33.9174C33.8188 50.9739 33.7389 50.894 33.7389 50.7954C33.7389 50.6968 33.8188 50.6169 33.9174 50.6169H34.4772L33.9628 50.2096C33.8855 50.1484 33.8725 50.0361 33.9337 49.9588C33.9949 49.8815 34.1071 49.8685 34.1844 49.9297L35.0523 50.6169H35.3802L34.8658 50.2096C34.7885 50.1484 34.7755 50.0361 34.8367 49.9588C34.8979 49.8815 35.0101 49.8685 35.0874 49.9297L35.9553 50.6169H37.5098L36.4216 49.5287L35.3072 49.3991C35.2093 49.3878 35.1391 49.2992 35.1505 49.2012C35.1619 49.1033 35.2505 49.0331 35.3484 49.0445L36.0149 49.122L35.7831 48.8901L34.6687 48.7606C34.5707 48.7492 34.5006 48.6606 34.512 48.5627C34.5233 48.4648 34.6119 48.3946 34.7099 48.406L35.3764 48.4835L34.9723 48.0793C34.9026 48.0096 34.9026 47.8966 34.9723 47.8269C35.042 47.7572 35.155 47.7572 35.2247 47.8269L35.6206 48.2228L35.5448 47.571C35.5335 47.4731 35.6036 47.3845 35.7015 47.3731C35.7995 47.3617 35.8881 47.4319 35.8995 47.5298L36.0272 48.6294L36.2591 48.8613L36.1834 48.2095C36.172 48.1116 36.2421 48.023 36.3401 48.0116C36.438 48.0002 36.5266 48.0704 36.538 48.1683L36.6658 49.2679L37.765 50.3671V48.8281L37.0685 47.9486C37.0073 47.8713 37.0204 47.759 37.0977 47.6978C37.175 47.6366 37.2872 47.6497 37.3484 47.7269L37.765 48.253V47.9251L37.0685 47.0456C37.0074 46.9683 37.0204 46.856 37.0977 46.7948C37.175 46.7336 37.2872 46.7467 37.3484 46.8239L37.765 47.35V46.7785C37.765 46.6799 37.8449 46.6 37.9435 46.6Z" fill="url(#paint1_linear_21_387)"/>
<path fill-rule="evenodd" clip-rule="evenodd" d="M45.6587 36.4857C45.7774 36.4857 45.8736 36.5819 45.8736 36.7006V37.3748L46.364 36.7554C46.4377 36.6623 46.5729 36.6466 46.666 36.7203C46.759 36.794 46.7747 36.9291 46.7011 37.0222L45.8736 38.0673V38.4621L46.364 37.8426C46.4377 37.7496 46.5729 37.7339 46.666 37.8076C46.759 37.8812 46.7747 38.0164 46.7011 38.1095L45.8736 39.1545V41.0105L47.2491 39.635L47.403 38.311C47.4167 38.1931 47.5234 38.1086 47.6413 38.1223C47.7592 38.136 47.8437 38.2427 47.83 38.3606L47.7388 39.1454L48.0179 38.8662L48.1718 37.5422C48.1855 37.4243 48.2922 37.3398 48.4101 37.3535C48.528 37.3672 48.6125 37.4739 48.5988 37.5918L48.5076 38.3766L48.9212 37.963C49.0051 37.8791 49.1412 37.8791 49.2251 37.963C49.309 38.0469 49.309 38.183 49.2251 38.2669L48.8016 38.6905L49.6042 38.5972C49.7221 38.5835 49.8288 38.668 49.8425 38.7859C49.8562 38.9038 49.7717 39.0105 49.6538 39.0242L48.3119 39.1801L48.0328 39.4593L48.8353 39.366C48.9532 39.3523 49.0599 39.4368 49.0736 39.5547C49.0873 39.6726 49.0029 39.7793 48.885 39.793L47.5431 39.949L46.1697 41.3224H48.1307L49.1757 40.4949C49.2688 40.4212 49.404 40.437 49.4776 40.53C49.5513 40.6231 49.5356 40.7583 49.4425 40.8319L48.8231 41.3224H49.218L50.263 40.4949C50.3561 40.4212 50.4912 40.437 50.5649 40.53C50.6386 40.6231 50.6229 40.7583 50.5298 40.8319L49.9104 41.3224H50.4953C50.614 41.3224 50.7103 41.4186 50.7103 41.5373C50.7103 41.656 50.614 41.7522 50.4953 41.7522H49.8964L50.5298 42.2538C50.6229 42.3275 50.6386 42.4626 50.5649 42.5557C50.4912 42.6488 50.3561 42.6645 50.263 42.5908L49.2039 41.7522H48.8091L49.4425 42.2538C49.5356 42.3275 49.5513 42.4626 49.4776 42.5557C49.404 42.6488 49.2688 42.6645 49.1757 42.5908L48.1166 41.7522H46.1743L47.5609 43.1388L48.885 43.2927C49.0029 43.3064 49.0874 43.4131 49.0737 43.531C49.06 43.6489 48.9533 43.7334 48.8354 43.7197L48.0506 43.6285L48.3298 43.9077L49.6538 44.0615C49.7717 44.0752 49.8562 44.1819 49.8425 44.2998C49.8288 44.4178 49.7221 44.5022 49.6042 44.4885L48.8194 44.3973L49.233 44.8109C49.3169 44.8949 49.3169 45.0309 49.233 45.1149C49.1491 45.1988 49.013 45.1988 48.9291 45.1149L48.5055 44.6913L48.5988 45.4939C48.6125 45.6118 48.528 45.7185 48.4101 45.7322C48.2922 45.7459 48.1855 45.6615 48.1718 45.5435L48.0159 44.2017L47.7367 43.9225L47.83 44.7251C47.8437 44.843 47.7592 44.9497 47.6413 44.9634C47.5234 44.9771 47.4167 44.8926 47.403 44.7747L47.247 43.4329L45.8736 42.0594V44.0204L46.7011 45.0655C46.7747 45.1585 46.759 45.2937 46.666 45.3674C46.5729 45.4411 46.4377 45.4254 46.364 45.3323L45.8736 44.7129V45.1077L46.7011 46.1527C46.7747 46.2458 46.759 46.381 46.666 46.4547C46.5729 46.5283 46.4377 46.5126 46.364 46.4196L45.8736 45.8002V46.3851C45.8736 46.5038 45.7774 46.6 45.6587 46.6C45.54 46.6 45.4438 46.5038 45.4438 46.3851V45.7861L44.9422 46.4196C44.8685 46.5126 44.7333 46.5283 44.6403 46.4547C44.5472 46.381 44.5315 46.2458 44.6052 46.1527L45.4438 45.0936V44.6988L44.9422 45.3323C44.8685 45.4254 44.7333 45.4411 44.6403 45.3674C44.5472 45.2937 44.5315 45.1585 44.6052 45.0655L45.4438 44.0064V42.0483L44.1223 43.3698L43.9663 44.7116C43.9526 44.8295 43.8459 44.914 43.728 44.9003C43.6101 44.8866 43.5257 44.7799 43.5394 44.662L43.6326 43.8594L43.3535 44.1386L43.1975 45.4804C43.1838 45.5983 43.0771 45.6828 42.9592 45.6691C42.8413 45.6554 42.7568 45.5487 42.7705 45.4308L42.8638 44.6282L42.3772 45.1149C42.2932 45.1988 42.1572 45.1988 42.0732 45.1149C41.9893 45.0309 41.9893 44.8948 42.0732 44.8109L42.5499 44.3342L41.7651 44.4254C41.6472 44.4391 41.5405 44.3547 41.5268 44.2367C41.5131 44.1188 41.5976 44.0121 41.7155 43.9984L43.0396 43.8446L43.3187 43.5654L42.534 43.6566C42.416 43.6703 42.3094 43.5858 42.2956 43.4679C42.2819 43.35 42.3664 43.2433 42.4843 43.2296L43.8084 43.0757L45.1319 41.7522H43.2789L42.2198 42.5908C42.1267 42.6645 41.9915 42.6488 41.9178 42.5557C41.8442 42.4626 41.8599 42.3275 41.9529 42.2538L42.5864 41.7522H42.1916L41.1325 42.5908C41.0394 42.6645 40.9042 42.6488 40.8305 42.5557C40.7569 42.4626 40.7726 42.3275 40.8656 42.2538L41.4991 41.7522H40.8109C40.6922 41.7522 40.596 41.656 40.596 41.5373C40.596 41.4186 40.6922 41.3224 40.8109 41.3224H41.485L40.8656 40.8319C40.7726 40.7583 40.7569 40.6231 40.8305 40.53C40.9042 40.437 41.0394 40.4212 41.1325 40.4949L42.1775 41.3224H42.5723L41.9529 40.8319C41.8599 40.7583 41.8442 40.6231 41.9178 40.53C41.9915 40.437 42.1267 40.4212 42.2198 40.4949L43.2648 41.3224H45.1366L43.8262 40.012L42.4844 39.8561C42.3665 39.8424 42.282 39.7357 42.2957 39.6178C42.3094 39.4999 42.4161 39.4154 42.534 39.4291L43.3366 39.5224L43.0574 39.2432L41.7155 39.0873C41.5976 39.0736 41.5132 38.9669 41.5269 38.849C41.5406 38.7311 41.6472 38.6466 41.7652 38.6603L42.5677 38.7536L42.0811 38.2669C41.9972 38.183 41.9972 38.0469 42.0811 37.963C42.1651 37.8791 42.3012 37.8791 42.3851 37.963L42.8617 38.4396L42.7705 37.6549C42.7568 37.537 42.8413 37.4303 42.9592 37.4166C43.0771 37.4029 43.1838 37.4874 43.1975 37.6053L43.3514 38.9293L43.6306 39.2085L43.5394 38.4237C43.5257 38.3058 43.6101 38.1991 43.7281 38.1854C43.846 38.1717 43.9527 38.2562 43.9664 38.3741L44.1202 39.6981L45.4438 41.0217V39.1686L44.6052 38.1095C44.5315 38.0164 44.5472 37.8812 44.6403 37.8076C44.7333 37.7339 44.8685 37.7496 44.9422 37.8426L45.4438 38.4761V38.0813L44.6052 37.0222C44.5315 36.9291 44.5472 36.794 44.6403 36.7203C44.7334 36.6466 44.8685 36.6623 44.9422 36.7554L45.4438 37.3888V36.7006C45.4438 36.5819 45.54 36.4857 45.6587 36.4857Z" fill="url(#paint2_linear_21_387)"/>
<g filter="url(#filter0_bd_21_387)">
<mask id="path-4-outside-1_21_387" maskUnits="userSpaceOnUse" x="14.9674" y="11" width="47" height="30" fill="black">
<rect fill="white" x="14.9674" y="11" width="47" height="30"/>
<path fill-rule="evenodd" clip-rule="evenodd" d="M28.9591 24.831C28.9591 25.244 28.9803 25.652 29.0216 26.0541C27.7469 24.9464 26.0822 24.2757 24.2609 24.2757C20.2508 24.2757 17 27.5266 17 31.5366C17 35.5467 20.2508 38.7975 24.2609 38.7975H52.4876C52.4894 38.7975 52.4912 38.7975 52.493 38.7975C52.4948 38.7975 52.4966 38.7975 52.4984 38.7975H52.5357V38.7974C56.644 38.7744 59.9674 35.4369 59.9674 31.3231C59.9674 27.2244 56.6684 23.8963 52.5809 23.8491C52.0819 17.7744 46.9935 13 40.7901 13C34.256 13 28.9591 18.2969 28.9591 24.831Z"/>
</mask>
<path fill-rule="evenodd" clip-rule="evenodd" d="M28.9591 24.831C28.9591 25.244 28.9803 25.652 29.0216 26.0541C27.7469 24.9464 26.0822 24.2757 24.2609 24.2757C20.2508 24.2757 17 27.5266 17 31.5366C17 35.5467 20.2508 38.7975 24.2609 38.7975H52.4876C52.4894 38.7975 52.4912 38.7975 52.493 38.7975C52.4948 38.7975 52.4966 38.7975 52.4984 38.7975H52.5357V38.7974C56.644 38.7744 59.9674 35.4369 59.9674 31.3231C59.9674 27.2244 56.6684 23.8963 52.5809 23.8491C52.0819 17.7744 46.9935 13 40.7901 13C34.256 13 28.9591 18.2969 28.9591 24.831Z" fill="url(#paint3_linear_21_387)" shape-rendering="crispEdges"/>
<path d="M29.0216 26.0541L31.0111 25.8498L31.528 30.8822L27.7096 27.5637L29.0216 26.0541ZM52.5357 38.7975H54.5357V40.7975H52.5357V38.7975ZM52.5357 38.7974H50.5357V36.8086L52.5245 36.7975L52.5357 38.7974ZM52.5809 23.8491L52.5579 25.849L50.7368 25.828L50.5876 24.0129L52.5809 23.8491ZM27.032 26.2585C26.9838 25.7886 26.9591 25.3123 26.9591 24.831H30.9591C30.9591 25.1756 30.9768 25.5155 31.0111 25.8498L27.032 26.2585ZM24.2609 22.2757C26.5824 22.2757 28.7088 23.1326 30.3335 24.5446L27.7096 27.5637C26.785 26.7601 25.582 26.2757 24.2609 26.2757V22.2757ZM15 31.5366C15 26.422 19.1462 22.2757 24.2609 22.2757V26.2757C21.3554 26.2757 19 28.6311 19 31.5366H15ZM24.2609 40.7975C19.1462 40.7975 15 36.6513 15 31.5366H19C19 34.4422 21.3554 36.7975 24.2609 36.7975V40.7975ZM24.2609 36.7975H52.4876V40.7975H24.2609V36.7975ZM52.493 40.7975C52.4914 40.7975 52.49 40.7975 52.4892 40.7975C52.4882 40.7975 52.4878 40.7975 52.4876 40.7975V36.7975C52.4891 36.7975 52.4905 36.7975 52.4913 36.7975C52.4923 36.7975 52.4927 36.7975 52.493 36.7975V40.7975ZM52.4984 40.7975C52.4981 40.7975 52.4977 40.7975 52.4967 40.7975C52.4959 40.7975 52.4945 40.7975 52.493 40.7975V36.7975C52.4932 36.7975 52.4936 36.7975 52.4946 36.7975C52.4954 36.7975 52.4968 36.7975 52.4984 36.7975V40.7975ZM52.4984 36.7975H52.5357V40.7975H52.4984V36.7975ZM50.5357 38.7975V38.7974H54.5357V38.7975H50.5357ZM61.9674 31.3231C61.9674 36.5377 57.7548 40.7683 52.5469 40.7974L52.5245 36.7975C55.5333 36.7806 57.9674 34.3361 57.9674 31.3231H61.9674ZM52.604 21.8493C57.7857 21.909 61.9674 26.1276 61.9674 31.3231H57.9674C57.9674 28.3213 55.5511 25.8835 52.5579 25.849L52.604 21.8493ZM40.7901 11C48.0432 11 53.9906 16.5817 54.5742 23.6854L50.5876 24.0129C50.1731 18.9672 45.9439 15 40.7901 15V11ZM26.9591 24.831C26.9591 17.1923 33.1514 11 40.7901 11V15C35.3606 15 30.9591 19.4015 30.9591 24.831H26.9591Z" fill="url(#paint4_linear_21_387)" mask="url(#path-4-outside-1_21_387)"/>
</g>
<defs>
<filter id="filter0_bd_21_387" x="-6.10352e-05" y="0" width="76.9675" height="59.7975" filterUnits="userSpaceOnUse" color-interpolation-filters="sRGB">
<feFlood flood-opacity="0" result="BackgroundImageFix"/>
<feGaussianBlur in="BackgroundImageFix" stdDeviation="5"/>
<feComposite in2="SourceAlpha" operator="in" result="effect1_backgroundBlur_21_387"/>
<feColorMatrix in="SourceAlpha" type="matrix" values="0 0 0 0 0 0 0 0 0 0 0 0 0 0 0 0 0 0 127 0" result="hardAlpha"/>
<feOffset dy="4"/>
<feGaussianBlur stdDeviation="7.5"/>
<feComposite in2="hardAlpha" operator="out"/>
<feColorMatrix type="matrix" values="0 0 0 0 0 0 0 0 0 0 0 0 0 0 0 0 0 0 0.1 0"/>
<feBlend mode="normal" in2="effect1_backgroundBlur_21_387" result="effect2_dropShadow_21_387"/>
<feBlend mode="normal" in="SourceGraphic" in2="effect2_dropShadow_21_387" result="shape"/>
</filter>
<linearGradient id="paint0_linear_21_387" x1="27.9564" y1="32.347" x2="36.6894" y2="40.867" gradientUnits="userSpaceOnUse">
<stop stop-color="#D6E9FF"/>
<stop offset="1" stop-color="#2898FF"/>
</linearGradient>
<linearGradient id="paint1_linear_21_387" x1="34.8355" y1="47.293" x2="40.8625" y2="53.173" gradientUnits="userSpaceOnUse">
<stop stop-color="#D6E9FF"/>
<stop offset="1" stop-color="#2898FF"/>
</linearGradient>
<linearGradient id="paint2_linear_21_387" x1="41.9164" y1="37.3201" x2="49.1734" y2="44.4001" gradientUnits="userSpaceOnUse">
<stop stop-color="#D6E9FF"/>
<stop offset="1" stop-color="#2898FF"/>
</linearGradient>
<linearGradient id="paint3_linear_21_387" x1="46.6127" y1="12.8924" x2="36.2772" y2="38.9051" gradientUnits="userSpaceOnUse">
<stop stop-color="white"/>
<stop offset="0.708333" stop-color="#9DDCFF" stop-opacity="0.69"/>
</linearGradient>
<linearGradient id="paint4_linear_21_387" x1="39.8772" y1="4.06668" x2="25.5934" y2="49.3567" gradientUnits="userSpaceOnUse">
<stop stop-color="white"/>
<stop offset="0.713542" stop-color="#85C6EC" stop-opacity="0.71"/>
</linearGradient>
</defs>
</svg>
