<svg width="19" height="19" viewBox="0 0 19 19" fill="none" xmlns="http://www.w3.org/2000/svg">
<g id="Layer 6 copy">
<g id="Layer 2">
<g id="Layer 6 copy_2">
<g id="Group">
<path id="Vector" d="M9.99998 3.7C10.0074 2.64827 10.2109 1.60714 10.6 0.630004C10.41 0.630004 10.22 0.630004 10.02 0.630004C8.48781 0.628116 6.98417 1.04433 5.67105 1.83381C4.35794 2.62328 3.28513 3.75609 2.56821 5.11018C1.8513 6.46427 1.51744 7.98832 1.60262 9.51812C1.68781 11.0479 2.1888 12.5255 3.05161 13.7916C3.91443 15.0577 5.10637 16.0644 6.49902 16.7032C7.89166 17.3421 9.43222 17.5888 10.9547 17.4168C12.4772 17.2448 13.9239 16.6607 15.1389 15.7273C16.354 14.7939 17.2913 13.5467 17.85 12.12C15.7162 11.9776 13.7169 11.0277 12.2586 9.46358C10.8003 7.89942 9.99269 5.83848 9.99998 3.7V3.7Z" stroke="#f9822f" stroke-width="1.2" stroke-linecap="round" stroke-linejoin="round"/>
<path id="Vector_2" d="M15.44 2.55001C15.1224 2.565 14.8177 2.68057 14.57 2.88001C14.4573 2.96885 14.365 3.08093 14.2994 3.20862C14.2338 3.33631 14.1965 3.47661 14.19 3.62001C14.1798 3.47741 14.1409 3.33834 14.0756 3.21117C14.0103 3.084 13.92 2.97135 13.81 2.88001C13.5613 2.68235 13.2572 2.56702 12.94 2.55001C13.2576 2.54366 13.564 2.43099 13.81 2.23001C13.9195 2.13828 14.0096 2.02554 14.0749 1.89845C14.1401 1.77135 14.1793 1.63247 14.19 1.49001C14.1965 1.6334 14.2338 1.77371 14.2994 1.90139C14.365 2.02908 14.4573 2.14116 14.57 2.23001C14.8153 2.43237 15.1221 2.54523 15.44 2.55001Z" fill="#f9822f"/>
<path id="Vector_3" d="M18.46 7.54C18.1424 7.555 17.8377 7.67056 17.59 7.87C17.4773 7.95885 17.385 8.07093 17.3194 8.19861C17.2538 8.3263 17.2165 8.46661 17.21 8.61C17.1998 8.46741 17.1609 8.32834 17.0956 8.20117C17.0303 8.074 16.94 7.96135 16.83 7.87C16.5923 7.6799 16.3033 7.565 16 7.54C16.3176 7.53366 16.624 7.42099 16.87 7.22C16.9795 7.12827 17.0696 7.01554 17.1349 6.88844C17.2001 6.76135 17.2393 6.62247 17.25 6.48C17.2565 6.6234 17.2938 6.7637 17.3594 6.89139C17.425 7.01908 17.5173 7.13116 17.63 7.22C17.8645 7.41407 18.1559 7.52641 18.46 7.54Z" fill="#f9822f"/>
<path id="Vector_4" d="M14.71 7C14.4574 7.0056 14.2128 7.08946 14.01 7.24C13.9225 7.30618 13.8504 7.39049 13.7986 7.48715C13.7469 7.58382 13.7166 7.69054 13.71 7.8C13.6979 7.69079 13.6643 7.58505 13.6111 7.48892C13.5579 7.39279 13.4861 7.30818 13.4 7.24C13.2002 7.09082 12.9592 7.007 12.71 7C12.9592 6.99301 13.2002 6.90918 13.4 6.76C13.4861 6.69183 13.5579 6.60722 13.6111 6.51109C13.6643 6.41496 13.6979 6.30922 13.71 6.2C13.7166 6.30946 13.7469 6.41619 13.7986 6.51286C13.8504 6.60952 13.9225 6.69383 14.01 6.76C14.2128 6.91055 14.4574 6.99441 14.71 7Z" fill="#f9822f"/>
</g>
</g>
</g>
</g>
</svg>
