<svg width="43" height="43" viewBox="0 0 43 43" fill="none" xmlns="http://www.w3.org/2000/svg">
<g id="gg:log-off">
<g id="Group">
<path id="Vector" d="M23.2917 7.18278C23.2917 6.7076 23.1029 6.25188 22.7669 5.91588C22.4309 5.57988 21.9752 5.39111 21.5 5.39111C21.0248 5.39111 20.5691 5.57988 20.2331 5.91588C19.8971 6.25188 19.7083 6.7076 19.7083 7.18278L19.7029 21.5215C19.7029 21.9967 19.8917 22.4524 20.2277 22.7884C20.5637 23.1244 21.0194 23.3132 21.4946 23.3132C21.9698 23.3132 22.4255 23.1244 22.7615 22.7884C23.0975 22.4524 23.2863 21.9967 23.2863 21.5215L23.2917 7.18457V7.18278Z" fill="#CCCCCC"/>
<path id="Vector_2" d="M7.16666 23.2773C7.16666 19.3177 8.7702 15.7344 11.3645 13.1418L13.8979 15.6753C12.3945 17.1786 11.3706 19.0941 10.9557 21.1794C10.5409 23.2647 10.7537 25.4262 11.5673 27.3906C12.3809 29.3549 13.7588 31.0339 15.5266 32.2152C17.2945 33.3964 19.3729 34.0269 21.4991 34.0269C23.6253 34.0269 25.7037 33.3964 27.4715 32.2152C29.2394 31.0339 30.6172 29.3549 31.4309 27.3906C32.2445 25.4262 32.4573 23.2647 32.0425 21.1794C31.6276 19.0941 30.6037 17.1786 29.1002 15.6753L31.6354 13.1418C33.3021 14.8086 34.532 16.8607 35.2162 19.1163C35.9004 21.3719 36.0177 23.7614 35.5579 26.0732C35.098 28.385 34.0751 30.5477 32.5798 32.3698C31.0844 34.1918 29.1628 35.617 26.9852 36.519C24.8075 37.421 22.441 37.7721 20.0953 37.5411C17.7495 37.3101 15.4969 36.5042 13.5371 35.1947C11.5772 33.8852 9.9705 32.1126 8.85931 30.0338C7.74813 27.9551 7.16674 25.6344 7.16666 23.2773Z" fill="#CCCCCC"/>
</g>
</g>
</svg>
