<svg width="32" height="32" viewBox="0 0 32 32" fill='none' color='#686d80' xmlns="http://www.w3.org/2000/svg">
<g>
<path stroke="currentColor" d="M29.2695 22.999C30.3745 20.91 30.9995 18.527 30.9995 16C30.9995 7.716 24.2845 1 15.9995 1L16 16M13 1.3008C6.153 2.6898 1 8.7428 1 15.9998C1 24.2838 7.716 30.9998 16 30.9998C19.189 30.9998 22.11 30.0628 24.541 28.3658M8.5166 21.002C10.1316 23.412 12.8806 25 15.9996 25C20.9706 25 24.9996 20.971 24.9996 16C24.9996 11.029 20.9706 7 15.9996 7M13 7.5117C10.09 8.5397 7.887 10.9367 7.223 13.9997M9 16C9 14.896 8.104 14 7 14C5.896 14 5 14.896 5 16C5 17.104 5.896 18 7 18C8.104 18 9 17.104 9 16ZM28 27C28 25.896 27.104 25 26 25C24.896 25 24 25.896 24 27C24 28.104 24.896 29 26 29C27.104 29 28 28.104 28 27Z" stroke-width="2" stroke-linecap="round" stroke-linejoin="round"/>
<clipPath>
<rect stroke="currentColor" width="32" height="32" fill="white"/>
</clipPath>
</g>
</svg>
