<svg width="18" height="18" viewBox="0 0 18 18" fill="none" xmlns="http://www.w3.org/2000/svg">
<g id="Setting_alt_line">
<path id="Star 2" d="M2.9293 10.6722C2.55174 9.99345 2.36297 9.65409 2.36297 9.28358C2.36297 8.91307 2.55174 8.57371 2.9293 7.895L3.89281 6.16293L4.91107 4.46247C5.31007 3.79614 5.50958 3.46298 5.83045 3.27772C6.15132 3.09247 6.5396 3.08628 7.31616 3.07389L9.29793 3.04228L11.2797 3.07389C12.0563 3.08628 12.4445 3.09247 12.7654 3.27772C13.0863 3.46298 13.2858 3.79614 13.6848 4.46248L14.7031 6.16293L15.6666 7.895C16.0441 8.57371 16.2329 8.91307 16.2329 9.28358C16.2329 9.65409 16.0441 9.99345 15.6666 10.6722L14.7031 12.4042L13.6848 14.1047C13.2858 14.771 13.0863 15.1042 12.7654 15.2894C12.4445 15.4747 12.0563 15.4809 11.2797 15.4933L9.29793 15.5249L7.31616 15.4933C6.5396 15.4809 6.15132 15.4747 5.83045 15.2894C5.50958 15.1042 5.31008 14.771 4.91107 14.1047L3.89281 12.4042L2.9293 10.6722Z" stroke="black" stroke-width="1.42821"/>
<circle id="Ellipse 5" cx="9.536" cy="9.04555" r="2.14232" stroke="black" stroke-width="1.42821"/>
</g>
</svg>
