<svg width="89" height="66" viewBox="0 0 89 66" fill="none" xmlns="http://www.w3.org/2000/svg">
<g filter="url(#filter0_bd_19_124)">
<mask id="path-1-outside-1_19_124" maskUnits="userSpaceOnUse" x="42.8571" y="11" width="32" height="23" fill="black">
<rect fill="white" x="42.8571" y="11" width="32" height="23"/>
<path fill-rule="evenodd" clip-rule="evenodd" d="M64.4453 21.7005C64.4453 22.0042 64.432 22.3043 64.4059 22.6C65.2111 21.7854 66.2627 21.2922 67.4132 21.2922C69.9464 21.2922 72 23.6829 72 26.6319C72 29.5809 69.9464 31.9715 67.4132 31.9715H49.5828C49.5815 31.9715 49.5801 31.9715 49.5788 31.9715C49.5775 31.9715 49.5762 31.9715 49.5748 31.9715H49.5518V31.9715C46.9565 31.9546 44.8571 29.5001 44.8571 26.4748C44.8571 23.4607 46.9411 21.0131 49.5232 20.9785C49.8385 16.5111 53.0528 13 56.9716 13C61.0992 13 64.4453 16.8954 64.4453 21.7005Z"/>
</mask>
<path fill-rule="evenodd" clip-rule="evenodd" d="M64.4453 21.7005C64.4453 22.0042 64.432 22.3043 64.4059 22.6C65.2111 21.7854 66.2627 21.2922 67.4132 21.2922C69.9464 21.2922 72 23.6829 72 26.6319C72 29.5809 69.9464 31.9715 67.4132 31.9715H49.5828C49.5815 31.9715 49.5801 31.9715 49.5788 31.9715C49.5775 31.9715 49.5762 31.9715 49.5748 31.9715H49.5518V31.9715C46.9565 31.9546 44.8571 29.5001 44.8571 26.4748C44.8571 23.4607 46.9411 21.0131 49.5232 20.9785C49.8385 16.5111 53.0528 13 56.9716 13C61.0992 13 64.4453 16.8954 64.4453 21.7005Z" fill="url(#paint0_linear_19_124)" shape-rendering="crispEdges"/>
<path d="M64.4059 22.6L62.4136 22.4243L61.9257 27.9544L65.8283 24.006L64.4059 22.6ZM49.5518 31.9715H47.5518V33.9715H49.5518V31.9715ZM49.5518 31.9715H51.5518V29.9844L49.5649 29.9715L49.5518 31.9715ZM49.5232 20.9785L49.5501 22.9783L51.3888 22.9536L51.5183 21.1193L49.5232 20.9785ZM66.3981 22.7758C66.4294 22.4217 66.4453 22.0629 66.4453 21.7005H62.4453C62.4453 21.9456 62.4345 22.187 62.4136 22.4243L66.3981 22.7758ZM67.4132 19.2922C65.6663 19.2922 64.1185 20.0457 62.9834 21.1941L65.8283 24.006C66.3036 23.5251 66.859 23.2922 67.4132 23.2922V19.2922ZM74 26.6319C74 22.8743 71.3254 19.2922 67.4132 19.2922V23.2922C68.5674 23.2922 70 24.4914 70 26.6319H74ZM67.4132 33.9715C71.3254 33.9715 74 30.3894 74 26.6319H70C70 28.7724 68.5674 29.9715 67.4132 29.9715V33.9715ZM67.4132 29.9715H49.5828V33.9715H67.4132V29.9715ZM49.5788 33.9715C49.5803 33.9715 49.5817 33.9715 49.5822 33.9715C49.583 33.9715 49.583 33.9715 49.5828 33.9715V29.9715C49.5813 29.9715 49.5799 29.9715 49.5794 29.9715C49.5786 29.9715 49.5786 29.9715 49.5788 29.9715V33.9715ZM49.5748 33.9715C49.5747 33.9715 49.5746 33.9715 49.5754 33.9715C49.5759 33.9715 49.5773 33.9715 49.5788 33.9715V29.9715C49.579 29.9715 49.5791 29.9715 49.5783 29.9715C49.5777 29.9715 49.5763 29.9715 49.5748 29.9715V33.9715ZM49.5748 29.9715H49.5518V33.9715H49.5748V29.9715ZM51.5518 31.9715V31.9715H47.5518V31.9715H51.5518ZM42.8571 26.4748C42.8571 30.3071 45.5729 33.9456 49.5388 33.9714L49.5649 29.9715C48.3402 29.9635 46.8571 28.6931 46.8571 26.4748H42.8571ZM49.4964 18.9787C45.5525 19.0316 42.8571 22.6553 42.8571 26.4748H46.8571C46.8571 24.266 48.3298 22.9947 49.5501 22.9783L49.4964 18.9787ZM56.9716 11C51.749 11 47.8981 15.5968 47.5282 20.8377L51.5183 21.1193C51.779 17.4255 54.3567 15 56.9716 15V11ZM66.4453 21.7005C66.4453 16.0868 62.4782 11 56.9716 11V15C59.7202 15 62.4453 17.7039 62.4453 21.7005H66.4453Z" fill="url(#paint1_linear_19_124)" mask="url(#path-1-outside-1_19_124)"/>
</g>
<g filter="url(#filter1_bd_19_124)">
<mask id="path-3-outside-2_19_124" maskUnits="userSpaceOnUse" x="15" y="11.417" width="49" height="36" fill="black">
<rect fill="white" x="15" y="11.417" width="49" height="36"/>
<path fill-rule="evenodd" clip-rule="evenodd" d="M49.3003 27.8049C49.3003 28.3072 49.2783 28.8034 49.2353 29.2924C50.563 27.9452 52.2971 27.1297 54.1943 27.1297C58.3715 27.1297 61.7578 31.0831 61.7578 35.9598C61.7578 40.8366 58.3715 44.79 54.1943 44.79C54.1926 44.79 54.191 44.79 54.1893 44.79H24.7931C24.7907 44.79 24.7883 44.79 24.7859 44.79C24.7835 44.79 24.7811 44.79 24.7787 44.79H24.7414V44.7899C20.4618 44.7619 17 40.703 17 35.7001C17 30.7156 20.4364 26.6682 24.6943 26.6109C25.2141 19.2233 30.5144 13.417 36.9764 13.417C43.7827 13.417 49.3003 19.8587 49.3003 27.8049Z"/>
</mask>
<path fill-rule="evenodd" clip-rule="evenodd" d="M49.3003 27.8049C49.3003 28.3072 49.2783 28.8034 49.2353 29.2924C50.563 27.9452 52.2971 27.1297 54.1943 27.1297C58.3715 27.1297 61.7578 31.0831 61.7578 35.9598C61.7578 40.8366 58.3715 44.79 54.1943 44.79C54.1926 44.79 54.191 44.79 54.1893 44.79H24.7931C24.7907 44.79 24.7883 44.79 24.7859 44.79C24.7835 44.79 24.7811 44.79 24.7787 44.79H24.7414V44.7899C20.4618 44.7619 17 40.703 17 35.7001C17 30.7156 20.4364 26.6682 24.6943 26.6109C25.2141 19.2233 30.5144 13.417 36.9764 13.417C43.7827 13.417 49.3003 19.8587 49.3003 27.8049Z" fill="url(#paint2_linear_19_124)" shape-rendering="crispEdges"/>
<path d="M49.2353 29.2924L47.243 29.1171L46.7555 34.6576L50.6597 30.6963L49.2353 29.2924ZM24.7414 44.79H22.7414V46.79H24.7414V44.79ZM24.7414 44.7899H26.7414V42.8029L24.7545 42.7899L24.7414 44.7899ZM24.6943 26.6109L24.7212 28.6107L26.5602 28.5859L26.6893 26.7513L24.6943 26.6109ZM51.2276 29.4677C51.2757 28.9204 51.3003 28.3657 51.3003 27.8049H47.3003C47.3003 28.2487 47.2809 28.6864 47.243 29.1171L51.2276 29.4677ZM54.1943 25.1297C51.6988 25.1297 49.4679 26.2072 47.8108 27.8885L50.6597 30.6963C51.6581 29.6833 52.8954 29.1297 54.1943 29.1297V25.1297ZM63.7578 35.9598C63.7578 30.2803 59.7554 25.1297 54.1943 25.1297V29.1297C56.9876 29.1297 59.7578 31.8859 59.7578 35.9598H63.7578ZM54.1943 46.79C59.7554 46.79 63.7578 41.6394 63.7578 35.9598H59.7578C59.7578 40.0338 56.9876 42.79 54.1943 42.79V46.79ZM54.1893 46.79C54.1895 46.79 54.1897 46.79 54.1907 46.79C54.1914 46.79 54.1928 46.79 54.1943 46.79V42.79C54.1941 42.79 54.1939 42.79 54.1929 42.79C54.1922 42.79 54.1908 42.79 54.1893 42.79V46.79ZM54.1893 42.79H24.7931V46.79H54.1893V42.79ZM24.7859 46.79C24.788 46.79 24.79 46.79 24.7911 46.79C24.7924 46.79 24.7928 46.79 24.7931 46.79V42.79C24.791 42.79 24.789 42.79 24.7879 42.79C24.7866 42.79 24.7862 42.79 24.7859 42.79V46.79ZM24.7787 46.79C24.779 46.79 24.7794 46.79 24.7807 46.79C24.7818 46.79 24.7838 46.79 24.7859 46.79V42.79C24.7856 42.79 24.7852 42.79 24.7839 42.79C24.7828 42.79 24.7808 42.79 24.7787 42.79V46.79ZM24.7787 42.79H24.7414V46.79H24.7787V42.79ZM26.7414 44.79V44.7899H22.7414V44.79H26.7414ZM15 35.7001C15 41.5043 19.0733 46.7529 24.7283 46.7898L24.7545 42.7899C21.8504 42.7709 19 39.9017 19 35.7001H15ZM24.6673 24.6111C19.043 24.6868 15 29.9159 15 35.7001H19C19 31.5154 21.8299 28.6496 24.7212 28.6107L24.6673 24.6111ZM36.9764 11.417C29.206 11.417 23.2731 18.3144 22.6992 26.4705L26.6893 26.7513C27.1551 20.1322 31.8229 15.417 36.9764 15.417V11.417ZM51.3003 27.8049C51.3003 19.0558 45.1666 11.417 36.9764 11.417V15.417C42.3988 15.417 47.3003 20.6615 47.3003 27.8049H51.3003Z" fill="url(#paint3_linear_19_124)" mask="url(#path-3-outside-2_19_124)"/>
</g>
<defs>
<filter id="filter0_bd_19_124" x="27.8571" y="0" width="61.1429" height="52.9716" filterUnits="userSpaceOnUse" color-interpolation-filters="sRGB">
<feFlood flood-opacity="0" result="BackgroundImageFix"/>
<feGaussianBlur in="BackgroundImageFix" stdDeviation="5"/>
<feComposite in2="SourceAlpha" operator="in" result="effect1_backgroundBlur_19_124"/>
<feColorMatrix in="SourceAlpha" type="matrix" values="0 0 0 0 0 0 0 0 0 0 0 0 0 0 0 0 0 0 127 0" result="hardAlpha"/>
<feOffset dy="4"/>
<feGaussianBlur stdDeviation="7.5"/>
<feComposite in2="hardAlpha" operator="out"/>
<feColorMatrix type="matrix" values="0 0 0 0 0 0 0 0 0 0 0 0 0 0 0 0 0 0 0.1 0"/>
<feBlend mode="normal" in2="effect1_backgroundBlur_19_124" result="effect2_dropShadow_19_124"/>
<feBlend mode="normal" in="SourceGraphic" in2="effect2_dropShadow_19_124" result="shape"/>
</filter>
<filter id="filter1_bd_19_124" x="0" y="0.416962" width="78.7578" height="65.373" filterUnits="userSpaceOnUse" color-interpolation-filters="sRGB">
<feFlood flood-opacity="0" result="BackgroundImageFix"/>
<feGaussianBlur in="BackgroundImageFix" stdDeviation="5"/>
<feComposite in2="SourceAlpha" operator="in" result="effect1_backgroundBlur_19_124"/>
<feColorMatrix in="SourceAlpha" type="matrix" values="0 0 0 0 0 0 0 0 0 0 0 0 0 0 0 0 0 0 127 0" result="hardAlpha"/>
<feOffset dy="4"/>
<feGaussianBlur stdDeviation="7.5"/>
<feComposite in2="hardAlpha" operator="out"/>
<feColorMatrix type="matrix" values="0 0 0 0 0 0 0 0 0 0 0 0 0 0 0 0 0 0 0.1 0"/>
<feBlend mode="normal" in2="effect1_backgroundBlur_19_124" result="effect2_dropShadow_19_124"/>
<feBlend mode="normal" in="SourceGraphic" in2="effect2_dropShadow_19_124" result="shape"/>
</filter>
<linearGradient id="paint0_linear_19_124" x1="53.2934" y1="12.9209" x2="61.733" y2="31.1669" gradientUnits="userSpaceOnUse">
<stop stop-color="white"/>
<stop offset="0.708333" stop-color="#9DDCFF" stop-opacity="0.69"/>
</linearGradient>
<linearGradient id="paint1_linear_19_124" x1="57.5483" y1="6.43042" x2="69.3961" y2="38.6997" gradientUnits="userSpaceOnUse">
<stop stop-color="white"/>
<stop offset="0.713542" stop-color="#85C6EC" stop-opacity="0.71"/>
</linearGradient>
<linearGradient id="paint2_linear_19_124" x1="30.9112" y1="13.2861" x2="44.8934" y2="43.429" gradientUnits="userSpaceOnUse">
<stop stop-color="white"/>
<stop offset="0.708333" stop-color="#9DDCFF" stop-opacity="0.69"/>
</linearGradient>
<linearGradient id="paint3_linear_19_124" x1="37.9273" y1="2.55292" x2="57.5626" y2="55.8799" gradientUnits="userSpaceOnUse">
<stop stop-color="white"/>
<stop offset="0.713542" stop-color="#85C6EC" stop-opacity="0.71"/>
</linearGradient>
</defs>
</svg>
