<svg width="17" height="18" viewBox="0 0 17 18" fill="none" xmlns="http://www.w3.org/2000/svg">
<g id="Layer 12">
<g id="Layer 2">
<g id="Layer 12_2">
<path id="Vector" d="M8.99996 12.35C8.11149 12.35 7.2594 11.9971 6.63116 11.3688C6.00291 10.7406 5.64996 9.88848 5.64996 9C5.64996 8.11153 6.00291 7.25944 6.63116 6.63119C7.2594 6.00295 8.11149 5.65 8.99996 5.65" stroke="#f9822f" stroke-width="1.2" stroke-linecap="round" stroke-linejoin="round"/>
<path id="Vector_2" d="M9 2.58V0.599998" stroke="#f9822f" stroke-width="1.2" stroke-linecap="round" stroke-linejoin="round"/>
<path id="Vector_3" d="M4.46 4.46L3.06 3.06" stroke="#f9822f" stroke-width="1.2" stroke-linecap="round" stroke-linejoin="round"/>
<path id="Vector_4" d="M2.57998 9H0.599976" stroke="#f9822f" stroke-width="1.2" stroke-linecap="round" stroke-linejoin="round"/>
<path id="Vector_5" d="M4.46 13.54L3.06 14.94" stroke="#f9822f" stroke-width="1.2" stroke-linecap="round" stroke-linejoin="round"/>
<path id="Vector_6" d="M9 15.42V17.4" stroke="#f9822f" stroke-width="1.2" stroke-linecap="round" stroke-linejoin="round"/>
<path id="Vector_7" d="M12.2 6C12.2368 5.62661 12.381 5.27188 12.6152 4.9788C12.8495 4.68571 13.1637 4.46684 13.5198 4.3487C13.8759 4.23056 14.2587 4.21822 14.6217 4.31318C14.9846 4.40813 15.3123 4.60631 15.5649 4.8837C15.8176 5.16109 15.9844 5.50578 16.0451 5.87603C16.1058 6.24629 16.0579 6.6262 15.9071 6.96976C15.7563 7.31332 15.5091 7.60578 15.1955 7.8117C14.8818 8.01763 14.5152 8.1282 14.14 8.13H10.94" stroke="#f9822f" stroke-width="1.2" stroke-linecap="round" stroke-linejoin="round"/>
<path id="Vector_8" d="M11.14 12.19C11.1748 12.5636 11.3173 12.9191 11.5501 13.2134C11.7828 13.5077 12.096 13.7282 12.4515 13.8481C12.8071 13.9681 13.1898 13.9823 13.5533 13.8892C13.9168 13.796 14.2454 13.5994 14.4995 13.3233C14.7535 13.0471 14.922 12.7032 14.9845 12.3332C15.047 11.9632 15.0009 11.583 14.8517 11.2387C14.7026 10.8944 14.4567 10.6007 14.1441 10.3933C13.8314 10.1858 13.4652 10.0736 13.09 10.07H9.88" stroke="#f9822f" stroke-width="1.2" stroke-linecap="round" stroke-linejoin="round"/>
</g>
</g>
</g>
</svg>
