<?xml version="1.0" encoding="UTF-8" standalone="no"?>
<svg xmlns="http://www.w3.org/2000/svg" version="1.2" baseProfile="tiny" viewBox="0.00 0.00 300.00 277.00" width="300.00" height="277.00">
<g stroke-width="5.00" fill="none" stroke-linecap="butt">
<path stroke="#cf9146" vector-effect="non-scaling-stroke" d="
  M 159.98 0.00
  Q 175.91 9.79 183.48 23.03
  C 186.47 28.26 189.54 37.40 193.73 43.40
  C 195.36 45.74 200.42 52.56 203.30 52.56
  Q 214.39 52.60 222.77 52.74
  Q 227.33 52.83 222.94 51.59
  Q 217.10 49.95 211.72 47.09
  Q 211.20 46.81 211.46 46.28
  C 216.62 35.85 211.63 26.92 202.59 21.26
  A 0.23 0.23 0.0 0 0 202.31 21.62
  C 208.55 27.45 212.49 35.16 206.83 43.16
  Q 206.55 43.57 206.15 43.28
  C 196.98 36.54 193.41 28.49 188.40 20.84
  C 183.07 12.71 172.88 2.84 163.03 0.00"
/>
<path stroke="#cf9146" vector-effect="non-scaling-stroke" d="
  M 231.47 0.00
  Q 232.56 7.29 233.58 14.58
  C 235.46 28.07 233.05 38.69 229.50 51.50
  A 0.75 0.75 0.0 0 0 230.21 52.45
  L 248.07 52.62
  A 0.76 0.75 4.8 0 0 248.83 51.98
  C 249.60 47.03 250.87 41.49 251.20 36.93
  Q 252.57 17.82 244.61 0.00"
/>
<path stroke="#ffc671" vector-effect="non-scaling-stroke" d="
  M 300.00 75.55
  L 299.73 77.92
  Q 299.68 78.38 299.25 78.54
  Q 287.05 83.33 275.24 78.51"
/>
<path stroke="#cf9146" vector-effect="non-scaling-stroke" d="
  M 275.24 78.51
  C 278.82 68.00 272.95 60.36 264.45 55.22
  A 0.15 0.15 0.0 0 0 264.28 55.46
  C 270.89 61.32 275.20 68.40 269.92 76.95
  A 0.36 0.36 0.0 0 1 269.29 76.93
  Q 262.09 63.74 249.20 55.99
  Q 248.77 55.73 248.63 55.26
  L 248.47 54.76
  Q 248.31 54.26 247.79 54.17
  C 244.13 53.52 240.07 54.08 237.11 54.01
  Q 220.88 53.61 204.53 54.09
  Q 203.51 54.12 204.37 54.67
  Q 214.79 61.43 226.73 65.02
  A 0.69 0.69 0.0 0 1 227.22 65.73
  L 226.63 74.20"
/>
<path stroke="#ffc671" vector-effect="non-scaling-stroke" d="
  M 226.63 74.20
  Q 222.43 78.24 219.15 82.89
  C 207.83 98.93 190.81 105.95 173.43 93.07
  Q 171.72 91.80 166.58 86.39
  C 155.25 74.46 139.87 69.81 125.91 81.09
  C 120.32 85.61 116.35 92.58 112.68 96.92
  C 96.85 115.69 74.56 111.87 61.13 93.39
  Q 59.37 90.98 56.69 91.02
  Q 37.61 91.29 26.00 90.99
  Q 25.53 90.98 25.29 90.69
  Q 24.94 90.26 25.50 90.26
  L 57.43 90.16
  A 0.56 0.55 -16.2 0 0 57.90 89.31
  C 45.57 69.92 26.09 56.04 2.09 60.49
  Q 0.95 60.70 0.96 61.86
  L 1.15 113.13
  A 0.38 0.38 0.0 0 1 0.80 113.51
  Q 0.61 113.53 0.45 113.49
  Q 0.20 113.42 0.19 113.16
  L 0.00 108.68"
/>
<path stroke="#ffc671" vector-effect="non-scaling-stroke" d="
  M 0.00 104.20
  L 0.00 57.43"
/>
<path stroke="#ffb246" vector-effect="non-scaling-stroke" d="
  M 227.11 21.80
  C 227.05 17.08 223.11 8.23 216.84 9.96
  Q 216.33 10.10 216.00 10.52
  Q 211.99 15.81 216.66 20.22
  A 0.76 0.73 70.8 0 0 217.03 20.41
  L 226.86 22.02
  Q 227.12 22.07 227.11 21.80"
/>
<path stroke="#ffb246" vector-effect="non-scaling-stroke" d="
  M 52.81 32.19
  Q 50.51 31.01 42.95 28.66
  A 0.64 0.54 68.2 0 1 42.78 28.57
  Q 41.71 27.67 40.51 26.84
  A 0.63 0.62 -67.8 0 0 39.54 27.25
  Q 38.02 35.78 43.40 43.32
  C 51.45 54.58 61.85 36.83 52.81 32.19"
/>
<path stroke="#ffb246" vector-effect="non-scaling-stroke" d="
  M 273.19 29.11
  Q 268.85 37.38 272.38 45.30
  C 275.83 53.05 286.12 44.52 283.53 38.91
  C 281.87 35.31 275.82 33.72 273.69 29.12
  Q 273.45 28.61 273.19 29.11"
/>
<path stroke="#ffb246" vector-effect="non-scaling-stroke" d="
  M 99.11 34.35
  C 94.97 38.07 92.20 41.94 87.07 44.51
  A 0.58 0.58 0.0 0 0 86.99 45.50
  Q 97.47 53.09 109.92 49.68
  C 123.53 45.94 109.33 25.17 99.11 34.35"
/>
<path stroke="#ffb246" vector-effect="non-scaling-stroke" d="
  M 157.70 56.12
  C 159.64 49.40 150.70 49.38 147.87 54.24
  Q 147.60 54.69 147.71 55.19
  L 149.64 64.50
  Q 149.75 64.99 150.20 64.78
  Q 155.98 62.08 157.70 56.12"
/>
<path stroke="#ffb246" vector-effect="non-scaling-stroke" d="
  M 86.87 70.25
  C 82.93 59.33 67.78 73.17 75.75 79.55
  Q 81.42 84.10 84.31 87.67
  Q 84.63 88.06 84.91 87.63
  Q 90.17 79.41 86.87 70.25"
/>
<path stroke="#cf842c" vector-effect="non-scaling-stroke" d="
  M 275.24 78.51
  L 272.10 82.89
  Q 271.81 83.29 271.96 83.77
  Q 275.29 94.42 273.27 105.52"
/>
<path stroke="#ce7001" vector-effect="non-scaling-stroke" d="
  M 273.27 105.52
  Q 270.72 116.54 262.55 124.48
  A 0.93 0.92 -29.8 0 0 262.30 125.38
  L 264.48 133.46"
/>
<path stroke="#c76501" vector-effect="non-scaling-stroke" d="
  M 264.48 133.46
  L 266.93 146.15"
/>
<path stroke="#cf842c" vector-effect="non-scaling-stroke" d="
  M 266.93 146.15
  L 236.70 146.13"
/>
<path stroke="#ce7001" vector-effect="non-scaling-stroke" d="
  M 236.70 146.13
  Q 237.17 137.11 235.73 127.62"
/>
<path stroke="#cf842c" vector-effect="non-scaling-stroke" d="
  M 235.73 127.62
  Q 234.90 120.94 233.77 116.24
  C 230.40 102.17 227.28 90.16 226.63 74.20"
/>
<path stroke="#cf842c" vector-effect="non-scaling-stroke" d="
  M 247.75 64.57
  C 247.39 80.34 251.12 94.02 256.65 108.47
  Q 256.86 109.00 257.21 108.56
  C 264.13 100.06 266.35 89.63 263.47 78.98
  Q 261.35 71.17 256.28 65.18"
/>
<path stroke="#cf9146" vector-effect="non-scaling-stroke" d="
  M 256.28 65.18
  L 248.92 57.17
  A 0.49 0.49 0.0 0 0 248.08 57.48
  L 247.75 64.57"
/>
<path stroke="#ffc671" vector-effect="non-scaling-stroke" d="
  M 256.28 65.18
  L 247.75 64.57"
/>
<path stroke="#ffa52c" vector-effect="non-scaling-stroke" d="
  M 235.73 127.62
  Q 222.72 134.92 208.34 133.56
  Q 205.00 133.25 201.83 133.16"
/>
<path stroke="#cf842c" vector-effect="non-scaling-stroke" d="
  M 201.83 133.16
  Q 199.18 123.92 190.52 119.22
  Q 190.50 118.89 190.09 119.05
  Q 189.70 119.20 190.05 119.44
  Q 196.30 123.62 197.60 131.36"
/>
<path stroke="#ffa52c" vector-effect="non-scaling-stroke" d="
  M 197.60 131.36
  Q 188.66 126.24 181.07 119.90
  C 171.54 111.94 158.93 110.28 147.25 113.68
  C 141.61 115.32 136.16 118.89 131.11 122.28
  A 0.37 0.37 0.0 0 0 131.29 122.96
  Q 142.86 123.78 154.58 122.69"
/>
<path stroke="#cf842c" vector-effect="non-scaling-stroke" d="
  M 154.58 122.69
  L 165.03 122.72"
/>
<path stroke="#ffa52c" vector-effect="non-scaling-stroke" d="
  M 165.03 122.72
  Q 168.04 122.93 167.53 124.44"
/>
<path stroke="#cf842c" vector-effect="non-scaling-stroke" d="
  M 167.53 124.44
  L 161.40 125.28"
/>
<path stroke="#ffa52c" vector-effect="non-scaling-stroke" d="
  M 161.40 125.28
  C 150.10 124.60 138.93 124.93 127.71 125.25
  C 122.10 125.41 116.58 127.56 111.15 127.74
  Q 95.53 128.23 83.82 118.37
  Q 77.12 112.73 77.11 112.72
  Q 60.66 101.25 41.48 108.06
  Q 41.45 108.06 33.20 111.85
  Q 18.36 118.66 1.77 114.24
  A 0.50 0.50 0.0 0 0 1.15 114.72
  L 1.10 137.47"
/>
<path stroke="#f89b2c" vector-effect="non-scaling-stroke" d="
  M 1.10 137.47
  L 1.01 175.76"
/>
<path stroke="#e38e2c" vector-effect="non-scaling-stroke" d="
  M 1.01 175.76
  L 1.00 200.72"
/>
<path stroke="#f89b2c" vector-effect="non-scaling-stroke" d="
  M 1.00 200.72
  L 0.99 229.98"
/>
<path stroke="#cf842c" vector-effect="non-scaling-stroke" d="
  M 0.99 229.98
  L 0.66 277.00"
/>
<path stroke="#ffc671" vector-effect="non-scaling-stroke" d="
  M 219.6699 103.6696
  A 0.67 0.67 0.0 0 0 218.9988 103.0007
  L 162.5388 103.0993
  A 0.67 0.67 0.0 0 0 161.8700 103.7704
  L 161.8701 103.8104
  A 0.67 0.67 0.0 0 0 162.5412 104.4793
  L 219.0012 104.3807
  A 0.67 0.67 0.0 0 0 219.6700 103.7096
  L 219.6699 103.6696"
/>
<path stroke="#ffa52c" vector-effect="non-scaling-stroke" d="
  M 300.00 102.89
  C 291.57 102.51 281.05 101.68 273.27 105.52"
/>
<path stroke="#f78701" vector-effect="non-scaling-stroke" d="
  M 300.00 130.71
  Q 281.85 129.54 264.48 133.46"
/>
<path stroke="#ce7001" vector-effect="non-scaling-stroke" d="
  M 161.40 125.28
  Q 170.44 129.54 177.09 138.18
  Q 185.60 149.23 198.90 153.22
  C 208.89 156.21 216.46 159.39 224.44 166.50"
/>
<path stroke="#f78701" vector-effect="non-scaling-stroke" d="
  M 224.44 166.50
  Q 219.56 166.37 213.06 161.19
  Q 208.32 157.42 201.05 155.94
  C 191.83 154.06 182.67 149.31 177.34 141.48
  C 170.90 132.01 144.99 137.04 136.08 140.36
  C 124.91 144.52 112.00 148.31 100.11 144.61"
/>
<path stroke="#ffa52c" vector-effect="non-scaling-stroke" d="
  M 100.11 144.61
  Q 94.95 142.91 88.54 143.51"
/>
<path stroke="#f78701" vector-effect="non-scaling-stroke" d="
  M 88.54 143.51
  Q 70.21 129.92 47.87 132.64
  Q 44.91 133.00 36.16 135.43
  C 24.88 138.56 12.74 140.06 1.10 137.47"
/>
<path stroke="#ce7001" vector-effect="non-scaling-stroke" d="
  M 197.60 131.36
  Q 198.59 136.97 194.15 142.18
  A 1.05 1.03 32.3 0 1 192.91 142.45
  C 183.02 137.75 177.16 129.38 167.53 124.44"
/>
<path stroke="#ce7001" vector-effect="non-scaling-stroke" d="
  M 165.03 122.72
  Q 154.12 119.73 142.91 119.30
  Q 142.80 119.29 142.77 119.40
  Q 142.74 119.51 142.75 119.68
  Q 142.77 119.83 142.91 119.84
  Q 148.97 120.45 154.58 122.69"
/>
<path stroke="#ce7001" vector-effect="non-scaling-stroke" d="
  M 201.83 133.16
  Q 202.47 138.92 199.60 144.29
  Q 199.28 144.89 199.96 144.94
  Q 219.87 146.50 235.19 159.11
  Q 235.71 159.54 235.85 158.88
  Q 236.96 153.36 236.59 148.02"
/>
<path stroke="#cf842c" vector-effect="non-scaling-stroke" d="
  M 236.59 148.02
  L 267.30 148.06"
/>
<path stroke="#c76501" vector-effect="non-scaling-stroke" d="
  M 267.30 148.06
  L 268.50 175.65"
/>
<path stroke="#b35901" vector-effect="non-scaling-stroke" d="
  M 268.50 175.65
  L 268.83 192.22"
/>
<path stroke="#cf842c" vector-effect="non-scaling-stroke" d="
  M 268.83 192.22
  L 230.04 192.02"
/>
<path stroke="#bd5e01" vector-effect="non-scaling-stroke" d="
  M 230.04 192.02
  L 232.99 175.85"
/>
<path stroke="#c76501" vector-effect="non-scaling-stroke" d="
  M 232.99 175.85
  Q 229.35 170.06 224.44 166.50"
/>
<path stroke="#ffa52c" vector-effect="non-scaling-stroke" d="
  M 236.70 146.13
  L 225.21 146.35
  A 0.82 0.79 67.5 0 0 224.68 147.72
  Q 224.71 147.75 224.93 147.90
  A 0.60 0.59 61.8 0 0 225.26 148.00
  L 236.59 148.02"
/>
<path stroke="#dc7001" vector-effect="non-scaling-stroke" d="
  M 300.00 175.68
  L 268.50 175.65"
/>
<path stroke="#f89b2c" vector-effect="non-scaling-stroke" d="
  M 267.30 148.06
  L 296.77 148.04
  A 0.71 0.71 0.0 0 0 297.30 146.86
  Q 296.59 146.06 294.99 146.08
  Q 281.05 146.33 266.93 146.15"
/>
<path stroke="#f89b2c" vector-effect="non-scaling-stroke" d="
  M 88.54 143.51
  Q 74.38 143.18 60.30 143.23
  C 54.84 143.25 48.65 140.59 43.13 139.62
  Q 42.52 139.51 42.70 140.10
  L 43.23 141.85
  A 1.15 1.14 -8.9 0 1 42.15 143.33
  L 25.31 143.57
  A 0.41 0.41 0.0 0 0 25.02 143.69
  Q 23.90 144.79 25.52 144.83
  Q 34.13 145.08 42.90 144.98
  Q 43.44 144.98 43.63 145.47
  C 45.00 149.01 47.87 153.65 51.99 153.85
  C 56.39 154.07 57.65 149.12 56.94 145.65
  A 0.52 0.51 -6.4 0 1 57.44 145.03
  L 100.11 144.61"
/>
<path stroke="#e67501" vector-effect="non-scaling-stroke" d="
  M 232.99 175.85
  L 204.14 175.76"
/>
<path stroke="#dc7001" vector-effect="non-scaling-stroke" d="
  M 204.14 175.76
  L 145.64 175.56"
/>
<path stroke="#e67501" vector-effect="non-scaling-stroke" d="
  M 145.64 175.56
  L 129.84 174.60"
/>
<path stroke="#f8a846" vector-effect="non-scaling-stroke" d="
  M 129.84 174.60
  Q 129.34 173.55 127.24 173.55
  Q 111.31 173.59 95.37 173.53
  C 91.24 173.51 87.02 168.56 83.32 171.87
  C 81.50 173.49 81.36 173.57 79.00 173.53
  Q 63.87 173.26 35.75 173.84
  Q 35.22 173.85 34.97 174.70"
/>
<path stroke="#e67501" vector-effect="non-scaling-stroke" d="
  M 34.97 174.70
  Q 34.68 174.71 34.13 175.02
  C 32.45 175.97 25.26 175.63 23.16 175.69"
/>
<path stroke="#dc7001" vector-effect="non-scaling-stroke" d="
  M 23.16 175.69
  L 1.01 175.76"
/>
<path stroke="#f89b2c" vector-effect="non-scaling-stroke" d="
  M 157.20 148.03
  C 154.58 134.14 138.78 145.88 144.70 153.50
  C 147.50 157.11 151.12 159.29 153.76 163.12
  Q 154.07 163.56 154.36 163.10
  Q 158.73 156.13 157.20 148.03"
/>
<path stroke="#eea046" vector-effect="non-scaling-stroke" d="
  M 129.84 174.60
  L 114.44 174.74"
/>
<path stroke="#e39b46" vector-effect="non-scaling-stroke" d="
  M 114.44 174.74
  L 94.41 175.04"
/>
<path stroke="#ffc671" vector-effect="non-scaling-stroke" d="
  M 94.41 175.04
  L 80.87 174.94"
/>
<path stroke="#eea046" vector-effect="non-scaling-stroke" d="
  M 80.87 174.94
  L 34.97 174.70"
/>
<path stroke="#ffc671" vector-effect="non-scaling-stroke" d="
  M 87.92 172.80
  Q 86.22 171.46 84.29 172.45
  A 0.42 0.42 0.0 0 0 84.48 173.25
  L 87.76 173.25
  Q 88.50 173.25 87.92 172.80"
/>
<path stroke="#ee932c" vector-effect="non-scaling-stroke" d="
  M 80.87 174.94
  Q 79.88 177.25 80.01 178.37"
/>
<path stroke="#d26801" vector-effect="non-scaling-stroke" d="
  M 80.01 178.37
  L 78.19 178.89
  Q 77.73 179.02 77.69 179.49
  Q 76.68 190.44 77.89 201.20"
/>
<path stroke="#e67501" vector-effect="non-scaling-stroke" d="
  M 77.89 201.20
  Q 70.90 203.91 60.74 204.19
  Q 49.08 204.51 39.60 202.97
  Q 34.54 202.14 29.59 201.70"
/>
<path stroke="#ee932c" vector-effect="non-scaling-stroke" d="
  M 29.59 201.70
  Q 28.68 195.52 23.11 195.89"
/>
<path stroke="#d26801" vector-effect="non-scaling-stroke" d="
  M 23.11 195.89
  Q 22.40 186.11 23.16 175.69"
/>
<path stroke="#d26801" vector-effect="non-scaling-stroke" d="
  M 145.64 175.56
  C 145.71 183.52 144.38 193.59 145.79 201.05"
/>
<path stroke="#e67501" vector-effect="non-scaling-stroke" d="
  M 145.79 201.05
  C 134.90 198.91 126.46 196.17 113.67 195.34"
/>
<path stroke="#d26801" vector-effect="non-scaling-stroke" d="
  M 113.67 195.34
  Q 114.86 185.02 114.44 174.74"
/>
<path stroke="#e38e2c" vector-effect="non-scaling-stroke" d="
  M 94.41 175.04
  Q 99.96 181.02 100.44 189.07
  Q 100.48 189.77 99.87 189.42
  C 92.76 185.31 79.84 191.21 80.01 178.37"
/>
<path stroke="#dc7001" vector-effect="non-scaling-stroke" d="
  M 113.67 195.34
  Q 95.54 194.56 77.89 201.20"
/>
<path stroke="#e38e2c" vector-effect="non-scaling-stroke" d="
  M 23.11 195.89
  Q 20.34 197.81 15.81 198.56
  Q 14.60 198.76 15.56 200.02"
/>
<path stroke="#dc7001" vector-effect="non-scaling-stroke" d="
  M 15.56 200.02
  L 1.00 200.72"
/>
<path stroke="#d26801" vector-effect="non-scaling-stroke" d="
  M 204.14 175.76
  L 204.12 192.23"
/>
<path stroke="#e38e2c" vector-effect="non-scaling-stroke" d="
  M 204.12 192.23
  Q 178.97 192.27 153.50 192.28
  Q 152.03 192.28 152.13 193.24
  A 0.86 0.85 87.0 0 0 152.98 194.01
  L 197.06 194.03"
/>
<path stroke="#dc7001" vector-effect="non-scaling-stroke" d="
  M 197.06 194.03
  C 193.82 195.33 190.62 195.11 187.43 196.41
  C 173.29 202.18 161.59 201.95 145.79 201.05"
/>
<path stroke="#ee932c" vector-effect="non-scaling-stroke" d="
  M 230.04 192.02
  L 204.12 192.23"
/>
<path stroke="#dc7001" vector-effect="non-scaling-stroke" d="
  M 300.00 205.31
  Q 284.17 206.11 268.54 204.40"
/>
<path stroke="#b35901" vector-effect="non-scaling-stroke" d="
  M 268.54 204.40
  Q 267.74 199.00 268.69 193.98"
/>
<path stroke="#e38e2c" vector-effect="non-scaling-stroke" d="
  M 268.69 193.98
  L 282.41 193.77
  A 0.49 0.49 0.0 0 0 282.80 193.00
  Q 282.25 192.20 280.99 192.21
  Q 274.81 192.28 268.83 192.22"
/>
<path stroke="#cf842c" vector-effect="non-scaling-stroke" d="
  M 268.69 193.98
  L 229.79 194.00"
/>
<path stroke="#f89b2c" vector-effect="non-scaling-stroke" d="
  M 229.79 194.00
  L 197.06 194.03"
/>
<path stroke="#c76501" vector-effect="non-scaling-stroke" d="
  M 268.54 204.40
  L 268.25 229.42
  A 0.57 0.57 0.0 0 0 268.82 230.00
  L 300.00 230.02"
/>
<path stroke="#c76501" vector-effect="non-scaling-stroke" d="
  M 0.99 229.98
  L 222.64 230.00
  Q 223.43 230.00 223.57 229.22
  L 229.79 194.00"
/>
<path stroke="#f89b2c" vector-effect="non-scaling-stroke" d="
  M 15.56 200.02
  Q 20.06 206.11 26.25 205.75
  Q 29.64 205.55 29.59 201.70"
/>
<path stroke="#f89b2c" vector-effect="non-scaling-stroke" d="
  M 195.24 215.22
  C 208.95 216.82 201.94 196.86 191.84 203.06
  Q 187.45 205.76 182.45 207.38
  Q 181.88 207.57 182.23 208.05
  Q 186.79 214.24 195.24 215.22"
/>
<path stroke="#f8a846" vector-effect="non-scaling-stroke" d="
  M 157.83 205.77
  L 157.83 204.79
  A 0.16 0.16 0.0 0 0 157.67 204.63
  L 157.53 204.63
  A 88.02 0.60 0.0 0 0 69.51 205.23
  L 69.51 205.33
  A 88.02 0.60 0.0 0 0 157.53 205.93
  L 157.67 205.93
  A 0.16 0.16 0.0 0 0 157.83 205.77"
/>
</g>
<path fill="#ffd38b" d="
  M 0.00 0.00
  L 159.98 0.00
  Q 175.91 9.79 183.48 23.03
  C 186.47 28.26 189.54 37.40 193.73 43.40
  C 195.36 45.74 200.42 52.56 203.30 52.56
  Q 214.39 52.60 222.77 52.74
  Q 227.33 52.83 222.94 51.59
  Q 217.10 49.95 211.72 47.09
  Q 211.20 46.81 211.46 46.28
  C 216.62 35.85 211.63 26.92 202.59 21.26
  A 0.23 0.23 0.0 0 0 202.31 21.62
  C 208.55 27.45 212.49 35.16 206.83 43.16
  Q 206.55 43.57 206.15 43.28
  C 196.98 36.54 193.41 28.49 188.40 20.84
  C 183.07 12.71 172.88 2.84 163.03 0.00
  L 231.47 0.00
  Q 232.56 7.29 233.58 14.58
  C 235.46 28.07 233.05 38.69 229.50 51.50
  A 0.75 0.75 0.0 0 0 230.21 52.45
  L 248.07 52.62
  A 0.76 0.75 4.8 0 0 248.83 51.98
  C 249.60 47.03 250.87 41.49 251.20 36.93
  Q 252.57 17.82 244.61 0.00
  L 300.00 0.00
  L 300.00 75.55
  L 299.73 77.92
  Q 299.68 78.38 299.25 78.54
  Q 287.05 83.33 275.24 78.51
  C 278.82 68.00 272.95 60.36 264.45 55.22
  A 0.15 0.15 0.0 0 0 264.28 55.46
  C 270.89 61.32 275.20 68.40 269.92 76.95
  A 0.36 0.36 0.0 0 1 269.29 76.93
  Q 262.09 63.74 249.20 55.99
  Q 248.77 55.73 248.63 55.26
  L 248.47 54.76
  Q 248.31 54.26 247.79 54.17
  C 244.13 53.52 240.07 54.08 237.11 54.01
  Q 220.88 53.61 204.53 54.09
  Q 203.51 54.12 204.37 54.67
  Q 214.79 61.43 226.73 65.02
  A 0.69 0.69 0.0 0 1 227.22 65.73
  L 226.63 74.20
  Q 222.43 78.24 219.15 82.89
  C 207.83 98.93 190.81 105.95 173.43 93.07
  Q 171.72 91.80 166.58 86.39
  C 155.25 74.46 139.87 69.81 125.91 81.09
  C 120.32 85.61 116.35 92.58 112.68 96.92
  C 96.85 115.69 74.56 111.87 61.13 93.39
  Q 59.37 90.98 56.69 91.02
  Q 37.61 91.29 26.00 90.99
  Q 25.53 90.98 25.29 90.69
  Q 24.94 90.26 25.50 90.26
  L 57.43 90.16
  A 0.56 0.55 -16.2 0 0 57.90 89.31
  C 45.57 69.92 26.09 56.04 2.09 60.49
  Q 0.95 60.70 0.96 61.86
  L 1.15 113.13
  A 0.38 0.38 0.0 0 1 0.80 113.51
  Q 0.61 113.53 0.45 113.49
  Q 0.20 113.42 0.19 113.16
  L 0.00 108.68
  L 0.00 104.20
  L 0.00 57.43
  L 0.00 0.00
  Z
  M 227.11 21.80
  C 227.05 17.08 223.11 8.23 216.84 9.96
  Q 216.33 10.10 216.00 10.52
  Q 211.99 15.81 216.66 20.22
  A 0.76 0.73 70.8 0 0 217.03 20.41
  L 226.86 22.02
  Q 227.12 22.07 227.11 21.80
  Z
  M 52.81 32.19
  Q 50.51 31.01 42.95 28.66
  A 0.64 0.54 68.2 0 1 42.78 28.57
  Q 41.71 27.67 40.51 26.84
  A 0.63 0.62 -67.8 0 0 39.54 27.25
  Q 38.02 35.78 43.40 43.32
  C 51.45 54.58 61.85 36.83 52.81 32.19
  Z
  M 273.19 29.11
  Q 268.85 37.38 272.38 45.30
  C 275.83 53.05 286.12 44.52 283.53 38.91
  C 281.87 35.31 275.82 33.72 273.69 29.12
  Q 273.45 28.61 273.19 29.11
  Z
  M 99.11 34.35
  C 94.97 38.07 92.20 41.94 87.07 44.51
  A 0.58 0.58 0.0 0 0 86.99 45.50
  Q 97.47 53.09 109.92 49.68
  C 123.53 45.94 109.33 25.17 99.11 34.35
  Z
  M 157.70 56.12
  C 159.64 49.40 150.70 49.38 147.87 54.24
  Q 147.60 54.69 147.71 55.19
  L 149.64 64.50
  Q 149.75 64.99 150.20 64.78
  Q 155.98 62.08 157.70 56.12
  Z
  M 86.87 70.25
  C 82.93 59.33 67.78 73.17 75.75 79.55
  Q 81.42 84.10 84.31 87.67
  Q 84.63 88.06 84.91 87.63
  Q 90.17 79.41 86.87 70.25
  Z"
/>
<path fill="#9e4e01" d="
  M 159.98 0.00
  L 163.03 0.00
  C 172.88 2.84 183.07 12.71 188.40 20.84
  C 193.41 28.49 196.98 36.54 206.15 43.28
  Q 206.55 43.57 206.83 43.16
  C 212.49 35.16 208.55 27.45 202.31 21.62
  A 0.23 0.23 0.0 0 1 202.59 21.26
  C 211.63 26.92 216.62 35.85 211.46 46.28
  Q 211.20 46.81 211.72 47.09
  Q 217.10 49.95 222.94 51.59
  Q 227.33 52.83 222.77 52.74
  Q 214.39 52.60 203.30 52.56
  C 200.42 52.56 195.36 45.74 193.73 43.40
  C 189.54 37.40 186.47 28.26 183.48 23.03
  Q 175.91 9.79 159.98 0.00
  Z"
/>
<path fill="#9e4e01" d="
  M 231.47 0.00
  L 244.61 0.00
  Q 252.57 17.82 251.20 36.93
  C 250.87 41.49 249.60 47.03 248.83 51.98
  A 0.76 0.75 4.8 0 1 248.07 52.62
  L 230.21 52.45
  A 0.75 0.75 0.0 0 1 229.50 51.50
  C 233.05 38.69 235.46 28.07 233.58 14.58
  Q 232.56 7.29 231.47 0.00
  Z"
/>
<path fill="#fe9100" d="
  M 216.84 9.96
  C 223.11 8.23 227.05 17.08 227.11 21.80
  Q 227.12 22.07 226.86 22.02
  L 217.03 20.41
  A 0.76 0.73 70.8 0 1 216.66 20.22
  Q 211.99 15.81 216.00 10.52
  Q 216.33 10.10 216.84 9.96
  Z"
/>
<path fill="#fe9100" d="
  M 52.81 32.19
  C 61.85 36.83 51.45 54.58 43.40 43.32
  Q 38.02 35.78 39.54 27.25
  A 0.63 0.62 -67.8 0 1 40.51 26.84
  Q 41.71 27.67 42.78 28.57
  A 0.64 0.54 68.2 0 0 42.95 28.66
  Q 50.51 31.01 52.81 32.19
  Z"
/>
<path fill="#fe9100" d="
  M 273.19 29.11
  Q 273.45 28.61 273.69 29.12
  C 275.82 33.72 281.87 35.31 283.53 38.91
  C 286.12 44.52 275.83 53.05 272.38 45.30
  Q 268.85 37.38 273.19 29.11
  Z"
/>
<path fill="#fe9100" d="
  M 87.07 44.51
  C 92.20 41.94 94.97 38.07 99.11 34.35
  C 109.33 25.17 123.53 45.94 109.92 49.68
  Q 97.47 53.09 86.99 45.50
  A 0.58 0.58 0.0 0 1 87.07 44.51
  Z"
/>
<path fill="#fe9100" d="
  M 147.87 54.24
  C 150.70 49.38 159.64 49.40 157.70 56.12
  Q 155.98 62.08 150.20 64.78
  Q 149.75 64.99 149.64 64.50
  L 147.71 55.19
  Q 147.60 54.69 147.87 54.24
  Z"
/>
<path fill="#9e4e01" d="
  M 275.24 78.51
  L 272.10 82.89
  Q 271.81 83.29 271.96 83.77
  Q 275.29 94.42 273.27 105.52
  Q 270.72 116.54 262.55 124.48
  A 0.93 0.92 -29.8 0 0 262.30 125.38
  L 264.48 133.46
  L 266.93 146.15
  L 236.70 146.13
  Q 237.17 137.11 235.73 127.62
  Q 234.90 120.94 233.77 116.24
  C 230.40 102.17 227.28 90.16 226.63 74.20
  L 227.22 65.73
  A 0.69 0.69 0.0 0 0 226.73 65.02
  Q 214.79 61.43 204.37 54.67
  Q 203.51 54.12 204.53 54.09
  Q 220.88 53.61 237.11 54.01
  C 240.07 54.08 244.13 53.52 247.79 54.17
  Q 248.31 54.26 248.47 54.76
  L 248.63 55.26
  Q 248.77 55.73 249.20 55.99
  Q 262.09 63.74 269.29 76.93
  A 0.36 0.36 0.0 0 0 269.92 76.95
  C 275.20 68.40 270.89 61.32 264.28 55.46
  A 0.15 0.15 0.0 0 1 264.45 55.22
  C 272.95 60.36 278.82 68.00 275.24 78.51
  Z
  M 247.75 64.57
  C 247.39 80.34 251.12 94.02 256.65 108.47
  Q 256.86 109.00 257.21 108.56
  C 264.13 100.06 266.35 89.63 263.47 78.98
  Q 261.35 71.17 256.28 65.18
  L 248.92 57.17
  A 0.49 0.49 0.0 0 0 248.08 57.48
  L 247.75 64.57
  Z"
/>
<path fill="#ffd38b" d="
  M 256.28 65.18
  L 247.75 64.57
  L 248.08 57.48
  A 0.49 0.49 0.0 0 1 248.92 57.17
  L 256.28 65.18
  Z"
/>
<path fill="#ffb957" d="
  M 0.00 57.43
  L 0.00 104.20
  L 0.00 57.43
  Z"
/>
<path fill="#ffb957" d="
  M 226.63 74.20
  C 227.28 90.16 230.40 102.17 233.77 116.24
  Q 234.90 120.94 235.73 127.62
  Q 222.72 134.92 208.34 133.56
  Q 205.00 133.25 201.83 133.16
  Q 199.18 123.92 190.52 119.22
  Q 190.50 118.89 190.09 119.05
  Q 189.70 119.20 190.05 119.44
  Q 196.30 123.62 197.60 131.36
  Q 188.66 126.24 181.07 119.90
  C 171.54 111.94 158.93 110.28 147.25 113.68
  C 141.61 115.32 136.16 118.89 131.11 122.28
  A 0.37 0.37 0.0 0 0 131.29 122.96
  Q 142.86 123.78 154.58 122.69
  L 165.03 122.72
  Q 168.04 122.93 167.53 124.44
  L 161.40 125.28
  C 150.10 124.60 138.93 124.93 127.71 125.25
  C 122.10 125.41 116.58 127.56 111.15 127.74
  Q 95.53 128.23 83.82 118.37
  Q 77.12 112.73 77.11 112.72
  Q 60.66 101.25 41.48 108.06
  Q 41.45 108.06 33.20 111.85
  Q 18.36 118.66 1.77 114.24
  A 0.50 0.50 0.0 0 0 1.15 114.72
  L 1.10 137.47
  L 1.01 175.76
  L 1.00 200.72
  L 0.99 229.98
  L 0.66 277.00
  L 0.00 277.00
  L 0.00 108.68
  L 0.19 113.16
  Q 0.20 113.42 0.45 113.49
  Q 0.61 113.53 0.80 113.51
  A 0.38 0.38 0.0 0 0 1.15 113.13
  L 0.96 61.86
  Q 0.95 60.70 2.09 60.49
  C 26.09 56.04 45.57 69.92 57.90 89.31
  A 0.56 0.55 -16.2 0 1 57.43 90.16
  L 25.50 90.26
  Q 24.94 90.26 25.29 90.69
  Q 25.53 90.98 26.00 90.99
  Q 37.61 91.29 56.69 91.02
  Q 59.37 90.98 61.13 93.39
  C 74.56 111.87 96.85 115.69 112.68 96.92
  C 116.35 92.58 120.32 85.61 125.91 81.09
  C 139.87 69.81 155.25 74.46 166.58 86.39
  Q 171.72 91.80 173.43 93.07
  C 190.81 105.95 207.83 98.93 219.15 82.89
  Q 222.43 78.24 226.63 74.20
  Z
  M 219.6699 103.6696
  A 0.67 0.67 0.0 0 0 218.9988 103.0007
  L 162.5388 103.0993
  A 0.67 0.67 0.0 0 0 161.8700 103.7704
  L 161.8701 103.8104
  A 0.67 0.67 0.0 0 0 162.5412 104.4793
  L 219.0012 104.3807
  A 0.67 0.67 0.0 0 0 219.6700 103.7096
  L 219.6699 103.6696
  Z"
/>
<path fill="#ffb957" d="
  M 256.28 65.18
  Q 261.35 71.17 263.47 78.98
  C 266.35 89.63 264.13 100.06 257.21 108.56
  Q 256.86 109.00 256.65 108.47
  C 251.12 94.02 247.39 80.34 247.75 64.57
  L 256.28 65.18
  Z"
/>
<path fill="#fe9100" d="
  M 75.75 79.55
  C 67.78 73.17 82.93 59.33 86.87 70.25
  Q 90.17 79.41 84.91 87.63
  Q 84.63 88.06 84.31 87.67
  Q 81.42 84.10 75.75 79.55
  Z"
/>
<path fill="#ffb957" d="
  M 300.00 75.55
  L 300.00 102.89
  C 291.57 102.51 281.05 101.68 273.27 105.52
  Q 275.29 94.42 271.96 83.77
  Q 271.81 83.29 272.10 82.89
  L 275.24 78.51
  Q 287.05 83.33 299.25 78.54
  Q 299.68 78.38 299.73 77.92
  L 300.00 75.55
  Z"
/>
<path fill="#fe9100" d="
  M 300.00 102.89
  L 300.00 130.71
  Q 281.85 129.54 264.48 133.46
  L 262.30 125.38
  A 0.93 0.92 -29.8 0 1 262.55 124.48
  Q 270.72 116.54 273.27 105.52
  C 281.05 101.68 291.57 102.51 300.00 102.89
  Z"
/>
<path fill="#ffd38b" d="
  M 219.6700 103.7096
  A 0.67 0.67 0.0 0 1 219.0012 104.3807
  L 162.5412 104.4793
  A 0.67 0.67 0.0 0 1 161.8701 103.8104
  L 161.8700 103.7704
  A 0.67 0.67 0.0 0 1 162.5388 103.0993
  L 218.9988 103.0007
  A 0.67 0.67 0.0 0 1 219.6699 103.6696
  L 219.6700 103.7096
  Z"
/>
<path fill="#fe9100" d="
  M 161.40 125.28
  Q 170.44 129.54 177.09 138.18
  Q 185.60 149.23 198.90 153.22
  C 208.89 156.21 216.46 159.39 224.44 166.50
  Q 219.56 166.37 213.06 161.19
  Q 208.32 157.42 201.05 155.94
  C 191.83 154.06 182.67 149.31 177.34 141.48
  C 170.90 132.01 144.99 137.04 136.08 140.36
  C 124.91 144.52 112.00 148.31 100.11 144.61
  Q 94.95 142.91 88.54 143.51
  Q 70.21 129.92 47.87 132.64
  Q 44.91 133.00 36.16 135.43
  C 24.88 138.56 12.74 140.06 1.10 137.47
  L 1.15 114.72
  A 0.50 0.50 0.0 0 1 1.77 114.24
  Q 18.36 118.66 33.20 111.85
  Q 41.45 108.06 41.48 108.06
  Q 60.66 101.25 77.11 112.72
  Q 77.12 112.73 83.82 118.37
  Q 95.53 128.23 111.15 127.74
  C 116.58 127.56 122.10 125.41 127.71 125.25
  C 138.93 124.93 150.10 124.60 161.40 125.28
  Z"
/>
<path fill="#fe9100" d="
  M 197.60 131.36
  Q 198.59 136.97 194.15 142.18
  A 1.05 1.03 32.3 0 1 192.91 142.45
  C 183.02 137.75 177.16 129.38 167.53 124.44
  Q 168.04 122.93 165.03 122.72
  Q 154.12 119.73 142.91 119.30
  Q 142.80 119.29 142.77 119.40
  Q 142.74 119.51 142.75 119.68
  Q 142.77 119.83 142.91 119.84
  Q 148.97 120.45 154.58 122.69
  Q 142.86 123.78 131.29 122.96
  A 0.37 0.37 0.0 0 1 131.11 122.28
  C 136.16 118.89 141.61 115.32 147.25 113.68
  C 158.93 110.28 171.54 111.94 181.07 119.90
  Q 188.66 126.24 197.60 131.36
  Z"
/>
<path fill="#9e4e01" d="
  M 201.83 133.16
  Q 202.47 138.92 199.60 144.29
  Q 199.28 144.89 199.96 144.94
  Q 219.87 146.50 235.19 159.11
  Q 235.71 159.54 235.85 158.88
  Q 236.96 153.36 236.59 148.02
  L 267.30 148.06
  L 268.50 175.65
  L 268.83 192.22
  L 230.04 192.02
  L 232.99 175.85
  Q 229.35 170.06 224.44 166.50
  C 216.46 159.39 208.89 156.21 198.90 153.22
  Q 185.60 149.23 177.09 138.18
  Q 170.44 129.54 161.40 125.28
  L 167.53 124.44
  C 177.16 129.38 183.02 137.75 192.91 142.45
  A 1.05 1.03 32.3 0 0 194.15 142.18
  Q 198.59 136.97 197.60 131.36
  Q 196.30 123.62 190.05 119.44
  Q 189.70 119.20 190.09 119.05
  Q 190.50 118.89 190.52 119.22
  Q 199.18 123.92 201.83 133.16
  Z"
/>
<path fill="#9e4e01" d="
  M 165.03 122.72
  L 154.58 122.69
  Q 148.97 120.45 142.91 119.84
  Q 142.77 119.83 142.75 119.68
  Q 142.74 119.51 142.77 119.40
  Q 142.80 119.29 142.91 119.30
  Q 154.12 119.73 165.03 122.72
  Z"
/>
<path fill="#fe9100" d="
  M 235.73 127.62
  Q 237.17 137.11 236.70 146.13
  L 225.21 146.35
  A 0.82 0.79 67.5 0 0 224.68 147.72
  Q 224.71 147.75 224.93 147.90
  A 0.60 0.59 61.8 0 0 225.26 148.00
  L 236.59 148.02
  Q 236.96 153.36 235.85 158.88
  Q 235.71 159.54 235.19 159.11
  Q 219.87 146.50 199.96 144.94
  Q 199.28 144.89 199.60 144.29
  Q 202.47 138.92 201.83 133.16
  Q 205.00 133.25 208.34 133.56
  Q 222.72 134.92 235.73 127.62
  Z"
/>
<path fill="#f07c01" d="
  M 300.00 130.71
  L 300.00 175.68
  L 268.50 175.65
  L 267.30 148.06
  L 296.77 148.04
  A 0.71 0.71 0.0 0 0 297.30 146.86
  Q 296.59 146.06 294.99 146.08
  Q 281.05 146.33 266.93 146.15
  L 264.48 133.46
  Q 281.85 129.54 300.00 130.71
  Z"
/>
<path fill="#f07c01" d="
  M 88.54 143.51
  Q 74.38 143.18 60.30 143.23
  C 54.84 143.25 48.65 140.59 43.13 139.62
  Q 42.52 139.51 42.70 140.10
  L 43.23 141.85
  A 1.15 1.14 -8.9 0 1 42.15 143.33
  L 25.31 143.57
  A 0.41 0.41 0.0 0 0 25.02 143.69
  Q 23.90 144.79 25.52 144.83
  Q 34.13 145.08 42.90 144.98
  Q 43.44 144.98 43.63 145.47
  C 45.00 149.01 47.87 153.65 51.99 153.85
  C 56.39 154.07 57.65 149.12 56.94 145.65
  A 0.52 0.51 -6.4 0 1 57.44 145.03
  L 100.11 144.61
  C 112.00 148.31 124.91 144.52 136.08 140.36
  C 144.99 137.04 170.90 132.01 177.34 141.48
  C 182.67 149.31 191.83 154.06 201.05 155.94
  Q 208.32 157.42 213.06 161.19
  Q 219.56 166.37 224.44 166.50
  Q 229.35 170.06 232.99 175.85
  L 204.14 175.76
  L 145.64 175.56
  L 129.84 174.60
  Q 129.34 173.55 127.24 173.55
  Q 111.31 173.59 95.37 173.53
  C 91.24 173.51 87.02 168.56 83.32 171.87
  C 81.50 173.49 81.36 173.57 79.00 173.53
  Q 63.87 173.26 35.75 173.84
  Q 35.22 173.85 34.97 174.70
  Q 34.68 174.71 34.13 175.02
  C 32.45 175.97 25.26 175.63 23.16 175.69
  L 1.01 175.76
  L 1.10 137.47
  C 12.74 140.06 24.88 138.56 36.16 135.43
  Q 44.91 133.00 47.87 132.64
  Q 70.21 129.92 88.54 143.51
  Z
  M 157.20 148.03
  C 154.58 134.14 138.78 145.88 144.70 153.50
  C 147.50 157.11 151.12 159.29 153.76 163.12
  Q 154.07 163.56 154.36 163.10
  Q 158.73 156.13 157.20 148.03
  Z"
/>
<path fill="#ffb957" d="
  M 88.54 143.51
  Q 94.95 142.91 100.11 144.61
  L 57.44 145.03
  A 0.52 0.51 -6.4 0 0 56.94 145.65
  C 57.65 149.12 56.39 154.07 51.99 153.85
  C 47.87 153.65 45.00 149.01 43.63 145.47
  Q 43.44 144.98 42.90 144.98
  Q 34.13 145.08 25.52 144.83
  Q 23.90 144.79 25.02 143.69
  A 0.41 0.41 0.0 0 1 25.31 143.57
  L 42.15 143.33
  A 1.15 1.14 -8.9 0 0 43.23 141.85
  L 42.70 140.10
  Q 42.52 139.51 43.13 139.62
  C 48.65 140.59 54.84 143.25 60.30 143.23
  Q 74.38 143.18 88.54 143.51
  Z"
/>
<path fill="#ffb957" d="
  M 144.70 153.50
  C 138.78 145.88 154.58 134.14 157.20 148.03
  Q 158.73 156.13 154.36 163.10
  Q 154.07 163.56 153.76 163.12
  C 151.12 159.29 147.50 157.11 144.70 153.50
  Z"
/>
<path fill="#ffb957" d="
  M 236.70 146.13
  L 266.93 146.15
  Q 281.05 146.33 294.99 146.08
  Q 296.59 146.06 297.30 146.86
  A 0.71 0.71 0.0 0 1 296.77 148.04
  L 267.30 148.06
  L 236.59 148.02
  L 225.26 148.00
  A 0.60 0.59 61.8 0 1 224.93 147.90
  Q 224.71 147.75 224.68 147.72
  A 0.82 0.79 67.5 0 1 225.21 146.35
  L 236.70 146.13
  Z"
/>
<path fill="#ffd38b" d="
  M 129.84 174.60
  L 114.44 174.74
  L 94.41 175.04
  L 80.87 174.94
  L 34.97 174.70
  Q 35.22 173.85 35.75 173.84
  Q 63.87 173.26 79.00 173.53
  C 81.36 173.57 81.50 173.49 83.32 171.87
  C 87.02 168.56 91.24 173.51 95.37 173.53
  Q 111.31 173.59 127.24 173.55
  Q 129.34 173.55 129.84 174.60
  Z
  M 87.92 172.80
  Q 86.22 171.46 84.29 172.45
  A 0.42 0.42 0.0 0 0 84.48 173.25
  L 87.76 173.25
  Q 88.50 173.25 87.92 172.80
  Z"
/>
<path fill="#ffb957" d="
  M 87.92 172.80
  Q 88.50 173.25 87.76 173.25
  L 84.48 173.25
  A 0.42 0.42 0.0 0 1 84.29 172.45
  Q 86.22 171.46 87.92 172.80
  Z"
/>
<path fill="#dc6d00" d="
  M 34.97 174.70
  L 80.87 174.94
  Q 79.88 177.25 80.01 178.37
  L 78.19 178.89
  Q 77.73 179.02 77.69 179.49
  Q 76.68 190.44 77.89 201.20
  Q 70.90 203.91 60.74 204.19
  Q 49.08 204.51 39.60 202.97
  Q 34.54 202.14 29.59 201.70
  Q 28.68 195.52 23.11 195.89
  Q 22.40 186.11 23.16 175.69
  C 25.26 175.63 32.45 175.97 34.13 175.02
  Q 34.68 174.71 34.97 174.70
  Z"
/>
<path fill="#dc6d00" d="
  M 129.84 174.60
  L 145.64 175.56
  C 145.71 183.52 144.38 193.59 145.79 201.05
  C 134.90 198.91 126.46 196.17 113.67 195.34
  Q 114.86 185.02 114.44 174.74
  L 129.84 174.60
  Z"
/>
<path fill="#ffb957" d="
  M 94.41 175.04
  Q 99.96 181.02 100.44 189.07
  Q 100.48 189.77 99.87 189.42
  C 92.76 185.31 79.84 191.21 80.01 178.37
  Q 79.88 177.25 80.87 174.94
  L 94.41 175.04
  Z"
/>
<path fill="#c76301" d="
  M 114.44 174.74
  Q 114.86 185.02 113.67 195.34
  Q 95.54 194.56 77.89 201.20
  Q 76.68 190.44 77.69 179.49
  Q 77.73 179.02 78.19 178.89
  L 80.01 178.37
  C 79.84 191.21 92.76 185.31 99.87 189.42
  Q 100.48 189.77 100.44 189.07
  Q 99.96 181.02 94.41 175.04
  L 114.44 174.74
  Z"
/>
<path fill="#c76301" d="
  M 1.01 175.76
  L 23.16 175.69
  Q 22.40 186.11 23.11 195.89
  Q 20.34 197.81 15.81 198.56
  Q 14.60 198.76 15.56 200.02
  L 1.00 200.72
  L 1.01 175.76
  Z"
/>
<path fill="#c76301" d="
  M 204.14 175.76
  L 204.12 192.23
  Q 178.97 192.27 153.50 192.28
  Q 152.03 192.28 152.13 193.24
  A 0.86 0.85 87.0 0 0 152.98 194.01
  L 197.06 194.03
  C 193.82 195.33 190.62 195.11 187.43 196.41
  C 173.29 202.18 161.59 201.95 145.79 201.05
  C 144.38 193.59 145.71 183.52 145.64 175.56
  L 204.14 175.76
  Z"
/>
<path fill="#dc6d00" d="
  M 232.99 175.85
  L 230.04 192.02
  L 204.12 192.23
  L 204.14 175.76
  L 232.99 175.85
  Z"
/>
<path fill="#c76301" d="
  M 268.50 175.65
  L 300.00 175.68
  L 300.00 205.31
  Q 284.17 206.11 268.54 204.40
  Q 267.74 199.00 268.69 193.98
  L 282.41 193.77
  A 0.49 0.49 0.0 0 0 282.80 193.00
  Q 282.25 192.20 280.99 192.21
  Q 274.81 192.28 268.83 192.22
  L 268.50 175.65
  Z"
/>
<path fill="#ffb957" d="
  M 230.04 192.02
  L 268.83 192.22
  Q 274.81 192.28 280.99 192.21
  Q 282.25 192.20 282.80 193.00
  A 0.49 0.49 0.0 0 1 282.41 193.77
  L 268.69 193.98
  L 229.79 194.00
  L 197.06 194.03
  L 152.98 194.01
  A 0.86 0.85 87.0 0 1 152.13 193.24
  Q 152.03 192.28 153.50 192.28
  Q 178.97 192.27 204.12 192.23
  L 230.04 192.02
  Z"
/>
<path fill="#9e4e01" d="
  M 268.69 193.98
  Q 267.74 199.00 268.54 204.40
  L 268.25 229.42
  A 0.57 0.57 0.0 0 0 268.82 230.00
  L 300.00 230.02
  L 300.00 277.00
  L 0.66 277.00
  L 0.99 229.98
  L 222.64 230.00
  Q 223.43 230.00 223.57 229.22
  L 229.79 194.00
  L 268.69 193.98
  Z"
/>
<path fill="#f07c01" d="
  M 197.06 194.03
  L 229.79 194.00
  L 223.57 229.22
  Q 223.43 230.00 222.64 230.00
  L 0.99 229.98
  L 1.00 200.72
  L 15.56 200.02
  Q 20.06 206.11 26.25 205.75
  Q 29.64 205.55 29.59 201.70
  Q 34.54 202.14 39.60 202.97
  Q 49.08 204.51 60.74 204.19
  Q 70.90 203.91 77.89 201.20
  Q 95.54 194.56 113.67 195.34
  C 126.46 196.17 134.90 198.91 145.79 201.05
  C 161.59 201.95 173.29 202.18 187.43 196.41
  C 190.62 195.11 193.82 195.33 197.06 194.03
  Z
  M 195.24 215.22
  C 208.95 216.82 201.94 196.86 191.84 203.06
  Q 187.45 205.76 182.45 207.38
  Q 181.88 207.57 182.23 208.05
  Q 186.79 214.24 195.24 215.22
  Z
  M 157.83 205.77
  L 157.83 204.79
  A 0.16 0.16 0.0 0 0 157.67 204.63
  L 157.53 204.63
  A 88.02 0.60 0.0 0 0 69.51 205.23
  L 69.51 205.33
  A 88.02 0.60 0.0 0 0 157.53 205.93
  L 157.67 205.93
  A 0.16 0.16 0.0 0 0 157.83 205.77
  Z"
/>
<path fill="#ffb957" d="
  M 29.59 201.70
  Q 29.64 205.55 26.25 205.75
  Q 20.06 206.11 15.56 200.02
  Q 14.60 198.76 15.81 198.56
  Q 20.34 197.81 23.11 195.89
  Q 28.68 195.52 29.59 201.70
  Z"
/>
<path fill="#ffb957" d="
  M 191.84 203.06
  C 201.94 196.86 208.95 216.82 195.24 215.22
  Q 186.79 214.24 182.23 208.05
  Q 181.88 207.57 182.45 207.38
  Q 187.45 205.76 191.84 203.06
  Z"
/>
<path fill="#f07c01" d="
  M 268.54 204.40
  Q 284.17 206.11 300.00 205.31
  L 300.00 230.02
  L 268.82 230.00
  A 0.57 0.57 0.0 0 1 268.25 229.42
  L 268.54 204.40
  Z"
/>
<path fill="#ffd38b" d="
  M 157.83 205.77
  A 0.16 0.16 0.0 0 1 157.67 205.93
  L 157.53 205.93
  A 88.02 0.60 0.0 0 1 69.51 205.33
  L 69.51 205.23
  A 88.02 0.60 -0.0 0 1 157.53 204.63
  L 157.67 204.63
  A 0.16 0.16 0.0 0 1 157.83 204.79
  L 157.83 205.77
  Z"
/>
</svg>
