<svg width="18" height="15" viewBox="0 0 18 15" fill="none" xmlns="http://www.w3.org/2000/svg">
<g id="Layer 19">
<g clip-path="url(#clip0_4_243)">
<g id="Layer 2">
<g id="Layer 19_2">
<path id="Vector" d="M13 4.71C13.0387 4.284 13.2002 3.87839 13.4649 3.54239C13.7297 3.20639 14.0862 2.95443 14.4913 2.81709C14.8964 2.67975 15.3327 2.66293 15.7472 2.76866C16.1617 2.8744 16.5366 3.09815 16.8264 3.41276C17.1162 3.72738 17.3085 4.11934 17.3799 4.5411C17.4513 4.96285 17.3988 5.39626 17.2287 5.78876C17.0586 6.18125 16.7783 6.51595 16.4218 6.75226C16.0652 6.98856 15.6477 7.11631 15.22 7.12H1.84998" stroke="#f9822f" stroke-width="1.2" stroke-linecap="round" stroke-linejoin="round"/>
<path id="Vector_2" d="M6.21998 2.6C6.2587 2.17599 6.41963 1.77232 6.68325 1.43797C6.94686 1.10361 7.30184 0.852941 7.70511 0.716354C8.10839 0.579768 8.54263 0.563138 8.95517 0.668481C9.36771 0.773825 9.74082 0.996615 10.0292 1.30983C10.3177 1.62304 10.509 2.01322 10.58 2.43302C10.6511 2.85283 10.5988 3.28424 10.4294 3.6749C10.2601 4.06557 9.9811 4.39871 9.62619 4.63392C9.27128 4.86913 8.85574 4.9963 8.42998 5H0.599976" stroke="#f9822f" stroke-width="1.2" stroke-linecap="round" stroke-linejoin="round"/>
<path id="Vector_3" d="M10.23 11.65C10.2706 12.0758 10.434 12.4806 10.7002 12.8154C10.9664 13.1502 11.324 13.4005 11.7297 13.5361C12.1353 13.6716 12.5716 13.6865 12.9856 13.579C13.3996 13.4715 13.7735 13.2461 14.0619 12.9303C14.3503 12.6144 14.5409 12.2217 14.6105 11.7997C14.6801 11.3777 14.6258 10.9445 14.4541 10.5528C14.2824 10.161 14.0007 9.82754 13.6432 9.59274C13.2857 9.35794 12.8677 9.23193 12.44 9.23H4.60999" stroke="#f9822f" stroke-width="1.2" stroke-linecap="round" stroke-linejoin="round"/>
</g>
</g>
</g>
</g>
<defs>
<clipPath id="clip0_4_243">
<rect width="18" height="14.25" rx="5" fill="white"/>
</clipPath>
</defs>
</svg>
