<svg width="13" height="19" viewBox="0 0 13 19" fill="#f9822f" xmlns="http://www.w3.org/2000/svg">
<g id="Layer 20">
<g id="Layer 2">
<g id="Layer 20_2">
<g id="Group">
<path id="Vector" d="M8.62998 6.76C8.31244 6.76123 8.00023 6.67844 7.72502 6.52003C7.44982 6.36161 7.22142 6.13322 7.063 5.85802C6.90458 5.58282 6.82179 5.27061 6.82301 4.95307C6.82424 4.63553 6.90944 4.32397 7.06998 4.05V4.05L8.40998 1.73C8.4314 1.69031 8.46316 1.65716 8.50189 1.63405C8.54062 1.61094 8.58488 1.59874 8.62998 1.59874C8.67508 1.59874 8.71934 1.61094 8.75807 1.63405C8.7968 1.65716 8.82856 1.69031 8.84998 1.73L10.19 4.05C10.3505 4.32397 10.4357 4.63553 10.4369 4.95307C10.4382 5.27061 10.3554 5.58282 10.197 5.85802C10.0385 6.13322 9.81013 6.36161 9.53493 6.52003C9.25973 6.67844 8.94751 6.76123 8.62998 6.76V6.76Z"  stroke-width="1.21" stroke-linecap="round" stroke-linejoin="round"/>
<path id="Vector_2" d="M9.41998 18.39C8.9251 18.3851 8.44014 18.2506 8.01351 17.9997C7.58688 17.7489 7.23349 17.3905 6.9886 16.9605C6.74371 16.5304 6.61588 16.0436 6.61788 15.5487C6.61988 15.0538 6.75163 14.5681 6.99998 14.14V14.14L9.06998 10.5C9.10457 10.4375 9.15528 10.3854 9.21683 10.3491C9.27838 10.3128 9.34853 10.2936 9.41998 10.2936C9.49143 10.2936 9.56158 10.3128 9.62313 10.3491C9.68468 10.3854 9.73539 10.4375 9.76998 10.5L11.87 14.14C12.1196 14.5703 12.2513 15.0587 12.252 15.5562C12.2527 16.0536 12.1222 16.5424 11.8738 16.9734C11.6254 17.4043 11.2677 17.7622 10.8369 18.0109C10.4062 18.2596 9.91741 18.3904 9.41998 18.39V18.39Z"  stroke-width="1.21" stroke-linecap="round" stroke-linejoin="round"/>
<path id="Vector_3" d="M2.86997 13.37C2.47594 13.3685 2.08915 13.264 1.74797 13.0669C1.40679 12.8698 1.12308 12.5869 0.924981 12.2462C0.72688 11.9056 0.621275 11.5191 0.618642 11.1251C0.616009 10.7311 0.71644 10.3432 0.909972 10V10L2.58997 7.07C2.61764 7.01998 2.65821 6.97829 2.70745 6.94926C2.75669 6.92023 2.81281 6.90492 2.86997 6.90492C2.92713 6.90492 2.98325 6.92023 3.03249 6.94926C3.08173 6.97829 3.1223 7.01998 3.14997 7.07L4.82997 10C5.03024 10.3467 5.13481 10.7404 5.13297 11.1408C5.13112 11.5412 5.02294 11.9339 4.81948 12.2788C4.61603 12.6236 4.32461 12.9083 3.97504 13.1035C3.62547 13.2987 3.2303 13.3976 2.82997 13.39L2.86997 13.37Z"  stroke-width="1.21" stroke-linecap="round" stroke-linejoin="round"/>
</g>
</g>
</g>
</g>
</svg>
