<svg width="12" height="20" viewBox="0 0 12 20" fill="none" xmlns="http://www.w3.org/2000/svg">
<g id="Layer 22">
<g id="Layer 2">
<g id="Layer 22_2">
<g id="Group">
<path id="Vector" d="M4.62997 11.1H1.18997C1.08146 11.1046 0.973995 11.0771 0.881137 11.0207C0.788279 10.9644 0.714184 10.8818 0.668193 10.7834C0.622203 10.685 0.606376 10.5752 0.62271 10.4678C0.639043 10.3604 0.686805 10.2603 0.759974 10.18L8.55997 1.8C8.63291 1.66739 8.75553 1.56919 8.90087 1.52699C9.04621 1.4848 9.20237 1.50207 9.33497 1.575C9.46758 1.64794 9.56579 1.77056 9.60798 1.9159C9.65018 2.06124 9.63291 2.21739 9.55997 2.35L7.22997 8.65" stroke="#f9822f" stroke-width="1.22" stroke-linecap="round" stroke-linejoin="round"/>
<path id="Vector_2" d="M7.36 8.9H10.8C10.9085 8.89812 11.0153 8.92783 11.1073 8.98551C11.1992 9.04319 11.2724 9.12636 11.318 9.2249C11.3636 9.32344 11.3795 9.43309 11.3639 9.54052C11.3483 9.64795 11.3017 9.74853 11.23 9.83L3.43 18.24C3.39323 18.3057 3.34388 18.3634 3.28478 18.41C3.22569 18.4566 3.15799 18.4911 3.08556 18.5115C3.01313 18.532 2.93739 18.5379 2.86265 18.5291C2.78792 18.5202 2.71566 18.4968 2.65 18.46C2.58433 18.4232 2.52656 18.3739 2.47997 18.3148C2.43338 18.2557 2.39888 18.188 2.37845 18.1156C2.35802 18.0431 2.35206 17.9674 2.3609 17.8927C2.36975 17.8179 2.39323 17.7457 2.43 17.68L4.71 11.38" stroke="#f9822f" stroke-width="1.22" stroke-linecap="round" stroke-linejoin="round"/>
</g>
</g>
</g>
</g>
</svg>
