<?xml version="1.0" encoding="UTF-8" class='avatar' standalone="no"?>
<svg xmlns="http://www.w3.org/2000/svg" version="1.2" baseProfile="tiny" viewBox="0.00 0.00 640.00 640.00" width="640.00" height="640.00">
<g stroke-width="5.00" fill="none" stroke-linecap="butt">
<path stroke="#7a7a7a" vector-effect="non-scaling-stroke" d="
  M 438.66 204.46
  A 118.32 118.32 0.0 0 0 320.34 86.14
  A 118.32 118.32 0.0 0 0 202.02 204.46
  A 118.32 118.32 0.0 0 0 320.34 322.78
  A 118.32 118.32 0.0 0 0 438.66 204.46"
/>
<path stroke="#7a7a7a" vector-effect="non-scaling-stroke" d="
  M 106.50 551.50
  L 533.90 551.50
  A 0.28 0.28 0.0 0 0 534.18 551.22
  L 534.18 549.32
  A 212.82 212.82 0.0 0 0 321.36 336.50
  L 319.04 336.50
  A 212.82 212.82 0.0 0 0 106.22 549.32
  L 106.22 551.22
  A 0.28 0.28 0.0 0 0 106.50 551.50"
/>
</g>
<path fill="#f4f4f4" d="
  M 0.00 0.00
  L 640.00 0.00
  L 640.00 640.00
  L 0.00 640.00
  L 0.00 0.00
  Z
  M 438.66 204.46
  A 118.32 118.32 0.0 0 0 320.34 86.14
  A 118.32 118.32 0.0 0 0 202.02 204.46
  A 118.32 118.32 0.0 0 0 320.34 322.78
  A 118.32 118.32 0.0 0 0 438.66 204.46
  Z
  M 106.50 551.50
  L 533.90 551.50
  A 0.28 0.28 0.0 0 0 534.18 551.22
  L 534.18 549.32
  A 212.82 212.82 0.0 0 0 321.36 336.50
  L 319.04 336.50
  A 212.82 212.82 0.0 0 0 106.22 549.32
  L 106.22 551.22
  A 0.28 0.28 0.0 0 0 106.50 551.50
  Z"
/>
<g fill="#000000">
<path d="
  M 438.66 204.46
  A 118.32 118.32 0.0 0 1 320.34 322.78
  A 118.32 118.32 0.0 0 1 202.02 204.46
  A 118.32 118.32 0.0 0 1 320.34 86.14
  A 118.32 118.32 0.0 0 1 438.66 204.46
  Z"
/>
<path d="
  M 106.50 551.50
  A 0.28 0.28 0.0 0 1 106.22 551.22
  L 106.22 549.32
  A 212.82 212.82 0.0 0 1 319.04 336.50
  L 321.36 336.50
  A 212.82 212.82 0.0 0 1 534.18 549.32
  L 534.18 551.22
  A 0.28 0.28 0.0 0 1 533.90 551.50
  L 106.50 551.50
  Z"
/>
</g>
</svg>
