<svg width="18" height="16" viewBox="0 0 18 16" fill="none" xmlns="http://www.w3.org/2000/svg">
<g id="Layer 11">
<g id="Layer 2">
<g id="Layer 11_2">
<path id="Vector" d="M7.31 10.95C7.68556 10.95 7.99 10.6456 7.99 10.27C7.99 9.89444 7.68556 9.59 7.31 9.59C6.93445 9.59 6.63 9.89444 6.63 10.27C6.63 10.6456 6.93445 10.95 7.31 10.95Z" stroke="#f9822f" stroke-width="0.6" stroke-linecap="round" stroke-linejoin="round"/>
<path id="Vector_2" d="M9.85999 13.27C10.2355 13.27 10.54 12.9656 10.54 12.59C10.54 12.2145 10.2355 11.91 9.85999 11.91C9.48444 11.91 9.17999 12.2145 9.17999 12.59C9.17999 12.9656 9.48444 13.27 9.85999 13.27Z" stroke="#f9822f" stroke-width="0.6" stroke-linecap="round" stroke-linejoin="round"/>
<path id="Vector_3" d="M14.33 10.67C14.5509 10.67 14.73 10.4909 14.73 10.27C14.73 10.0491 14.5509 9.87 14.33 9.87C14.1091 9.87 13.93 10.0491 13.93 10.27C13.93 10.4909 14.1091 10.67 14.33 10.67Z" fill="#f9822f"/>
<path id="Vector_4" d="M12.07 13.19C12.2909 13.19 12.47 13.0109 12.47 12.79C12.47 12.5691 12.2909 12.39 12.07 12.39C11.8491 12.39 11.67 12.5691 11.67 12.79C11.67 13.0109 11.8491 13.19 12.07 13.19Z" fill="#f9822f"/>
<path id="Vector_5" d="M9.79996 15.18C10.0209 15.18 10.2 15.0009 10.2 14.78C10.2 14.5591 10.0209 14.38 9.79996 14.38C9.57905 14.38 9.39996 14.5591 9.39996 14.78C9.39996 15.0009 9.57905 15.18 9.79996 15.18Z" fill="#f9822f"/>
<path id="Vector_6" d="M7.24998 13.19C7.47089 13.19 7.64998 13.0109 7.64998 12.79C7.64998 12.5691 7.47089 12.39 7.24998 12.39C7.02906 12.39 6.84998 12.5691 6.84998 12.79C6.84998 13.0109 7.02906 13.19 7.24998 13.19Z" fill="#f9822f"/>
<path id="Vector_7" d="M9.52 10.67C9.74091 10.67 9.92 10.4909 9.92 10.27C9.92 10.0491 9.74091 9.87 9.52 9.87C9.29908 9.87 9.12 10.0491 9.12 10.27C9.12 10.4909 9.29908 10.67 9.52 10.67Z" fill="#f9822f"/>
<path id="Vector_8" d="M4.98997 10.67C5.21088 10.67 5.38997 10.4909 5.38997 10.27C5.38997 10.0491 5.21088 9.87 4.98997 9.87C4.76905 9.87 4.58997 10.0491 4.58997 10.27C4.58997 10.4909 4.76905 10.67 4.98997 10.67Z" fill="#f9822f"/>
<path id="Vector_9" d="M12.01 10.95C12.3855 10.95 12.69 10.6456 12.69 10.27C12.69 9.89444 12.3855 9.59 12.01 9.59C11.6344 9.59 11.33 9.89444 11.33 10.27C11.33 10.6456 11.6344 10.95 12.01 10.95Z" stroke="#f9822f" stroke-width="0.6" stroke-linecap="round" stroke-linejoin="round"/>
<path id="Vector_10" d="M13.86 12.32C14.5092 12.1541 15.0886 11.7855 15.514 11.2678C15.9394 10.75 16.1887 10.1101 16.2255 9.44103C16.2623 8.77194 16.0847 8.10856 15.7187 7.54728C15.3526 6.986 14.8171 6.55608 14.19 6.32C13.6752 6.14606 13.1249 6.10479 12.59 6.2" stroke="#f9822f" stroke-width="1.17" stroke-linecap="round" stroke-linejoin="round"/>
<path id="Vector_11" d="M4.99999 12.27C4.11413 12.4367 3.19795 12.2992 2.39999 11.88C1.83905 11.5785 1.37284 11.1271 1.05326 10.5763C0.733694 10.0254 0.573313 9.39663 0.589986 8.76C0.58867 8.28246 0.681592 7.80935 0.863427 7.36779C1.04526 6.92622 1.31244 6.52487 1.64965 6.18673C1.98685 5.8486 2.38747 5.58032 2.82853 5.39727C3.2696 5.21422 3.74244 5.12 4.21999 5.12H4.73999C4.95204 4.35719 5.38569 3.67447 5.98603 3.1583C6.58637 2.64213 7.32638 2.31572 8.11236 2.22042C8.89833 2.12512 9.69491 2.2652 10.4012 2.62294C11.1075 2.98068 11.6918 3.53998 12.08 4.23" stroke="#f9822f" stroke-width="1.17" stroke-linecap="round" stroke-linejoin="round"/>
<path id="Vector_12" d="M15.34 6.82C15.8072 6.68234 16.2366 6.43953 16.5954 6.11018C16.9542 5.78084 17.2329 5.37371 17.41 4.92C16.9136 4.88531 16.4324 4.73426 16.0053 4.47909C15.5781 4.22392 15.217 3.87178 14.9512 3.45117C14.6854 3.03056 14.5224 2.55329 14.4753 2.05797C14.4281 1.56265 14.4983 1.06319 14.68 0.6H14.46C13.7254 0.5993 13.0133 0.852915 12.4445 1.31776C11.8758 1.7826 11.4855 2.43001 11.34 3.15" stroke="#f9822f" stroke-width="1.17" stroke-linecap="round" stroke-linejoin="round"/>
</g>
</g>
</g>
</svg>
