<svg width="17" height="18" viewBox="0 0 17 18" fill="none" xmlns="http://www.w3.org/2000/svg">
<g id="Layer 17">
<g id="Layer 2">
<g id="Layer 17_2">
<g id="Group">
<g id="Group_2">
<path id="Vector" d="M8.43005 1.7V8.82" stroke="#f9822f" stroke-width="1.18" stroke-linecap="round" stroke-linejoin="round"/>
<path id="Vector_2" d="M10.45 2.59L8.43002 4.62L6.40002 2.59" stroke="#f9822f" stroke-width="1.18" stroke-linecap="round" stroke-linejoin="round"/>
<path id="Vector_3" d="M9.55005 0.589996L8.43005 1.72L7.30005 0.589996" stroke="#f9822f" stroke-width="1.18" stroke-linecap="round" stroke-linejoin="round"/>
</g>
<g id="Group_3">
<path id="Vector_4" d="M2.12006 5.37L8.28006 8.93" stroke="#f9822f" stroke-width="1.18" stroke-linecap="round" stroke-linejoin="round"/>
<path id="Vector_5" d="M3.9 4.06L4.64 6.83L1.88 7.57" stroke="#f9822f" stroke-width="1.18" stroke-linecap="round" stroke-linejoin="round"/>
<path id="Vector_6" d="M1.72003 3.84L2.13003 5.38L0.590027 5.79" stroke="#f9822f" stroke-width="1.18" stroke-linecap="round" stroke-linejoin="round"/>
</g>
<g id="Group_4">
<path id="Vector_7" d="M2.14008 12.67L8.31008 9.11" stroke="#f9822f" stroke-width="1.18" stroke-linecap="round" stroke-linejoin="round"/>
<path id="Vector_8" d="M1.90002 10.47L4.67002 11.21L3.92002 13.98" stroke="#f9822f" stroke-width="1.18" stroke-linecap="round" stroke-linejoin="round"/>
<path id="Vector_9" d="M0.610046 12.25L2.16005 12.66L1.75005 14.2" stroke="#f9822f" stroke-width="1.18" stroke-linecap="round" stroke-linejoin="round"/>
</g>
<g id="Group_5">
<path id="Vector_10" d="M8.48004 16.3V9.17999" stroke="#f9822f" stroke-width="1.18" stroke-linecap="round" stroke-linejoin="round"/>
<path id="Vector_11" d="M6.45001 15.41L8.47001 13.38L10.5 15.41" stroke="#f9822f" stroke-width="1.18" stroke-linecap="round" stroke-linejoin="round"/>
<path id="Vector_12" d="M7.35004 17.41L8.47004 16.28L9.61004 17.41" stroke="#f9822f" stroke-width="1.18" stroke-linecap="round" stroke-linejoin="round"/>
</g>
<g id="Group_6">
<path id="Vector_13" d="M14.7801 12.63L8.62006 9.06999" stroke="#f9822f" stroke-width="1.18" stroke-linecap="round" stroke-linejoin="round"/>
<path id="Vector_14" d="M13.0001 13.94L12.2601 11.17L15.0301 10.43" stroke="#f9822f" stroke-width="1.18" stroke-linecap="round" stroke-linejoin="round"/>
<path id="Vector_15" d="M15.1801 14.16L14.7701 12.62L16.3101 12.21" stroke="#f9822f" stroke-width="1.18" stroke-linecap="round" stroke-linejoin="round"/>
</g>
<g id="Group_7">
<path id="Vector_16" d="M14.76 5.33L8.59003 8.89" stroke="#f9822f" stroke-width="1.18" stroke-linecap="round" stroke-linejoin="round"/>
<path id="Vector_17" d="M15 7.53L12.23 6.79L12.98 4.02" stroke="#f9822f" stroke-width="1.18" stroke-linecap="round" stroke-linejoin="round"/>
<path id="Vector_18" d="M16.2901 5.75L14.7401 5.34L15.1601 3.8" stroke="#f9822f" stroke-width="1.18" stroke-linecap="round" stroke-linejoin="round"/>
</g>
</g>
</g>
</g>
</g>
</svg>
