<svg width="18" height="15" viewBox="0 0 18 15" fill="none" xmlns="http://www.w3.org/2000/svg">
<g id="Layer 5">
<g clip-path="url(#clip0_4_64)">
<g id="Layer 2">
<g id="Layer 5_2">
<path id="Vector" d="M10.32 4.47C10.7049 4.19467 11.1668 4.0477 11.64 4.05C11.9411 4.04868 12.2395 4.10701 12.5179 4.22162C12.7963 4.33624 13.0493 4.50486 13.2622 4.71778C13.4751 4.93069 13.6438 5.18366 13.7584 5.46209C13.873 5.74053 13.9313 6.0389 13.93 6.34C13.9323 6.7131 13.8422 7.08096 13.6677 7.41075C13.4932 7.74054 13.2398 8.02199 12.93 8.23" stroke="#f9822f" stroke-width="1.2" stroke-linecap="round" stroke-linejoin="round"/>
<path id="Vector_2" d="M11.64 1.95V0.6" stroke="#f9822f" stroke-width="1.2" stroke-linecap="round" stroke-linejoin="round"/>
<path id="Vector_3" d="M14.75 9.44L15.7 10.4" stroke="#f9822f" stroke-width="1.2" stroke-linecap="round" stroke-linejoin="round"/>
<path id="Vector_4" d="M16.03 6.34H17.38" stroke="#f9822f" stroke-width="1.2" stroke-linecap="round" stroke-linejoin="round"/>
<path id="Vector_5" d="M14.75 3.24L15.7 2.28" stroke="#f9822f" stroke-width="1.2" stroke-linecap="round" stroke-linejoin="round"/>
<path id="Vector_6" d="M4.00002 12C3.37166 12.0323 2.74627 11.8941 2.19002 11.6C1.70344 11.341 1.29763 10.9529 1.01714 10.4784C0.736656 10.0038 0.592335 9.46118 0.600023 8.91C0.600023 8.06926 0.934004 7.26296 1.52849 6.66847C2.12299 6.07398 2.92929 5.74 3.77002 5.74H4.22002C4.39913 5.15694 4.72625 4.63023 5.16951 4.21123C5.61277 3.79223 6.15703 3.49524 6.74924 3.3492C7.34145 3.20316 7.96139 3.21307 8.54864 3.37795C9.13588 3.54283 9.67038 3.85706 10.1 4.29C10.3035 4.49072 10.4815 4.71575 10.63 4.96" stroke="#f9822f" stroke-width="1.2" stroke-linecap="round" stroke-linejoin="round"/>
<path id="Vector_7" d="M7.11003 10.77C7.43035 10.77 7.69003 10.5103 7.69003 10.19C7.69003 9.86967 7.43035 9.61 7.11003 9.61C6.7897 9.61 6.53003 9.86967 6.53003 10.19C6.53003 10.5103 6.7897 10.77 7.11003 10.77Z" stroke="#f9822f" stroke-width="0.6" stroke-linecap="round" stroke-linejoin="round"/>
<path id="Vector_8" d="M9.28001 12.74C9.60034 12.74 9.86001 12.4803 9.86001 12.16C9.86001 11.8397 9.60034 11.58 9.28001 11.58C8.95969 11.58 8.70001 11.8397 8.70001 12.16C8.70001 12.4803 8.95969 12.74 9.28001 12.74Z" stroke="#f9822f" stroke-width="0.6" stroke-linecap="round" stroke-linejoin="round"/>
<path id="Vector_9" d="M13.09 10.59C13.3109 10.59 13.49 10.4109 13.49 10.19C13.49 9.96909 13.3109 9.79 13.09 9.79C12.8691 9.79 12.69 9.96909 12.69 10.19C12.69 10.4109 12.8691 10.59 13.09 10.59Z" fill="#f9822f"/>
<path id="Vector_10" d="M11.16 12.74C11.3809 12.74 11.56 12.5609 11.56 12.34C11.56 12.1191 11.3809 11.94 11.16 11.94C10.9391 11.94 10.76 12.1191 10.76 12.34C10.76 12.5609 10.9391 12.74 11.16 12.74Z" fill="#f9822f"/>
<path id="Vector_11" d="M9.23002 14.42C9.45093 14.42 9.63002 14.2409 9.63002 14.02C9.63002 13.7991 9.45093 13.62 9.23002 13.62C9.0091 13.62 8.83002 13.7991 8.83002 14.02C8.83002 14.2409 9.0091 14.42 9.23002 14.42Z" fill="#f9822f"/>
<path id="Vector_12" d="M7.06003 12.74C7.28095 12.74 7.46003 12.5609 7.46003 12.34C7.46003 12.1191 7.28095 11.94 7.06003 11.94C6.83912 11.94 6.66003 12.1191 6.66003 12.34C6.66003 12.5609 6.83912 12.74 7.06003 12.74Z" fill="#f9822f"/>
<path id="Vector_13" d="M8.99003 10.59C9.21094 10.59 9.39003 10.4109 9.39003 10.19C9.39003 9.96909 9.21094 9.79 8.99003 9.79C8.76911 9.79 8.59003 9.96909 8.59003 10.19C8.59003 10.4109 8.76911 10.59 8.99003 10.59Z" fill="#f9822f"/>
<path id="Vector_14" d="M5.13004 10.59C5.35096 10.59 5.53004 10.4109 5.53004 10.19C5.53004 9.96909 5.35096 9.79 5.13004 9.79C4.90913 9.79 4.73004 9.96909 4.73004 10.19C4.73004 10.4109 4.90913 10.59 5.13004 10.59Z" fill="#f9822f"/>
<path id="Vector_15" d="M11.11 10.77C11.4304 10.77 11.69 10.5103 11.69 10.19C11.69 9.86967 11.4304 9.61 11.11 9.61C10.7897 9.61 10.53 9.86967 10.53 10.19C10.53 10.5103 10.7897 10.77 11.11 10.77Z" stroke="#f9822f" stroke-width="0.6" stroke-linecap="round" stroke-linejoin="round"/>
</g>
</g>
</g>
</g>
<defs>
<clipPath id="clip0_4_64">
<rect width="17.98" height="14.92" rx="5" fill="white"/>
</clipPath>
</defs>
</svg>
