<svg version="1.1" id="Layer_1" xmlns="http://www.w3.org/2000/svg" xmlns:xlink="http://www.w3.org/1999/xlink" x="0px" y="0px"
	 width="100%" viewBox="0 0 626 459" enable-background="new 0 0 626 459" xml:space="preserve">
<path fill="#F4FCFF" opacity="1.000000" stroke="none" 
	d="
M627.000000,355.000000 
	C627.000000,389.981232 627.000000,424.962494 627.000000,459.944855 
	C418.333313,459.945984 209.666656,459.945984 1.000000,459.945984 
	C1.000000,431.573761 1.000000,403.255524 1.348492,374.498291 
	C4.534101,377.145569 7.371218,380.231812 10.403339,383.530212 
	C11.215657,382.411957 12.163714,381.110931 13.107604,379.806885 
	C23.574492,365.345947 42.408199,359.823761 57.827728,369.435638 
	C61.040859,371.438629 63.165993,369.862122 64.649216,368.151123 
	C70.619766,361.263580 77.907822,358.014923 86.963394,356.605896 
	C100.098656,354.562134 111.227165,358.034912 120.188110,367.034149 
	C125.621330,372.490601 129.290283,379.703827 133.888931,386.325195 
	C150.063507,380.827698 161.855972,389.903656 165.762314,409.033600 
	C181.682724,407.341980 194.971069,413.220093 206.194092,424.764008 
	C213.778961,419.008026 222.270493,415.818359 231.954941,415.867706 
	C233.394974,415.875061 235.404297,414.611450 236.198883,413.340912 
	C242.473801,403.307007 250.540604,395.417389 262.100220,392.019562 
	C273.396423,388.699158 284.887482,387.956390 295.214783,394.717896 
	C301.436768,398.791565 306.801880,404.174042 313.023041,409.361084 
	C317.304962,405.665314 323.542786,405.052063 329.594849,406.316803 
	C333.891296,407.214630 336.221588,405.513641 339.376678,403.371582 
	C343.802216,400.366974 348.769379,396.944641 353.816895,396.349976 
	C361.855621,395.402924 370.511353,394.312653 377.917419,399.761688 
	C378.205139,399.973389 378.849487,399.700378 379.481018,399.638092 
	C380.509491,397.399841 381.462494,395.118347 382.584747,392.923370 
	C385.649200,386.929718 390.199982,382.049469 396.659729,380.390381 
	C411.992584,376.452423 427.002441,378.883423 436.977875,393.081604 
	C438.818695,395.701691 440.352234,396.152008 443.062622,394.425781 
	C453.538239,387.753876 464.873077,387.767487 476.573517,390.195374 
	C477.875092,390.465485 480.412354,389.342926 480.895599,388.225677 
	C483.345154,382.562561 487.720123,378.750916 492.874573,376.188019 
	C500.940918,372.177338 508.942139,372.950928 516.311951,379.106384 
	C519.022095,374.479248 521.181458,369.839935 524.186340,365.835114 
	C534.508240,352.078522 552.852112,345.796265 569.925293,352.203400 
	C571.047424,352.624481 572.708557,352.162567 573.935852,351.662140 
	C583.692627,347.684265 596.103699,350.182892 603.142883,357.652740 
	C608.483643,363.320221 613.275513,363.576904 619.630188,358.914124 
	C621.849304,357.285797 624.530090,356.286560 627.000000,355.000000 
z"/>
<path fill="#D1E8F8" opacity="1.000000" stroke="none" 
	d="
M627.000000,354.531372 
	C624.530090,356.286560 621.849304,357.285797 619.630188,358.914124 
	C613.275513,363.576904 608.483643,363.320221 603.142883,357.652740 
	C596.103699,350.182892 583.692627,347.684265 573.935852,351.662140 
	C572.708557,352.162567 571.047424,352.624481 569.925293,352.203400 
	C552.852112,345.796265 534.508240,352.078522 524.186340,365.835114 
	C521.181458,369.839935 519.022095,374.479248 516.311951,379.106384 
	C508.942139,372.950928 500.940918,372.177338 492.874573,376.188019 
	C487.720123,378.750916 483.345154,382.562561 480.895599,388.225677 
	C480.412354,389.342926 477.875092,390.465485 476.573517,390.195374 
	C464.873077,387.767487 453.538239,387.753876 443.062622,394.425781 
	C440.352234,396.152008 438.818695,395.701691 436.977875,393.081604 
	C427.002441,378.883423 411.992584,376.452423 396.659729,380.390381 
	C390.199982,382.049469 385.649200,386.929718 382.584747,392.923370 
	C381.462494,395.118347 380.509491,397.399841 379.481018,399.638092 
	C378.849487,399.700378 378.205139,399.973389 377.917419,399.761688 
	C370.511353,394.312653 361.855621,395.402924 353.816895,396.349976 
	C348.769379,396.944641 343.802216,400.366974 339.376678,403.371582 
	C336.221588,405.513641 333.891296,407.214630 329.594849,406.316803 
	C323.542786,405.052063 317.304962,405.665314 313.023041,409.361084 
	C306.801880,404.174042 301.436768,398.791565 295.214783,394.717896 
	C284.887482,387.956390 273.396423,388.699158 262.100220,392.019562 
	C250.540604,395.417389 242.473801,403.307007 236.198883,413.340912 
	C235.404297,414.611450 233.394974,415.875061 231.954941,415.867706 
	C222.270493,415.818359 213.778961,419.008026 206.194092,424.764008 
	C194.971069,413.220093 181.682724,407.341980 165.762314,409.033600 
	C161.855972,389.903656 150.063507,380.827698 133.888931,386.325195 
	C129.290283,379.703827 125.621330,372.490601 120.188110,367.034149 
	C111.227165,358.034912 100.098656,354.562134 86.963394,356.605896 
	C77.907822,358.014923 70.619766,361.263580 64.649216,368.151123 
	C63.165993,369.862122 61.040859,371.438629 57.827728,369.435638 
	C42.408199,359.823761 23.574492,365.345947 13.107604,379.806885 
	C12.163714,381.110931 11.215657,382.411957 10.403339,383.530212 
	C7.371218,380.231812 4.534101,377.145569 1.348492,374.029663 
	C1.000000,334.645782 1.000000,295.291534 1.354380,255.507446 
	C5.465182,257.977081 8.864394,258.396362 14.117723,257.423157 
	C31.883911,254.131927 42.108494,265.935486 43.826149,282.473297 
	C44.234764,286.407501 45.550507,288.132050 49.046837,288.869507 
	C50.332054,289.140564 51.611507,289.496765 52.844650,289.947937 
	C64.299759,294.138824 72.314133,302.243164 78.235291,312.604218 
	C80.126892,315.914246 82.012444,317.889893 86.456306,318.347290 
	C90.459976,318.759399 94.173607,321.989288 98.018005,324.350342 
	C99.021690,325.478088 100.022522,326.231842 101.263916,327.154419 
	C101.674477,327.873474 101.844467,328.423706 102.046478,329.337097 
	C103.499634,335.625916 107.359589,337.475403 113.219498,337.136932 
	C116.196335,336.964996 119.618210,337.554626 122.205162,338.963531 
	C128.346924,342.308502 129.530426,342.433044 134.300934,337.427734 
	C140.561676,330.858826 147.777924,330.356567 155.370499,335.722839 
	C156.598251,336.590546 158.433441,336.598755 160.254822,337.189453 
	C161.586502,337.534088 162.830826,338.130554 163.685593,337.779236 
	C167.962509,336.021301 171.962891,333.091614 176.378540,332.257507 
	C194.414795,328.850586 210.130341,332.975403 222.086426,347.908447 
	C223.002869,349.053070 225.105270,349.789429 226.654770,349.786682 
	C231.759262,349.777649 236.863007,349.341370 242.043777,349.409607 
	C245.823944,352.614502 246.951645,349.864075 248.280975,347.025146 
	C248.519409,347.016907 248.995773,346.989685 249.335205,346.956665 
	C250.457809,345.954834 251.240982,344.986053 252.347046,343.868530 
	C257.363647,342.162750 261.988892,339.649719 266.769623,339.307312 
	C271.946625,338.936523 273.668884,336.585449 275.562836,332.339355 
	C278.868744,324.927765 283.789307,318.985687 293.332855,319.903564 
	C294.726318,320.037628 296.809204,319.318909 297.585541,318.266357 
	C299.305634,315.934143 300.179626,312.994812 301.786713,310.559113 
	C307.001221,302.656067 314.049561,296.583893 323.456177,295.240814 
	C331.668274,294.068237 339.481506,294.519287 347.544830,289.890533 
	C356.112305,284.972321 367.959991,286.805542 375.814636,296.466431 
	C377.685730,298.767853 379.443787,298.813995 382.200806,298.605835 
	C387.409760,298.212524 392.990875,297.816803 397.849365,299.292267 
	C401.653046,300.447388 404.219116,300.379578 406.628143,297.767273 
	C414.435028,289.301636 436.293213,289.706268 444.301270,299.334473 
	C447.953857,303.726074 451.528259,308.182770 455.280670,312.784729 
	C461.157196,308.433838 467.902374,307.364075 475.043304,308.003357 
	C477.891449,308.258331 479.211090,307.301575 480.301483,304.237671 
	C482.320892,298.563385 484.790314,292.832916 488.208344,287.915466 
	C496.615387,275.820312 512.561646,272.589478 525.640869,283.147430 
	C529.311035,286.110107 532.540710,289.618530 535.748657,292.664185 
	C539.005432,290.997284 541.786133,289.004822 544.884888,288.090698 
	C555.805420,284.869293 565.033569,288.338226 573.119934,296.324707 
	C574.693176,298.485138 576.127136,300.337311 577.932495,302.669098 
	C580.012146,300.343842 581.506104,298.673462 583.296265,296.978271 
	C584.062744,296.636719 584.533081,296.319946 585.437744,296.004395 
	C588.662964,295.233490 592.806274,298.106873 593.992004,292.602081 
	C598.378601,277.047058 607.657654,262.113739 627.000000,264.000000 
	C627.000000,294.020905 627.000000,324.041779 627.000000,354.531372 
z"/>
<path fill="#ABDAF8" opacity="1.000000" stroke="none" 
	d="
M102.014465,328.973938 
	C101.844467,328.423706 101.674477,327.873474 101.127747,326.876282 
	C99.839073,325.611664 98.927124,324.794006 98.015167,323.976379 
	C94.173607,321.989288 90.459976,318.759399 86.456306,318.347290 
	C82.012444,317.889893 80.126892,315.914246 78.235291,312.604218 
	C72.314133,302.243164 64.299759,294.138824 52.844650,289.947937 
	C51.611507,289.496765 50.332054,289.140564 49.046837,288.869507 
	C45.550507,288.132050 44.234764,286.407501 43.826149,282.473297 
	C42.108494,265.935486 31.883911,254.131927 14.117723,257.423157 
	C8.864394,258.396362 5.465182,257.977081 1.354380,255.038788 
	C1.000000,234.312439 1.000000,213.624878 1.351665,192.509537 
	C5.183181,195.464859 8.608336,198.907104 12.170252,202.201477 
	C13.561975,203.488678 15.829629,205.742691 16.731722,205.347870 
	C25.287149,201.603363 31.956514,204.910248 37.952923,210.573959 
	C40.055897,212.560242 41.822117,212.563675 44.542152,212.231827 
	C49.354313,211.644745 54.523247,211.217133 59.141411,212.353821 
	C70.351669,215.113052 78.126389,222.487045 83.585037,232.634720 
	C84.762413,234.823471 87.619446,236.128723 89.750160,237.779770 
	C92.698280,240.064178 97.289085,241.733231 98.311943,244.665131 
	C100.100922,249.793060 102.796326,252.743500 107.432991,255.289520 
	C110.472443,256.958496 112.401207,256.966705 115.071732,255.378143 
	C117.289940,254.058640 119.812614,252.038528 122.056099,252.210571 
	C127.840057,252.654114 131.916153,250.532150 135.363083,246.221893 
	C136.257721,245.103195 137.644577,244.310745 138.925613,243.578979 
	C150.397079,237.026199 165.671692,238.750351 174.665573,252.251648 
	C175.655289,253.737350 177.391602,255.488083 178.963379,255.688171 
	C184.929199,256.447601 190.969757,256.620026 197.138092,257.308899 
	C198.851395,258.413239 200.408981,259.220612 201.982666,260.013977 
	C201.998779,260.000000 201.972214,260.032440 202.017273,260.388092 
	C203.121628,262.180573 203.897095,264.190002 205.319183,264.894897 
	C206.771423,265.614716 209.913422,265.771362 210.485779,264.929871 
	C213.022247,261.200806 214.900726,257.024200 217.372314,252.967224 
	C222.680740,250.612671 226.815643,247.513870 230.578400,243.314072 
	C233.589417,239.953354 238.454651,238.187088 242.622467,235.946686 
	C247.730194,233.201065 254.195526,234.490753 258.829376,229.667221 
	C266.501617,221.680878 286.771454,225.923798 291.094360,237.324356 
	C291.558136,238.547394 293.767273,239.910080 295.122131,239.865082 
	C304.651489,239.548477 309.431885,245.390640 313.006042,253.406708 
	C313.471680,256.126678 313.940735,258.443604 314.498322,261.197632 
	C317.765839,258.822754 320.387482,256.917297 323.403259,254.959503 
	C326.207825,254.325272 328.598877,253.377319 331.033203,253.248901 
	C334.519012,253.064987 336.096710,252.003510 337.736908,248.395950 
	C340.852448,241.543335 346.925323,236.954834 354.636780,236.159515 
	C359.759460,235.631210 363.438354,233.475616 367.330109,230.383331 
	C372.926361,225.936752 378.880005,221.644958 385.309387,218.624588 
	C391.803345,215.573914 399.239319,215.868225 405.276917,220.105804 
	C409.654694,223.178421 413.538483,222.957870 418.351685,222.213608 
	C423.452148,221.424881 428.913696,221.347305 433.972229,222.284027 
	C441.997925,223.770172 446.939484,229.711578 450.225403,236.182129 
	C460.031799,236.604034 469.774200,233.364471 477.844757,240.863815 
	C478.744781,241.700119 496.454529,235.164246 497.139832,233.889847 
	C505.143890,219.005615 516.750427,210.093658 534.491943,210.843323 
	C536.010681,210.907501 538.438599,209.188568 539.056763,207.715698 
	C544.107117,195.682693 553.431458,189.870850 566.552124,191.016388 
	C577.081238,191.935669 586.149292,199.912659 588.114380,209.437881 
	C588.584961,211.719009 590.392639,215.297470 591.868713,215.445068 
	C594.349243,215.693085 597.139526,213.830811 599.644897,212.553223 
	C601.948669,211.378403 603.876709,209.180679 606.270081,208.520508 
	C614.000793,206.388092 619.393677,209.794067 622.612305,216.761444 
	C624.304504,216.082123 625.652222,215.541061 627.000000,215.000000 
	C627.000000,231.020889 627.000000,247.041794 627.000000,263.531342 
	C607.657654,262.113739 598.378601,277.047058 593.578308,292.603729 
	C590.441101,294.000031 587.722229,295.001617 585.003418,296.003204 
	C584.533081,296.319946 584.062744,296.636719 582.912659,296.983215 
	C579.148804,296.680817 576.064758,296.348633 572.980713,296.016479 
	C565.033569,288.338226 555.805420,284.869293 544.884888,288.090698 
	C541.786133,289.004822 539.005432,290.997284 535.748657,292.664185 
	C532.540710,289.618530 529.311035,286.110107 525.640869,283.147430 
	C512.561646,272.589478 496.615387,275.820312 488.208344,287.915466 
	C484.790314,292.832916 482.320892,298.563385 480.301483,304.237671 
	C479.211090,307.301575 477.891449,308.258331 475.043304,308.003357 
	C467.902374,307.364075 461.157196,308.433838 455.280670,312.784729 
	C451.528259,308.182770 447.953857,303.726074 444.301270,299.334473 
	C436.293213,289.706268 414.435028,289.301636 406.628143,297.767273 
	C404.219116,300.379578 401.653046,300.447388 397.849365,299.292267 
	C392.990875,297.816803 387.409760,298.212524 382.200806,298.605835 
	C379.443787,298.813995 377.685730,298.767853 375.814636,296.466431 
	C367.959991,286.805542 356.112305,284.972321 347.544830,289.890533 
	C339.481506,294.519287 331.668274,294.068237 323.456177,295.240814 
	C314.049561,296.583893 307.001221,302.656067 301.786713,310.559113 
	C300.179626,312.994812 299.305634,315.934143 297.585541,318.266357 
	C296.809204,319.318909 294.726318,320.037628 293.332855,319.903564 
	C283.789307,318.985687 278.868744,324.927765 275.562836,332.339355 
	C273.668884,336.585449 271.946625,338.936523 266.769623,339.307312 
	C261.988892,339.649719 257.363647,342.162750 252.004730,343.896729 
	C250.558273,345.045715 249.777023,346.017700 248.995789,346.989685 
	C248.995773,346.989685 248.519409,347.016907 247.904144,347.018799 
	C245.514938,347.703522 243.740982,348.386353 241.967041,349.069183 
	C236.863007,349.341370 231.759262,349.777649 226.654770,349.786682 
	C225.105270,349.789429 223.002869,349.053070 222.086426,347.908447 
	C210.130341,332.975403 194.414795,328.850586 176.378540,332.257507 
	C171.962891,333.091614 167.962509,336.021301 163.685593,337.779236 
	C162.830826,338.130554 161.586502,337.534088 160.110535,336.887207 
	C152.120361,328.147430 142.490982,326.111969 135.874924,332.190521 
	C130.939529,336.725006 126.548965,340.157043 120.113449,335.243591 
	C119.880516,335.065735 119.469849,335.047882 119.149208,335.068329 
	C112.563049,335.488068 106.066544,335.674713 102.014465,328.973938 
z"/>
<path fill="#87CAF4" opacity="1.000000" stroke="none" 
	d="
M627.000000,214.531342 
	C625.652222,215.541061 624.304504,216.082123 622.612305,216.761444 
	C619.393677,209.794067 614.000793,206.388092 606.270081,208.520508 
	C603.876709,209.180679 601.948669,211.378403 599.644897,212.553223 
	C597.139526,213.830811 594.349243,215.693085 591.868713,215.445068 
	C590.392639,215.297470 588.584961,211.719009 588.114380,209.437881 
	C586.149292,199.912659 577.081238,191.935669 566.552124,191.016388 
	C553.431458,189.870850 544.107117,195.682693 539.056763,207.715698 
	C538.438599,209.188568 536.010681,210.907501 534.491943,210.843323 
	C516.750427,210.093658 505.143890,219.005615 497.139832,233.889847 
	C496.454529,235.164246 478.744781,241.700119 477.844757,240.863815 
	C469.774200,233.364471 460.031799,236.604034 450.225403,236.182129 
	C446.939484,229.711578 441.997925,223.770172 433.972229,222.284027 
	C428.913696,221.347305 423.452148,221.424881 418.351685,222.213608 
	C413.538483,222.957870 409.654694,223.178421 405.276917,220.105804 
	C399.239319,215.868225 391.803345,215.573914 385.309387,218.624588 
	C378.880005,221.644958 372.926361,225.936752 367.330109,230.383331 
	C363.438354,233.475616 359.759460,235.631210 354.636780,236.159515 
	C346.925323,236.954834 340.852448,241.543335 337.736908,248.395950 
	C336.096710,252.003510 334.519012,253.064987 331.033203,253.248901 
	C328.598877,253.377319 326.207825,254.325272 323.045166,254.800156 
	C319.198425,254.129974 316.103943,253.566818 313.009460,253.003662 
	C309.431885,245.390640 304.651489,239.548477 295.122131,239.865082 
	C293.767273,239.910080 291.558136,238.547394 291.094360,237.324356 
	C286.771454,225.923798 266.501617,221.680878 258.829376,229.667221 
	C254.195526,234.490753 247.730194,233.201065 242.622467,235.946686 
	C238.454651,238.187088 233.589417,239.953354 230.578400,243.314072 
	C226.815643,247.513870 222.680740,250.612671 217.018112,253.000793 
	C214.444580,254.353622 211.480438,255.268524 210.918777,256.974426 
	C209.112213,262.461456 205.916534,261.872253 201.972214,260.032440 
	C201.972214,260.032440 201.998779,260.000000 201.982483,259.619812 
	C200.304932,258.497070 198.643646,257.754486 196.982361,257.011932 
	C190.969757,256.620026 184.929199,256.447601 178.963379,255.688171 
	C177.391602,255.488083 175.655289,253.737350 174.665573,252.251648 
	C165.671692,238.750351 150.397079,237.026199 138.925613,243.578979 
	C137.644577,244.310745 136.257721,245.103195 135.363083,246.221893 
	C131.916153,250.532150 127.840057,252.654114 122.056099,252.210571 
	C119.812614,252.038528 117.289940,254.058640 115.071732,255.378143 
	C112.401207,256.966705 110.472443,256.958496 107.432991,255.289520 
	C102.796326,252.743500 100.100922,249.793060 98.311943,244.665131 
	C97.289085,241.733231 92.698280,240.064178 89.750160,237.779770 
	C87.619446,236.128723 84.762413,234.823471 83.585037,232.634720 
	C78.126389,222.487045 70.351669,215.113052 59.141411,212.353821 
	C54.523247,211.217133 49.354313,211.644745 44.542152,212.231827 
	C41.822117,212.563675 40.055897,212.560242 37.952923,210.573959 
	C31.956514,204.910248 25.287149,201.603363 16.731722,205.347870 
	C15.829629,205.742691 13.561975,203.488678 12.170252,202.201477 
	C8.608336,198.907104 5.183181,195.464859 1.351665,192.040878 
	C1.000000,177.312439 1.000000,162.624878 1.358876,147.502899 
	C4.575020,148.494583 6.803420,151.867569 10.680253,147.954636 
	C25.137365,133.362885 51.085987,137.373688 64.906494,151.789764 
	C70.754677,157.889984 73.963593,165.418030 75.449379,173.767822 
	C93.162750,165.268265 108.973915,176.433884 108.922096,193.235504 
	C108.910080,197.130844 111.382599,197.252197 113.950157,197.974731 
	C119.119278,199.429428 124.560585,200.407990 129.301025,202.766159 
	C134.778534,205.490982 139.621826,209.490707 144.503204,212.777130 
	C145.046799,210.517136 145.400513,207.891754 146.308182,205.474396 
	C150.071243,195.452454 158.168289,190.799469 167.926788,188.059616 
	C169.616425,187.585220 171.132172,185.821518 172.308624,184.323761 
	C175.055801,180.826263 176.839355,176.130127 180.272369,173.693604 
	C191.844238,165.480667 205.863770,163.880478 219.366135,172.528061 
	C220.758057,173.419525 222.881271,173.904877 224.485977,173.608490 
	C234.620392,171.736755 243.939713,173.022949 252.234634,179.613281 
	C253.032654,180.247314 254.592331,180.235428 255.732483,180.069672 
	C259.766785,179.483185 263.788147,178.063080 267.784760,178.161652 
	C272.176880,178.269989 274.750946,176.903275 277.023010,173.166016 
	C282.508087,164.143906 290.367462,157.383652 301.003632,156.469543 
	C307.919922,155.875137 312.770996,153.521896 318.048309,149.284592 
	C325.310944,143.453247 333.567078,138.700928 341.841827,134.326843 
	C353.214905,128.315002 365.740997,126.687164 375.778809,142.052002 
	C376.570740,143.264236 378.636810,144.598969 379.887939,144.409042 
	C392.787140,142.450928 407.130737,151.973175 405.953461,166.561737 
	C405.646851,170.361465 407.175995,171.925110 410.801941,172.480316 
	C417.562286,173.515472 422.894684,177.367798 426.858765,182.622177 
	C429.341492,185.912964 430.921844,185.971863 434.518921,184.234756 
	C440.086517,181.546021 446.259979,180.136063 452.096008,177.967117 
	C454.417816,177.104187 456.992859,176.113113 458.640289,174.399429 
	C463.269531,169.584061 468.023773,165.301086 474.728058,163.458527 
	C476.762451,162.899399 478.589172,160.946716 480.101105,159.263962 
	C482.821198,156.236542 484.884399,152.556412 487.840210,149.815659 
	C495.009674,143.167908 509.433472,143.014999 516.137695,150.081772 
	C519.217224,153.327820 522.027771,154.289124 526.010925,154.019043 
	C531.637878,153.637497 537.196533,154.425476 541.412598,158.366089 
	C545.590515,162.271118 549.134277,166.854538 553.002686,171.192490 
	C554.873901,170.307037 557.141541,169.579330 559.021912,168.287689 
	C570.492920,160.408188 582.463318,160.759766 592.764709,169.438141 
	C596.956055,172.969116 602.277954,173.119354 606.721741,169.831024 
	C612.794373,165.337341 619.228943,162.363968 627.000000,165.000000 
	C627.000000,181.354233 627.000000,197.708450 627.000000,214.531342 
z"/>
<path fill="#2D8BD3" opacity="1.000000" stroke="none" 
	d="
M2.000000,1.000000 
	C209.687561,1.000000 417.375122,1.000000 625.640564,1.218133 
	C626.420166,1.705716 626.680664,1.893628 627.000000,2.000000 
	C627.000000,18.687561 627.000000,35.375122 626.533508,52.534332 
	C616.050415,52.342319 606.415649,53.042679 599.214172,61.003204 
	C589.806885,54.542778 585.496277,54.169025 578.408447,60.900215 
	C577.579407,61.687557 575.997864,61.839790 574.730896,61.983200 
	C566.824280,62.878136 559.508789,64.962906 553.545593,70.744568 
	C552.168579,72.079681 549.704834,72.354630 547.694580,72.963516 
	C543.472351,74.242378 539.248779,75.541199 534.964172,76.577393 
	C533.260681,76.989365 530.994385,77.422806 529.665710,76.659851 
	C520.067322,71.148445 516.711609,71.473198 508.573334,78.743233 
	C507.467346,79.731239 504.849030,80.282707 503.616974,79.665924 
	C496.509186,76.107620 489.023132,76.567123 481.629669,77.456482 
	C478.598511,77.821106 477.284454,77.621742 475.956848,74.689552 
	C469.553955,60.548264 450.845520,54.637718 437.523804,62.391426 
	C435.634186,63.491261 433.969513,64.977661 432.153473,66.320084 
	C420.937988,47.785393 405.232605,42.892921 389.646790,52.888165 
	C388.823517,52.013718 387.860962,51.152470 387.088501,50.145401 
	C380.709351,41.828873 369.413177,41.966331 362.748474,50.078377 
	C361.366211,51.760803 358.350708,52.742115 356.017822,52.882633 
	C349.019287,53.304176 343.079071,55.206924 338.945831,61.368294 
	C337.829132,63.032921 335.997528,64.556274 334.152466,65.333641 
	C327.248688,68.242287 321.925446,72.694633 319.267273,79.793358 
	C318.399445,82.110855 317.520752,82.348694 315.014709,82.366295 
	C308.828125,82.409752 302.533020,82.924545 296.520355,84.296516 
	C293.971375,84.878136 292.299530,85.617592 289.850311,84.022041 
	C278.843048,76.851318 266.787354,76.468407 254.428070,79.323494 
	C250.661179,80.193672 251.474350,77.663300 250.945969,75.664200 
	C249.692490,70.921860 248.966125,65.793938 246.594055,61.639942 
	C239.627121,49.439354 220.423553,50.630592 213.947449,59.721382 
	C213.086624,60.929768 210.352951,61.449780 208.592178,61.267704 
	C196.040466,59.969761 184.293533,61.242599 175.284271,71.302094 
	C172.367355,74.559036 170.038818,78.342957 167.280487,82.104927 
	C160.995010,74.633018 153.836609,71.906586 144.831390,75.492401 
	C143.940842,75.847023 141.916519,75.291794 141.480179,74.541435 
	C138.152649,68.819374 133.002426,67.712852 126.956635,67.824707 
	C125.665924,67.848579 123.450348,65.953156 123.163383,64.618805 
	C120.676903,53.056911 108.919701,45.246792 96.379105,50.573383 
	C94.291039,51.460278 91.189667,51.200626 88.989639,50.350285 
	C82.628593,47.891655 71.663475,47.873932 66.615082,54.825294 
	C65.768356,55.991184 64.717499,57.422726 63.472439,57.814445 
	C57.796467,59.600204 52.017498,61.058613 45.570438,62.828243 
	C35.375172,54.295639 27.803413,54.196041 16.420303,62.892387 
	C14.834412,64.103958 12.528675,64.695663 10.486013,64.912048 
	C7.356026,65.243607 4.165076,64.999672 1.000000,65.000000 
	C1.000000,44.312439 1.000000,23.624876 1.217535,2.358241 
	C1.708986,1.581521 1.897296,1.321798 2.000000,1.000000 
z"/>
<path fill="#67BAF0" opacity="1.000000" stroke="none" 
	d="
M627.000000,164.531342 
	C619.228943,162.363968 612.794373,165.337341 606.721741,169.831024 
	C602.277954,173.119354 596.956055,172.969116 592.764709,169.438141 
	C582.463318,160.759766 570.492920,160.408188 559.021912,168.287689 
	C557.141541,169.579330 554.873901,170.307037 553.002686,171.192490 
	C549.134277,166.854538 545.590515,162.271118 541.412598,158.366089 
	C537.196533,154.425476 531.637878,153.637497 526.010925,154.019043 
	C522.027771,154.289124 519.217224,153.327820 516.137695,150.081772 
	C509.433472,143.014999 495.009674,143.167908 487.840210,149.815659 
	C484.884399,152.556412 482.821198,156.236542 480.101105,159.263962 
	C478.589172,160.946716 476.762451,162.899399 474.728058,163.458527 
	C468.023773,165.301086 463.269531,169.584061 458.640289,174.399429 
	C456.992859,176.113113 454.417816,177.104187 452.096008,177.967117 
	C446.259979,180.136063 440.086517,181.546021 434.518921,184.234756 
	C430.921844,185.971863 429.341492,185.912964 426.858765,182.622177 
	C422.894684,177.367798 417.562286,173.515472 410.801941,172.480316 
	C407.175995,171.925110 405.646851,170.361465 405.953461,166.561737 
	C407.130737,151.973175 392.787140,142.450928 379.887939,144.409042 
	C378.636810,144.598969 376.570740,143.264236 375.778809,142.052002 
	C365.740997,126.687164 353.214905,128.315002 341.841827,134.326843 
	C333.567078,138.700928 325.310944,143.453247 318.048309,149.284592 
	C312.770996,153.521896 307.919922,155.875137 301.003632,156.469543 
	C290.367462,157.383652 282.508087,164.143906 277.023010,173.166016 
	C274.750946,176.903275 272.176880,178.269989 267.784760,178.161652 
	C263.788147,178.063080 259.766785,179.483185 255.732483,180.069672 
	C254.592331,180.235428 253.032654,180.247314 252.234634,179.613281 
	C243.939713,173.022949 234.620392,171.736755 224.485977,173.608490 
	C222.881271,173.904877 220.758057,173.419525 219.366135,172.528061 
	C205.863770,163.880478 191.844238,165.480667 180.272369,173.693604 
	C176.839355,176.130127 175.055801,180.826263 172.308624,184.323761 
	C171.132172,185.821518 169.616425,187.585220 167.926788,188.059616 
	C158.168289,190.799469 150.071243,195.452454 146.308182,205.474396 
	C145.400513,207.891754 145.046799,210.517136 144.503204,212.777130 
	C139.621826,209.490707 134.778534,205.490982 129.301025,202.766159 
	C124.560585,200.407990 119.119278,199.429428 113.950157,197.974731 
	C111.382599,197.252197 108.910080,197.130844 108.922096,193.235504 
	C108.973915,176.433884 93.162750,165.268265 75.449379,173.767822 
	C73.963593,165.418030 70.754677,157.889984 64.906494,151.789764 
	C51.085987,137.373688 25.137365,133.362885 10.680253,147.954636 
	C6.803420,151.867569 4.575020,148.494583 1.358876,147.034241 
	C1.000000,138.312439 1.000000,129.624878 1.380307,120.464874 
	C3.206616,119.117569 5.148124,118.582817 6.019429,117.313469 
	C12.399009,108.019417 21.196716,103.817368 32.344116,103.933197 
	C33.975296,103.950150 36.142479,103.480446 37.172421,102.393402 
	C48.002785,90.962593 61.049881,87.095406 76.467888,89.732178 
	C79.054741,90.174576 82.337601,88.971909 84.745987,87.575684 
	C91.795090,83.489128 98.956703,83.067467 106.694336,85.066788 
	C113.806252,86.904419 117.755363,92.527939 122.716148,97.056976 
	C124.332947,98.533073 126.749245,99.395271 128.946381,99.897774 
	C131.004089,100.368401 133.258713,100.064728 135.421417,99.974884 
	C145.006027,99.576729 152.303894,104.153709 157.145966,111.724548 
	C160.501175,116.970619 162.023788,123.388763 164.530975,129.700470 
	C169.624252,128.979736 175.253555,129.471970 179.592178,123.205704 
	C185.282715,114.986824 194.005142,110.563225 204.406784,111.070709 
	C208.344009,111.262802 210.800354,109.450836 212.636429,106.544258 
	C219.213638,96.132263 236.183334,93.122429 247.060013,98.430031 
	C256.135284,102.858589 262.347504,109.830986 265.065552,119.671463 
	C265.879150,122.617065 267.458099,123.776802 270.669464,124.174477 
	C273.931274,124.578407 277.397095,125.881561 280.102631,127.758194 
	C288.572693,133.633270 292.329041,132.663971 297.242950,123.954407 
	C304.842499,110.484795 316.553833,103.019455 332.451538,109.042137 
	C335.005219,110.009583 337.301758,111.655838 340.057617,113.176109 
	C347.801575,102.201920 358.312775,97.336998 371.521606,99.382584 
	C385.070709,101.480858 390.785156,112.297554 396.357697,123.880577 
	C403.094482,114.478065 411.425415,112.250099 421.457214,114.751587 
	C422.404175,114.987709 424.234009,113.340332 425.051819,112.152779 
	C428.743591,106.791809 434.614624,100.919205 440.238800,103.746933 
	C443.516846,105.395096 445.194305,104.515144 447.290039,101.840462 
	C453.226898,94.263458 461.148956,90.329498 470.847412,89.983467 
	C481.850616,89.590874 489.889374,94.989471 496.402069,103.128342 
	C498.555939,105.820091 500.754700,107.105232 504.326233,107.158211 
	C507.500397,107.205292 511.346466,107.681831 513.685486,109.514099 
	C520.050781,114.500336 525.055664,120.567413 525.122131,129.521866 
	C525.158142,134.369583 530.849731,136.656998 535.343689,134.476395 
	C538.551941,132.919617 542.053650,131.599869 545.557922,131.087769 
	C557.336731,129.366440 566.675903,133.939651 573.677185,143.302872 
	C575.570740,145.835236 576.999451,145.761108 579.844116,144.751038 
	C582.804565,143.699875 586.332825,144.302841 589.601868,144.044739 
	C591.515503,143.893646 594.177002,144.174713 595.189453,143.064453 
	C604.216980,133.164612 614.983765,131.973877 627.000000,136.000000 
	C627.000000,145.354233 627.000000,154.708450 627.000000,164.531342 
z"/>
<path fill="#4BA9E7" opacity="1.000000" stroke="none" 
	d="
M627.000000,135.531342 
	C614.983765,131.973877 604.216980,133.164612 595.189453,143.064453 
	C594.177002,144.174713 591.515503,143.893646 589.601868,144.044739 
	C586.332825,144.302841 582.804565,143.699875 579.844116,144.751038 
	C576.999451,145.761108 575.570740,145.835236 573.677185,143.302872 
	C566.675903,133.939651 557.336731,129.366440 545.557922,131.087769 
	C542.053650,131.599869 538.551941,132.919617 535.343689,134.476395 
	C530.849731,136.656998 525.158142,134.369583 525.122131,129.521866 
	C525.055664,120.567413 520.050781,114.500336 513.685486,109.514099 
	C511.346466,107.681831 507.500397,107.205292 504.326233,107.158211 
	C500.754700,107.105232 498.555939,105.820091 496.402069,103.128342 
	C489.889374,94.989471 481.850616,89.590874 470.847412,89.983467 
	C461.148956,90.329498 453.226898,94.263458 447.290039,101.840462 
	C445.194305,104.515144 443.516846,105.395096 440.238800,103.746933 
	C434.614624,100.919205 428.743591,106.791809 425.051819,112.152779 
	C424.234009,113.340332 422.404175,114.987709 421.457214,114.751587 
	C411.425415,112.250099 403.094482,114.478065 396.357697,123.880577 
	C390.785156,112.297554 385.070709,101.480858 371.521606,99.382584 
	C358.312775,97.336998 347.801575,102.201920 340.057617,113.176109 
	C337.301758,111.655838 335.005219,110.009583 332.451538,109.042137 
	C316.553833,103.019455 304.842499,110.484795 297.242950,123.954407 
	C292.329041,132.663971 288.572693,133.633270 280.102631,127.758194 
	C277.397095,125.881561 273.931274,124.578407 270.669464,124.174477 
	C267.458099,123.776802 265.879150,122.617065 265.065552,119.671463 
	C262.347504,109.830986 256.135284,102.858589 247.060013,98.430031 
	C236.183334,93.122429 219.213638,96.132263 212.636429,106.544258 
	C210.800354,109.450836 208.344009,111.262802 204.406784,111.070709 
	C194.005142,110.563225 185.282715,114.986824 179.592178,123.205704 
	C175.253555,129.471970 169.624252,128.979736 164.530975,129.700470 
	C162.023788,123.388763 160.501175,116.970619 157.145966,111.724548 
	C152.303894,104.153709 145.006027,99.576729 135.421417,99.974884 
	C133.258713,100.064728 131.004089,100.368401 128.946381,99.897774 
	C126.749245,99.395271 124.332947,98.533073 122.716148,97.056976 
	C117.755363,92.527939 113.806252,86.904419 106.694336,85.066788 
	C98.956703,83.067467 91.795090,83.489128 84.745987,87.575684 
	C82.337601,88.971909 79.054741,90.174576 76.467888,89.732178 
	C61.049881,87.095406 48.002785,90.962593 37.172421,102.393402 
	C36.142479,103.480446 33.975296,103.950150 32.344116,103.933197 
	C21.196716,103.817368 12.399009,108.019417 6.019429,117.313469 
	C5.148124,118.582817 3.206616,119.117569 1.380307,119.996216 
	C1.000000,101.979103 1.000000,83.958214 1.000000,65.468658 
	C4.165076,64.999672 7.356026,65.243607 10.486013,64.912048 
	C12.528675,64.695663 14.834412,64.103958 16.420303,62.892387 
	C27.803413,54.196041 35.375172,54.295639 45.570438,62.828243 
	C52.017498,61.058613 57.796467,59.600204 63.472439,57.814445 
	C64.717499,57.422726 65.768356,55.991184 66.615082,54.825294 
	C71.663475,47.873932 82.628593,47.891655 88.989639,50.350285 
	C91.189667,51.200626 94.291039,51.460278 96.379105,50.573383 
	C108.919701,45.246792 120.676903,53.056911 123.163383,64.618805 
	C123.450348,65.953156 125.665924,67.848579 126.956635,67.824707 
	C133.002426,67.712852 138.152649,68.819374 141.480179,74.541435 
	C141.916519,75.291794 143.940842,75.847023 144.831390,75.492401 
	C153.836609,71.906586 160.995010,74.633018 167.280487,82.104927 
	C170.038818,78.342957 172.367355,74.559036 175.284271,71.302094 
	C184.293533,61.242599 196.040466,59.969761 208.592178,61.267704 
	C210.352951,61.449780 213.086624,60.929768 213.947449,59.721382 
	C220.423553,50.630592 239.627121,49.439354 246.594055,61.639942 
	C248.966125,65.793938 249.692490,70.921860 250.945969,75.664200 
	C251.474350,77.663300 250.661179,80.193672 254.428070,79.323494 
	C266.787354,76.468407 278.843048,76.851318 289.850311,84.022041 
	C292.299530,85.617592 293.971375,84.878136 296.520355,84.296516 
	C302.533020,82.924545 308.828125,82.409752 315.014709,82.366295 
	C317.520752,82.348694 318.399445,82.110855 319.267273,79.793358 
	C321.925446,72.694633 327.248688,68.242287 334.152466,65.333641 
	C335.997528,64.556274 337.829132,63.032921 338.945831,61.368294 
	C343.079071,55.206924 349.019287,53.304176 356.017822,52.882633 
	C358.350708,52.742115 361.366211,51.760803 362.748474,50.078377 
	C369.413177,41.966331 380.709351,41.828873 387.088501,50.145401 
	C387.860962,51.152470 388.823517,52.013718 389.646790,52.888165 
	C405.232605,42.892921 420.937988,47.785393 432.153473,66.320084 
	C433.969513,64.977661 435.634186,63.491261 437.523804,62.391426 
	C450.845520,54.637718 469.553955,60.548264 475.956848,74.689552 
	C477.284454,77.621742 478.598511,77.821106 481.629669,77.456482 
	C489.023132,76.567123 496.509186,76.107620 503.616974,79.665924 
	C504.849030,80.282707 507.467346,79.731239 508.573334,78.743233 
	C516.711609,71.473198 520.067322,71.148445 529.665710,76.659851 
	C530.994385,77.422806 533.260681,76.989365 534.964172,76.577393 
	C539.248779,75.541199 543.472351,74.242378 547.694580,72.963516 
	C549.704834,72.354630 552.168579,72.079681 553.545593,70.744568 
	C559.508789,64.962906 566.824280,62.878136 574.730896,61.983200 
	C575.997864,61.839790 577.579407,61.687557 578.408447,60.900215 
	C585.496277,54.169025 589.806885,54.542778 599.214172,61.003204 
	C606.415649,53.042679 616.050415,52.342319 626.533508,53.002991 
	C627.000000,80.354225 627.000000,107.708458 627.000000,135.531342 
z"/>
<path fill="#3492DA" opacity="1.000000" stroke="none" 
	d="
M627.000000,1.500000 
	C626.680664,1.893628 626.420166,1.705716 626.109253,1.218133 
	C626.333313,1.000000 626.666687,1.000000 627.000000,1.500000 
z"/>
<path fill="#3492DA" opacity="1.000000" stroke="none" 
	d="
M1.500000,1.000000 
	C1.897296,1.321798 1.708986,1.581521 1.217535,1.889584 
	C1.000000,1.666667 1.000000,1.333333 1.500000,1.000000 
z"/>
<path fill="#C8E9FC" opacity="1.000000" stroke="none" 
	d="
M102.046478,329.337097 
	C106.066544,335.674713 112.563049,335.488068 119.149208,335.068329 
	C119.469849,335.047882 119.880516,335.065735 120.113449,335.243591 
	C126.548965,340.157043 130.939529,336.725006 135.874924,332.190521 
	C142.490982,326.111969 152.120361,328.147430 159.843567,336.702026 
	C158.433441,336.598755 156.598251,336.590546 155.370499,335.722839 
	C147.777924,330.356567 140.561676,330.858826 134.300934,337.427734 
	C129.530426,342.433044 128.346924,342.308502 122.205162,338.963531 
	C119.618210,337.554626 116.196335,336.964996 113.219498,337.136932 
	C107.359589,337.475403 103.499634,335.625916 102.046478,329.337097 
z"/>
<path fill="#B6DBF2" opacity="1.000000" stroke="none" 
	d="
M573.119934,296.324707 
	C576.064758,296.348633 579.148804,296.680817 582.616455,297.007996 
	C581.506104,298.673462 580.012146,300.343842 577.932495,302.669098 
	C576.127136,300.337311 574.693176,298.485138 573.119934,296.324707 
z"/>
<path fill="#B6DBF2" opacity="1.000000" stroke="none" 
	d="
M585.437744,296.004395 
	C587.722229,295.001617 590.441101,294.000031 593.573608,292.996765 
	C592.806274,298.106873 588.662964,295.233490 585.437744,296.004395 
z"/>
<path fill="#B8DCF3" opacity="1.000000" stroke="none" 
	d="
M242.043777,349.409607 
	C243.740982,348.386353 245.514938,347.703522 247.665710,347.027069 
	C246.951645,349.864075 245.823944,352.614502 242.043777,349.409607 
z"/>
<path fill="#B8DCF3" opacity="1.000000" stroke="none" 
	d="
M249.335205,346.956665 
	C249.777023,346.017700 250.558273,345.045715 251.681839,344.045471 
	C251.240982,344.986053 250.457809,345.954834 249.335205,346.956665 
z"/>
<path fill="#C8E9FC" opacity="1.000000" stroke="none" 
	d="
M98.018013,324.350342 
	C98.927124,324.794006 99.839073,325.611664 100.887192,326.707428 
	C100.022522,326.231842 99.021690,325.478088 98.018013,324.350342 
z"/>
<path fill="#8FCAEF" opacity="1.000000" stroke="none" 
	d="
M202.017273,260.388092 
	C205.916534,261.872253 209.112213,262.461456 210.918777,256.974426 
	C211.480438,255.268524 214.444580,254.353622 216.663086,253.043045 
	C214.900726,257.024200 213.022247,261.200806 210.485779,264.929871 
	C209.913422,265.771362 206.771423,265.614716 205.319183,264.894897 
	C203.897095,264.190002 203.121628,262.180573 202.017273,260.388092 
z"/>
<path fill="#8FC9ED" opacity="1.000000" stroke="none" 
	d="
M313.006042,253.406708 
	C316.103943,253.566818 319.198425,254.129974 322.651001,254.852478 
	C320.387482,256.917297 317.765839,258.822754 314.498322,261.197632 
	C313.940735,258.443604 313.471680,256.126678 313.006042,253.406708 
z"/>
<path fill="#8FCAEF" opacity="1.000000" stroke="none" 
	d="
M197.138092,257.308899 
	C198.643646,257.754486 200.304932,258.497070 201.966385,259.633820 
	C200.408981,259.220612 198.851395,258.413239 197.138092,257.308899 
z"/>
</svg>