<svg width="18" height="18" viewBox="0 0 18 18" fill="none" xmlns="http://www.w3.org/2000/svg">
<g id="Layer 13">
<g clip-path="url(#clip0_4_159)">
<g id="Layer 2">
<g id="Layer 13_2">
<path id="Vector" d="M9.00001 3.66C9.01307 2.63249 9.21299 1.61593 9.59001 0.659999C9.39001 0.659999 9.20001 0.659999 9.00001 0.659999C7.71204 0.658936 6.44116 0.95477 5.28606 1.52453C4.13097 2.09428 3.12274 2.92263 2.3397 3.94523C1.55665 4.96783 1.01986 6.15716 0.771005 7.42087C0.522151 8.68457 0.567935 9.98863 0.904801 11.2318C1.24167 12.4749 1.86055 13.6237 2.71338 14.5888C3.56621 15.554 4.63005 16.3096 5.82226 16.7969C7.01447 17.2843 8.30297 17.4903 9.5877 17.3989C10.8724 17.3075 12.1188 16.9212 13.23 16.27" stroke="#f9822f" stroke-width="1.2" stroke-linecap="round" stroke-linejoin="round"/>
<path id="Vector_2" d="M12.48 4.27C12.5686 3.66697 12.878 3.11831 13.348 2.73036C13.8181 2.3424 14.4155 2.14278 15.0244 2.17017C15.6333 2.19757 16.2103 2.45003 16.6437 2.87863C17.0771 3.30723 17.3359 3.88145 17.37 4.49C17.3517 5.1204 17.0849 5.71801 16.6279 6.15258C16.1708 6.58715 15.5605 6.82346 14.93 6.81H10.93" stroke="#f9822f" stroke-width="1.23" stroke-linecap="round" stroke-linejoin="round"/>
<path id="Vector_3" d="M11.09 11.47C11.1326 11.919 11.3046 12.346 11.5851 12.6991C11.8656 13.0523 12.2426 13.3165 12.6703 13.4596C13.098 13.6027 13.558 13.6186 13.9946 13.5053C14.4312 13.3921 14.8255 13.1546 15.1297 12.8217C15.4339 12.4887 15.635 12.0746 15.7085 11.6296C15.782 11.1847 15.7247 10.7279 15.5437 10.3148C15.3627 9.90174 15.0657 9.55006 14.6887 9.30247C14.3118 9.05488 13.871 8.92201 13.42 8.92H9.59003" stroke="#f9822f" stroke-width="1.2" stroke-linecap="round" stroke-linejoin="round"/>
</g>
</g>
</g>
</g>
<defs>
<clipPath id="clip0_4_159">
<rect width="17.98" height="17.96" rx="5" fill="white"/>
</clipPath>
</defs>
</svg>
