<svg width="75" height="59" viewBox="0 0 75 59" fill="none" xmlns="http://www.w3.org/2000/svg">
<circle cx="49.7908" cy="18.5378" r="9.8491" fill="url(#paint0_linear_21_282)" stroke="url(#paint1_linear_21_282)" stroke-width="2"/>
<path fill-rule="evenodd" clip-rule="evenodd" d="M49.7908 4C49.3544 4 49.0007 4.35374 49.0007 4.7901V7.31841C49.0007 7.75477 49.3544 8.10851 49.7908 8.10851C50.2272 8.10851 50.5809 7.75477 50.5809 7.31841V4.7901C50.5809 4.35374 50.2272 4 49.7908 4ZM49.7908 28.9671C49.3544 28.9671 49.0007 29.3208 49.0007 29.7572V32.2855C49.0007 32.7219 49.3544 33.0756 49.7908 33.0756C50.2272 33.0756 50.5809 32.7219 50.5809 32.2855V29.7572C50.5809 29.3208 50.2272 28.9671 49.7908 28.9671ZM55.9804 6.23689C56.1986 5.85899 56.6818 5.72951 57.0597 5.94769C57.4376 6.16587 57.5671 6.64909 57.3489 7.02699L56.0848 9.21657C55.8666 9.59447 55.3834 9.72394 55.0055 9.50576C54.6276 9.28759 54.4981 8.80437 54.7163 8.42647L55.9804 6.23689ZM44.5762 27.5698C44.1983 27.3517 43.7151 27.4811 43.4969 27.859L42.2327 30.0486C42.0145 30.4265 42.144 30.9097 42.5219 31.1279C42.8998 31.3461 43.383 31.2166 43.6012 30.8387L44.8654 28.6491C45.0835 28.2712 44.9541 27.788 44.5762 27.5698ZM61.3016 10.9797C61.6795 10.7615 62.1628 10.891 62.3809 11.2689C62.5991 11.6468 62.4696 12.13 62.0917 12.3482L59.9022 13.6123C59.5243 13.8305 59.041 13.701 58.8229 13.3232C58.6047 12.9453 58.7342 12.462 59.1121 12.2439L61.3016 10.9797ZM40.7588 23.7524C40.5406 23.3745 40.0574 23.2451 39.6795 23.4632L37.4899 24.7274C37.112 24.9456 36.9825 25.4288 37.2007 25.8067C37.4189 26.1846 37.9021 26.3141 38.28 26.0959L40.4696 24.8317C40.8475 24.6136 40.977 24.1303 40.7588 23.7524ZM63.5385 17.7477C63.9749 17.7477 64.3286 18.1014 64.3286 18.5378C64.3286 18.9742 63.9749 19.3279 63.5385 19.3279H61.0102C60.5739 19.3279 60.2201 18.9742 60.2201 18.5378C60.2201 18.1014 60.5739 17.7477 61.0102 17.7477H63.5385ZM39.3615 18.5378C39.3615 18.1014 39.0078 17.7477 38.5714 17.7477H36.0431C35.6068 17.7477 35.253 18.1014 35.253 18.5378C35.253 18.9742 35.6068 19.3279 36.0431 19.3279H38.5714C39.0078 19.3279 39.3615 18.9742 39.3615 18.5378ZM62.0917 24.7274C62.4696 24.9456 62.5991 25.4288 62.3809 25.8067C62.1628 26.1846 61.6795 26.3141 61.3016 26.0959L59.1121 24.8317C58.7342 24.6136 58.6047 24.1303 58.8229 23.7524C59.041 23.3745 59.5243 23.2451 59.9022 23.4632L62.0917 24.7274ZM40.7588 13.3232C40.977 12.9453 40.8475 12.462 40.4696 12.2439L38.28 10.9797C37.9021 10.7615 37.4189 10.891 37.2007 11.2689C36.9825 11.6468 37.112 12.13 37.4899 12.3482L39.6795 13.6123C40.0574 13.8305 40.5406 13.701 40.7588 13.3232ZM57.3489 30.0486C57.5671 30.4265 57.4376 30.9097 57.0597 31.1279C56.6818 31.3461 56.1986 31.2166 55.9804 30.8387L54.7163 28.6491C54.4981 28.2712 54.6276 27.788 55.0055 27.5698C55.3834 27.3516 55.8666 27.4811 56.0848 27.859L57.3489 30.0486ZM44.5762 9.50576C44.9541 9.28758 45.0835 8.80436 44.8654 8.42646L43.6012 6.23688C43.383 5.85898 42.8998 5.72951 42.5219 5.94769C42.144 6.16586 42.0145 6.64908 42.2327 7.02698L43.4969 9.21656C43.7151 9.59446 44.1983 9.72394 44.5762 9.50576Z" fill="url(#paint2_linear_21_282)"/>
<g filter="url(#filter0_bd_21_282)">
<mask id="path-3-outside-1_21_282" maskUnits="userSpaceOnUse" x="15" y="11.6919" width="45" height="29" fill="black">
<rect fill="white" x="15" y="11.6919" width="45" height="29"/>
<path fill-rule="evenodd" clip-rule="evenodd" d="M46.218 24.8398C46.218 25.2289 46.1981 25.6134 46.1592 25.9923C47.3602 24.9485 48.9288 24.3166 50.645 24.3166C54.4236 24.3166 57.4867 27.3797 57.4867 31.1583C57.4867 34.9369 54.4236 38 50.645 38H24.0482C24.0464 38 24.0447 38 24.0429 38C24.0412 38 24.0394 38 24.0377 38H24.0027V37.9999C20.1315 37.9782 17 34.8333 17 30.9571C17 27.095 20.1085 23.9591 23.96 23.9146C24.4303 18.1906 29.2248 13.6919 35.0701 13.6919C41.2269 13.6919 46.218 18.683 46.218 24.8398Z"/>
</mask>
<path fill-rule="evenodd" clip-rule="evenodd" d="M46.218 24.8398C46.218 25.2289 46.1981 25.6134 46.1592 25.9923C47.3602 24.9485 48.9288 24.3166 50.645 24.3166C54.4236 24.3166 57.4867 27.3797 57.4867 31.1583C57.4867 34.9369 54.4236 38 50.645 38H24.0482C24.0464 38 24.0447 38 24.0429 38C24.0412 38 24.0394 38 24.0377 38H24.0027V37.9999C20.1315 37.9782 17 34.8333 17 30.9571C17 27.095 20.1085 23.9591 23.96 23.9146C24.4303 18.1906 29.2248 13.6919 35.0701 13.6919C41.2269 13.6919 46.218 18.683 46.218 24.8398Z" fill="url(#paint3_linear_21_282)" shape-rendering="crispEdges"/>
<path d="M46.1592 25.9923L44.1697 25.788L43.6528 30.8204L47.4711 27.5019L46.1592 25.9923ZM24.0027 38H22.0027V40H24.0027V38ZM24.0027 37.9999H26.0027V36.011L24.0139 35.9999L24.0027 37.9999ZM23.96 23.9146L23.9831 25.9145L25.8042 25.8935L25.9533 24.0784L23.96 23.9146ZM48.1487 26.1967C48.1946 25.75 48.218 25.2973 48.218 24.8398H44.218C44.218 25.1606 44.2016 25.4769 44.1697 25.788L48.1487 26.1967ZM50.645 22.3166C48.4286 22.3166 46.3983 23.1347 44.8473 24.4827L47.4711 27.5019C48.3222 26.7623 49.4291 26.3166 50.645 26.3166V22.3166ZM59.4867 31.1583C59.4867 26.2752 55.5282 22.3166 50.645 22.3166V26.3166C53.319 26.3166 55.4867 28.4843 55.4867 31.1583H59.4867ZM50.645 40C55.5282 40 59.4867 36.0414 59.4867 31.1583H55.4867C55.4867 33.8323 53.319 36 50.645 36V40ZM50.645 36H24.0482V40H50.645V36ZM24.0429 40C24.0444 40 24.0458 40 24.0466 40C24.0476 40 24.0479 40 24.0482 40V36C24.0466 36 24.0452 36 24.0444 36C24.0435 36 24.0432 36 24.0429 36V40ZM24.0377 40C24.0379 40 24.0382 40 24.0392 40C24.04 40 24.0414 40 24.0429 40V36C24.0427 36 24.0424 36 24.0414 36C24.0406 36 24.0392 36 24.0377 36V40ZM24.0377 36H24.0027V40H24.0377V36ZM26.0027 38V37.9999H22.0027V38H26.0027ZM15 30.9571C15 35.9342 19.0207 39.972 23.9915 39.9999L24.0139 35.9999C21.2423 35.9844 19 33.7325 19 30.9571H15ZM23.937 21.9148C18.9912 21.9718 15 25.9982 15 30.9571H19C19 28.1919 21.2258 25.9463 23.9831 25.9145L23.937 21.9148ZM35.0701 11.6919C28.1751 11.6919 22.5215 16.9979 21.9667 23.7509L25.9533 24.0784C26.339 19.3834 30.2745 15.6919 35.0701 15.6919V11.6919ZM48.218 24.8398C48.218 17.5784 42.3315 11.6919 35.0701 11.6919V15.6919C40.1224 15.6919 44.218 19.7875 44.218 24.8398H48.218Z" fill="url(#paint4_linear_21_282)" mask="url(#path-3-outside-1_21_282)"/>
</g>
<defs>
<filter id="filter0_bd_21_282" x="0" y="0.691864" width="74.4867" height="58.3081" filterUnits="userSpaceOnUse" color-interpolation-filters="sRGB">
<feFlood flood-opacity="0" result="BackgroundImageFix"/>
<feGaussianBlur in="BackgroundImageFix" stdDeviation="5"/>
<feComposite in2="SourceAlpha" operator="in" result="effect1_backgroundBlur_21_282"/>
<feColorMatrix in="SourceAlpha" type="matrix" values="0 0 0 0 0 0 0 0 0 0 0 0 0 0 0 0 0 0 127 0" result="hardAlpha"/>
<feOffset dy="4"/>
<feGaussianBlur stdDeviation="7.5"/>
<feComposite in2="hardAlpha" operator="out"/>
<feColorMatrix type="matrix" values="0 0 0 0 0 0 0 0 0 0 0 0 0 0 0 0 0 0 0.1 0"/>
<feBlend mode="normal" in2="effect1_backgroundBlur_21_282" result="effect2_dropShadow_21_282"/>
<feBlend mode="normal" in="SourceGraphic" in2="effect2_dropShadow_21_282" result="shape"/>
</filter>
<linearGradient id="paint0_linear_21_282" x1="54.7684" y1="10.9529" x2="46.7367" y2="27.456" gradientUnits="userSpaceOnUse">
<stop offset="0.182844" stop-color="#FFE600"/>
<stop offset="0.980542" stop-color="#F09000"/>
</linearGradient>
<linearGradient id="paint1_linear_21_282" x1="45.2707" y1="7.66501" x2="57.7317" y2="37.5958" gradientUnits="userSpaceOnUse">
<stop stop-color="#FFE600"/>
<stop offset="1" stop-color="#9C8D00"/>
</linearGradient>
<linearGradient id="paint2_linear_21_282" x1="60.4571" y1="7.79247" x2="38.8875" y2="33.0756" gradientUnits="userSpaceOnUse">
<stop stop-color="#FFE600"/>
<stop offset="1" stop-color="#AA9900"/>
</linearGradient>
<linearGradient id="paint3_linear_21_282" x1="29.5837" y1="13.5905" x2="39.3224" y2="38.1014" gradientUnits="userSpaceOnUse">
<stop stop-color="white"/>
<stop offset="0.708333" stop-color="#9DDCFF" stop-opacity="0.69"/>
</linearGradient>
<linearGradient id="paint4_linear_21_282" x1="35.9303" y1="5.2743" x2="49.3894" y2="47.9495" gradientUnits="userSpaceOnUse">
<stop stop-color="white"/>
<stop offset="0.713542" stop-color="#85C6EC" stop-opacity="0.71"/>
</linearGradient>
</defs>
</svg>
