<svg width="409" height="267" viewBox="0 0 409 267" fill="none" xmlns="http://www.w3.org/2000/svg">
<g filter="url(#filter0_i_302_168)">
<path fill-rule="evenodd" clip-rule="evenodd" d="M292 133.065C283.079 137.115 273.174 139.37 262.743 139.37C223.546 139.37 191.77 107.527 191.77 68.2466C191.77 46.6482 201.377 27.2984 216.542 14.2545C214.322 14.0858 212.078 14 209.814 14C161.316 14 122 53.3989 122 102C122 150.601 161.316 190 209.814 190C247.4 190 279.471 166.336 292 133.065Z" fill="#4107E7"/>
</g>
<g opacity="0.6" filter="url(#filter1_f_302_168)">
<ellipse cx="179.245" cy="130.287" rx="38.5" ry="40" transform="rotate(22.5606 179.245 130.287)" fill="#B28AE3"/>
<ellipse cx="242.079" cy="118.491" rx="53" ry="55" transform="rotate(22.5606 242.079 118.491)" fill="#B28AE3"/>
<ellipse cx="315.994" cy="141.087" rx="38.5" ry="32.5071" transform="rotate(-14.8121 315.994 141.087)" fill="#B28AE3"/>
<ellipse cx="135.394" cy="125.063" rx="45" ry="47" transform="rotate(22.5606 135.394 125.063)" fill="#B28AE3"/>
<ellipse cx="79.1211" cy="136.071" rx="25.5" ry="14.6783" transform="rotate(-21.7128 79.1211 136.071)" fill="#B28AE3"/>
</g>
<defs>
<filter id="filter0_i_302_168" x="112" y="14" width="180" height="189" filterUnits="userSpaceOnUse" color-interpolation-filters="sRGB">
<feFlood flood-opacity="0" result="BackgroundImageFix"/>
<feBlend mode="normal" in="SourceGraphic" in2="BackgroundImageFix" result="shape"/>
<feColorMatrix in="SourceAlpha" type="matrix" values="0 0 0 0 0 0 0 0 0 0 0 0 0 0 0 0 0 0 127 0" result="hardAlpha"/>
<feOffset dx="-10" dy="13"/>
<feGaussianBlur stdDeviation="12"/>
<feComposite in2="hardAlpha" operator="arithmetic" k2="-1" k3="1"/>
<feColorMatrix type="matrix" values="0 0 0 0 0.98 0 0 0 0 0 0 0 0 0 1 0 0 0 0.9 0"/>
<feBlend mode="normal" in2="shape" result="effect1_innerShadow_302_168"/>
</filter>
<filter id="filter1_f_302_168" x="0.810547" y="9.76636" width="407.329" height="218.262" filterUnits="userSpaceOnUse" color-interpolation-filters="sRGB">
<feFlood flood-opacity="0" result="BackgroundImageFix"/>
<feBlend mode="normal" in="SourceGraphic" in2="BackgroundImageFix" result="shape"/>
<feGaussianBlur stdDeviation="27" result="effect1_foregroundBlur_302_168"/>
</filter>
</defs>
</svg>
