<svg width="19" height="12" viewBox="0 0 19 12" fill="none" xmlns="http://www.w3.org/2000/svg">
<g id="Layer 3 copy (2)">
<g id="Layer 2">
<g id="Layer 3 copy">
<path id="Vector" d="M15.75 11.31C16.4583 11.1462 17.0941 10.7565 17.5615 10.1996C18.0288 9.64275 18.3023 8.94897 18.3407 8.223C18.3791 7.49703 18.1803 6.77827 17.7743 6.17522C17.3683 5.57216 16.7771 5.11755 16.09 4.88C15.4892 4.68833 14.8492 4.65387 14.2312 4.77992C13.6132 4.90597 13.0378 5.18831 12.56 5.6C11.6998 6.42999 11.0995 7.37349 10.39 8.43C9 10.5 6.09003 12.16 3.56003 10.84C2.94851 10.5276 2.4369 10.05 2.08334 9.4613C1.72979 8.87263 1.54848 8.19658 1.56003 7.51C1.56001 6.99794 1.66136 6.49094 1.85822 6.01823C2.05508 5.54552 2.34356 5.11645 2.70704 4.75576C3.07051 4.39508 3.50179 4.10991 3.976 3.91669C4.45021 3.72348 4.95798 3.62604 5.47003 3.63H6.00003C6.2223 2.92066 6.62385 2.28068 7.16584 1.77195C7.70782 1.26322 8.37191 0.902941 9.09389 0.725968C9.81586 0.548994 10.5713 0.56131 11.2871 0.761724C12.0029 0.962138 12.6549 1.34387 13.18 1.87C13.4256 2.11286 13.6406 2.38488 13.82 2.68" stroke="#f9822f" stroke-width="1.2" stroke-linecap="round" stroke-linejoin="round"/>
</g>
</g>
</g>
</svg>
