<svg width="18" height="15" viewBox="0 0 18 15" fill="none" xmlns="http://www.w3.org/2000/svg">
<g id="Layer 16">
<g clip-path="url(#clip0_4_185)">
<g id="Layer 2">
<g id="Layer 16_2">
<path id="Vector" d="M14.81 11.35C15.5211 11.1871 16.16 10.7972 16.6299 10.2392C17.0999 9.68116 17.3754 8.98534 17.415 8.25685C17.4545 7.52837 17.2558 6.80681 16.849 6.20121C16.4422 5.5956 15.8493 5.13886 15.16 4.89999C14.2869 4.60049 13.3309 4.658 12.5 5.05999" stroke="#f9822f" stroke-width="1.2" stroke-linecap="round" stroke-linejoin="round"/>
<path id="Vector_2" d="M2.42997 10.81C1.85889 10.4793 1.38694 10.0015 1.06332 9.42633C0.739698 8.85119 0.576237 8.19979 0.589972 7.54C0.588656 7.02832 0.688304 6.5214 0.883205 6.04829C1.07811 5.57518 1.36443 5.14517 1.72578 4.78289C2.08714 4.42061 2.51641 4.13318 2.98902 3.93706C3.46163 3.74095 3.96829 3.64 4.47997 3.64H4.99997C5.22368 2.92703 5.62728 2.2837 6.17187 1.77204C6.71646 1.26038 7.38367 0.89763 8.1092 0.718762C8.83472 0.539894 9.59408 0.550937 10.3141 0.750828C11.0341 0.95072 11.6905 1.33272 12.22 1.86C12.4634 2.10843 12.6781 2.3835 12.86 2.68" stroke="#f9822f" stroke-width="1.2" stroke-linecap="round" stroke-linejoin="round"/>
<g id="Group">
<g id="Group_2">
<path id="Vector_3" d="M8.62994 7.14V10.18" stroke="#f9822f" stroke-width="0.6" stroke-linecap="round" stroke-linejoin="round"/>
<path id="Vector_4" d="M9.49996 7.52L8.62996 8.38L7.76996 7.52" stroke="#f9822f" stroke-width="0.6" stroke-linecap="round" stroke-linejoin="round"/>
<path id="Vector_5" d="M9.11996 6.66L8.62996 7.15L8.14996 6.66" stroke="#f9822f" stroke-width="0.6" stroke-linecap="round" stroke-linejoin="round"/>
</g>
<g id="Group_3">
<path id="Vector_6" d="M5.93994 8.71001L8.56994 10.23" stroke="#f9822f" stroke-width="0.6" stroke-linecap="round" stroke-linejoin="round"/>
<path id="Vector_7" d="M6.69996 8.15001L7.01996 9.33001L5.82996 9.65001" stroke="#f9822f" stroke-width="0.6" stroke-linecap="round" stroke-linejoin="round"/>
<path id="Vector_8" d="M5.76997 8.05L5.93997 8.71L5.27997 8.89" stroke="#f9822f" stroke-width="0.6" stroke-linecap="round" stroke-linejoin="round"/>
</g>
<g id="Group_4">
<path id="Vector_9" d="M5.94995 11.83L8.57995 10.31" stroke="#f9822f" stroke-width="0.6" stroke-linecap="round" stroke-linejoin="round"/>
<path id="Vector_10" d="M5.83997 10.89L7.02997 11.21L6.70997 12.39" stroke="#f9822f" stroke-width="0.6" stroke-linecap="round" stroke-linejoin="round"/>
<path id="Vector_11" d="M5.28998 11.65L5.94998 11.83L5.77998 12.49" stroke="#f9822f" stroke-width="0.6" stroke-linecap="round" stroke-linejoin="round"/>
</g>
<g id="Group_5">
<path id="Vector_12" d="M8.65997 13.38V10.34" stroke="#f9822f" stroke-width="0.6" stroke-linecap="round" stroke-linejoin="round"/>
<path id="Vector_13" d="M7.78998 13L8.64998 12.13L9.51998 13" stroke="#f9822f" stroke-width="0.6" stroke-linecap="round" stroke-linejoin="round"/>
<path id="Vector_14" d="M8.16998 13.86L8.64998 13.37L9.13998 13.86" stroke="#f9822f" stroke-width="0.6" stroke-linecap="round" stroke-linejoin="round"/>
</g>
<g id="Group_6">
<path id="Vector_15" d="M11.35 11.81L8.71997 10.29" stroke="#f9822f" stroke-width="0.6" stroke-linecap="round" stroke-linejoin="round"/>
<path id="Vector_16" d="M10.59 12.37L10.27 11.19L11.46 10.87" stroke="#f9822f" stroke-width="0.6" stroke-linecap="round" stroke-linejoin="round"/>
<path id="Vector_17" d="M11.52 12.47L11.35 11.81L12.01 11.63" stroke="#f9822f" stroke-width="0.6" stroke-linecap="round" stroke-linejoin="round"/>
</g>
<g id="Group_7">
<path id="Vector_18" d="M11.34 8.69L8.70996 10.21" stroke="#f9822f" stroke-width="0.6" stroke-linecap="round" stroke-linejoin="round"/>
<path id="Vector_19" d="M11.4499 9.63L10.2599 9.31001L10.5799 8.13" stroke="#f9822f" stroke-width="0.6" stroke-linecap="round" stroke-linejoin="round"/>
<path id="Vector_20" d="M12 8.87L11.34 8.69L11.51 8.03" stroke="#f9822f" stroke-width="0.6" stroke-linecap="round" stroke-linejoin="round"/>
</g>
</g>
</g>
</g>
</g>
</g>
<defs>
<clipPath id="clip0_4_185">
<rect width="18" height="14.16" rx="5" fill="white"/>
</clipPath>
</defs>
</svg>
