<svg width="19" height="16" viewBox="0 0 19 16" fill="none" xmlns="http://www.w3.org/2000/svg">
<g id="Layer 10">
<g id="Layer 2">
<g id="Layer 10_2">
<g id="Group">
<path id="Vector" d="M11.92 10.28C11.785 10.2814 11.652 10.2467 11.5348 10.1797C11.4176 10.1126 11.3203 10.0155 11.2531 9.89834C11.1859 9.78121 11.1511 9.64828 11.1523 9.51324C11.1535 9.37819 11.1907 9.24591 11.26 9.13V9.13L11.83 8.13C11.8397 8.1134 11.8536 8.09963 11.8702 8.09006C11.8869 8.08049 11.9058 8.07545 11.925 8.07545C11.9442 8.07545 11.9631 8.08049 11.9798 8.09006C11.9964 8.09963 12.0103 8.1134 12.02 8.13L12.59 9.13C12.6565 9.24716 12.6911 9.3797 12.6903 9.5144C12.6895 9.6491 12.6534 9.78124 12.5856 9.89762C12.5178 10.014 12.4207 10.1106 12.3039 10.1777C12.1871 10.2448 12.0547 10.2801 11.92 10.28Z" stroke="#f9822f" stroke-width="0.75" stroke-linecap="round" stroke-linejoin="round"/>
<path id="Vector_2" d="M12.25 15.23C12.0424 15.2214 11.8405 15.1595 11.6638 15.0502C11.4871 14.941 11.3415 14.788 11.241 14.6062C11.1406 14.4243 11.0886 14.2197 11.0902 14.0119C11.0917 13.8042 11.1468 13.6003 11.25 13.42V13.42L12.15 11.87C12.1652 11.8452 12.1865 11.8247 12.2119 11.8104C12.2373 11.7962 12.2659 11.7887 12.295 11.7887C12.3241 11.7887 12.3527 11.7962 12.3781 11.8104C12.4035 11.8247 12.4248 11.8452 12.44 11.87L13.34 13.42C13.445 13.604 13.4999 13.8123 13.4992 14.0241C13.4985 14.236 13.4422 14.4439 13.3359 14.6272C13.2296 14.8104 13.077 14.9625 12.8935 15.0683C12.7099 15.1741 12.5018 15.2299 12.29 15.23H12.25Z" stroke="#f9822f" stroke-width="0.75" stroke-linecap="round" stroke-linejoin="round"/>
<path id="Vector_3" d="M9.46999 13.1C9.30466 13.0897 9.14448 13.0385 9.00383 12.951C8.86317 12.8635 8.74646 12.7425 8.66417 12.5987C8.58188 12.455 8.53659 12.293 8.53237 12.1274C8.52815 11.9618 8.56513 11.7978 8.63999 11.65V11.65L9.34999 10.41C9.36243 10.3893 9.38002 10.3722 9.40105 10.3603C9.42208 10.3484 9.44583 10.3421 9.46999 10.3421C9.49415 10.3421 9.5179 10.3484 9.53893 10.3603C9.55995 10.3722 9.57754 10.3893 9.58999 10.41L10.3 11.65C10.3748 11.7978 10.4118 11.9618 10.4076 12.1274C10.4034 12.293 10.3581 12.455 10.2758 12.5987C10.1935 12.7425 10.0768 12.8635 9.93615 12.951C9.7955 13.0385 9.63532 13.0897 9.46999 13.1V13.1Z" stroke="#f9822f" stroke-width="0.75" stroke-linecap="round" stroke-linejoin="round"/>
</g>
<path id="Vector_4" d="M14.85 12.32C15.6594 12.1455 16.3671 11.6583 16.8191 10.9645C17.2711 10.2707 17.4307 9.42644 17.2633 8.61552C17.0958 7.80459 16.6148 7.09263 15.925 6.63462C15.2351 6.17661 14.3923 6.00962 13.58 6.17" stroke="#f9822f" stroke-width="1.2" stroke-linecap="round" stroke-linejoin="round"/>
<path id="Vector_5" d="M5.99998 12.26C5.11525 12.4297 4.19913 12.2958 3.39998 11.88C2.84166 11.5762 2.37811 11.1241 2.06048 10.5736C1.74285 10.023 1.58349 9.3954 1.59998 8.76C1.59998 7.79727 1.98242 6.87396 2.66318 6.1932C3.34394 5.51245 4.26724 5.13 5.22998 5.13H5.74998C5.94573 4.45679 6.31499 3.84685 6.82075 3.36132C7.32651 2.87578 7.951 2.53171 8.63163 2.36357C9.31227 2.19544 10.0251 2.20916 10.6988 2.40334C11.3725 2.59753 11.9833 2.96537 12.47 3.47C12.7001 3.70173 12.9015 3.96025 13.07 4.24" stroke="#f9822f" stroke-width="1.2" stroke-linecap="round" stroke-linejoin="round"/>
<path id="Vector_6" d="M16.33 6.82C16.7968 6.68474 17.2263 6.44394 17.5852 6.11623C17.9441 5.78851 18.2229 5.38264 18.4 4.93C17.9036 4.89531 17.4224 4.74426 16.9953 4.48909C16.5681 4.23392 16.207 3.88178 15.9412 3.46117C15.6754 3.04056 15.5124 2.56329 15.4653 2.06797C15.4181 1.57265 15.4883 1.07319 15.67 0.610001H15.45C14.7171 0.611607 14.0074 0.866272 13.4407 1.33092C12.874 1.79558 12.4851 2.44169 12.34 3.16" stroke="#f9822f" stroke-width="1.2" stroke-linecap="round" stroke-linejoin="round"/>
</g>
</g>
</g>
</svg>
