<svg width="66" height="66" viewBox="0 0 66 66" fill="none" xmlns="http://www.w3.org/2000/svg">
<g filter="url(#filter0_i_602_86)">
<path d="M34.5426 5.62007C33.3161 2.88824 35.6646 -0.0401218 38.5543 0.470026C53.9875 3.19433 65.7114 16.6646 65.7114 32.8807C65.7114 51.0577 50.9756 65.7935 32.7986 65.7935C16.5825 65.7935 3.11218 54.0696 0.387877 38.6365C-0.122308 35.7463 2.80631 33.3986 5.53792 34.6247C8.27316 35.8528 11.3084 36.5377 14.5136 36.5377C26.6318 36.5377 36.4556 26.714 36.4556 14.5957C36.4556 11.3906 35.7706 8.35531 34.5426 5.62007Z" fill="url(#paint0_linear_602_86)"/>
</g>
<defs>
<filter id="filter0_i_602_86" x="0.329529" y="0.411682" width="70.8673" height="70.8672" filterUnits="userSpaceOnUse" color-interpolation-filters="sRGB">
<feFlood flood-opacity="0" result="BackgroundImageFix"/>
<feBlend mode="normal" in="SourceGraphic" in2="BackgroundImageFix" result="shape"/>
<feColorMatrix in="SourceAlpha" type="matrix" values="0 0 0 0 0 0 0 0 0 0 0 0 0 0 0 0 0 0 127 0" result="hardAlpha"/>
<feOffset dx="5.48546" dy="5.48546"/>
<feGaussianBlur stdDeviation="5.48546"/>
<feComposite in2="hardAlpha" operator="arithmetic" k2="-1" k3="1"/>
<feColorMatrix type="matrix" values="0 0 0 0 0.650967 0 0 0 0 0.522083 0 0 0 0 0.86125 0 0 0 0.7 0"/>
<feBlend mode="normal" in2="shape" result="effect1_innerShadow_602_86"/>
</filter>
<linearGradient id="paint0_linear_602_86" x1="33.0205" y1="0.411682" x2="33.0205" y2="65.7935" gradientUnits="userSpaceOnUse">
<stop stop-color="#A3A9DF"/>
<stop offset="0.853177" stop-color="#1F2FBC"/>
</linearGradient>
</defs>
</svg>
