<svg viewBox='0 0 24 24' xmlns='http://www.w3.org/2000/svg' xmlns:xlink='http://www.w3.org/1999/xlink'><rect width='24' height='24' stroke='none' fill='#000' opacity='0'/>


<g transform="matrix(0.5 0 0 0.5 12 12)" >
<path fill='currentColor'  transform=" translate(-24, -24)" d="M 10 5.9726562 C 9.329258870597734 5.968931848176317 8.701302917253763 6.301652995048398 8.32769716246171 6.858722356487883 C 7.954091407669658 7.415791717927369 7.8845785092036085 8.123039904819958 8.1425781 8.7421875 C 8.1425781 8.7421875 9 11.038188 9 13 C 9 15.547338 8.4277344 16.732531 7.6777344 18.394531 C 6.9277344 20.056531 6 22.194932 6 25.433594 C 6 28.516031 6.7764321 30.496737 7.4023438 32.007812 C 7.8238621 33.025442 8.1610212 33.857514 8.3457031 35.021484 C 7.975188786721085 34.67410876338616 7.486403739870959 34.48068976114863 6.9785156 34.480469 C 6.16502545232824 34.481476614107166 5.433180612692373 34.97506334914394 5.127438435097407 35.72891277474874 C 4.821696257502441 36.482762200353555 5.0029691838769015 37.34668630608828 5.5859375 37.914062 L 8.9082031 41.236328 C 9.287463884078912 41.73558412472294 9.878878680834616 42.0281208049994 10.5058500239292 42.02658608948977 C 11.132821367023784 42.02505137398014 11.722796928452812 41.72962285801517 12.099609000000001 41.228516 L 15.414062 37.914062 C 15.93654358958578 37.4124288537257 16.147013270005946 36.667528015563704 15.96429962196812 35.96664389695504 C 15.781585973930293 35.26575977834637 15.234240221653629 34.71841402606971 14.533356103044964 34.53570037803188 C 13.8324719844363 34.35298672999406 13.0875711462743 34.56345641041422 12.585938 35.085938 L 12.404297 35.267578 C 12.181675 33.172942 11.59371 31.674134 11.097656 30.476562 C 10.473568 28.969888 10 27.917157 10 25.433594 C 10 22.886256 10.572266 21.701064 11.322266 20.039062 C 12.072266 18.377063 13 16.238662 13 13 C 13 9.969812 11.857422 7.2578125 11.857422 7.2578125 C 11.562533064929177 6.487391912057436 10.824917092624696 5.977033030883568 9.999999999999998 5.9726562 z M 25 5.9726562 C 24.329258852915498 5.9689318144651065 23.70130286859567 6.3016529475836185 23.327697089976688 6.858722314558997 C 22.954091311357708 7.415791681534376 22.88457840214374 8.123039888403337 23.142578 8.7421875 C 23.142578 8.7421875 24 11.038188 24 13 C 24 15.547338 23.427734 16.732531 22.677734 18.394531 C 21.927734 20.056531 21 22.194932 21 25.433594 C 21 28.516031 21.776432 30.496737 22.402344 32.007812 C 22.823862 33.025442 23.161021 33.857514 23.345703 35.021484 C 22.975188812750805 34.674108881434485 22.486403967134272 34.48068988809178 21.978515999999996 34.480469 C 21.165025870540457 34.48147665470345 20.43318106808401 34.975063404561524 20.127438916168853 35.72891282098259 C 19.821696764253694 36.48276223740367 20.002969696841884 37.34668631880715 20.585938 37.914062 L 23.908203 41.236328 C 24.287463780987068 41.73558416370276 24.878878601766427 42.02812087117767 25.505849974030223 42.02658615564472 C 26.132821346294023 42.02505144011178 26.722796931658582 41.72962289692158 27.099609 41.228516 L 30.414062 37.914062 C 30.936543589585757 37.4124288537257 31.1470132700059 36.66752801556371 30.96429962196807 35.96664389695506 C 30.781585973930238 35.265759778346414 30.234240221653586 34.71841402606976 29.533356103044937 34.53570037803193 C 28.83247198443629 34.3529867299941 28.087571146274303 34.56345641041425 27.585938 35.085938 L 27.404297 35.267578 C 27.181675 33.172942 26.59371 31.674134 26.097656 30.476562 C 25.473568 28.969888 25 27.917157 25 25.433594 C 25 22.886256 25.572266 21.701064 26.322266 20.039062 C 27.072266 18.377063 28 16.238662 28 13 C 28 9.969812 26.857422 7.2578125 26.857422 7.2578125 C 26.562533064929177 6.487391912057436 25.8249170926247 5.977033030883568 25 5.9726562 z M 35.5 6 C 34.959046125133646 5.992349565681768 34.45587795314258 6.2765629442539925 34.18316841777021 6.743809274571492 C 33.91045888239785 7.211055604888992 33.91045888239785 7.788944395111007 34.18316841777021 8.256190725428507 C 34.45587795314258 8.723437055746007 34.95904612513364 9.007650434318231 35.5 9 L 38.5 9 C 39.346499 9 40 9.6535009 40 10.5 L 40 14 L 38.5 14 C 37.959046125133646 13.992349565681769 37.45587795314258 14.276562944253993 37.18316841777021 14.743809274571493 C 36.91045888239785 15.211055604888992 36.91045888239785 15.788944395111006 37.18316841777021 16.256190725428507 C 37.45587795314258 16.723437055746007 37.95904612513364 17.007650434318233 38.5 17 L 40 17 L 40 22.5 L 38.5 22.5 C 37.959046125133646 22.492349565681767 37.45587795314258 22.776562944253993 37.18316841777021 23.243809274571493 C 36.91045888239785 23.711055604888994 36.91045888239785 24.288944395111006 37.18316841777021 24.756190725428507 C 37.45587795314258 25.223437055746007 37.95904612513364 25.507650434318233 38.5 25.5 L 40 25.5 L 40 31 L 38.5 31 C 37.959046125133646 30.992349565681767 37.45587795314258 31.276562944253993 37.18316841777021 31.743809274571493 C 36.91045888239785 32.21105560488899 36.91045888239785 32.78894439511101 37.18316841777021 33.25619072542851 C 37.45587795314258 33.723437055746004 37.95904612513364 34.00765043431823 38.5 34 L 40 34 L 40 37.5 C 40 38.346499 39.346499 39 38.5 39 L 35.5 39 C 34.959046125133646 38.99234956568177 34.45587795314258 39.27656294425399 34.18316841777021 39.74380927457149 C 33.91045888239785 40.21105560488899 33.91045888239785 40.78894439511101 34.18316841777021 41.25619072542851 C 34.45587795314258 41.723437055746004 34.95904612513364 42.00765043431823 35.5 42 L 38.5 42 C 40.967501 42 43 39.967501 43 37.5 L 43 32.746094 C 43.02645171407677 32.585063711844406 43.02645171407677 32.42079628815559 43 32.259766 L 43 24.246094 C 43.02645171407677 24.085063711844406 43.02645171407677 23.920796288155593 43 23.759766 L 43 15.746094 C 43.02645171407677 15.585063711844406 43.02645171407677 15.420796288155595 43 15.259766 L 43 10.5 C 43 8.0324991 40.967501 6 38.5 6 L 35.5 6 z" stroke-linecap="round" />
</g>
</svg>