<svg xmlns="http://www.w3.org/2000/svg" viewBox="0 0 32 40" x="0px" y="0px">
<style>
#set{fill:#f9822f}
</style>
<g id='set'>
    <path fill='dark' d="M29,19a10.212,10.212,0,0,0-3.557.567l-0.145.046a10,10,0,1,0-18.6,0l-0.151-.048A10.186,10.186,0,0,0,3,19a1,1,0,0,0,0,2,8.131,8.131,0,0,1,2.941.473,10.189,10.189,0,0,0,3.552.567,10.2,10.2,0,0,0,3.554-.567A8.148,8.148,0,0,1,15.993,21a8.161,8.161,0,0,1,2.947.473,10.212,10.212,0,0,0,3.557.567,10.209,10.209,0,0,0,3.556-.567A8.159,8.159,0,0,1,29,21,1,1,0,0,0,29,19Zm-9.451.567A10.212,10.212,0,0,0,15.993,19a10.2,10.2,0,0,0-3.554.567,8.148,8.148,0,0,1-2.945.473c-0.135,0-.258,0-0.38-0.007a8,8,0,1,1,13.773,0c-0.126,0-.251.007-0.39,0.007A8.161,8.161,0,0,1,19.549,19.567Z"/>
    <path d="M29,23a10.212,10.212,0,0,0-3.557.567,8.158,8.158,0,0,1-2.947.473,1,1,0,0,0,0,2,10.209,10.209,0,0,0,3.556-.567A8.159,8.159,0,0,1,29,25,1,1,0,0,0,29,23Z"/>
    <path d="M9.494,24.04a8.132,8.132,0,0,1-2.942-.473A10.186,10.186,0,0,0,3,23a1,1,0,0,0,0,2,8.131,8.131,0,0,1,2.941.473,10.189,10.189,0,0,0,3.552.567A1,1,0,0,0,9.494,24.04Z"/>
    <path d="M16,5a1,1,0,0,0,1-1V3a1,1,0,0,0-2,0V4A1,1,0,0,0,16,5Z"/>
    <path d="M28,17h1a1,1,0,0,0,0-2H28A1,1,0,0,0,28,17Z"/>
    <path d="M3,17H4a1,1,0,0,0,0-2H3A1,1,0,0,0,3,17Z"/>
    <path d="M6.808,8.222A1,1,0,0,0,8.222,6.808L7.515,6.1A1,1,0,0,0,6.1,7.515Z"/>
    <path d="M24.485,8.515a1,1,0,0,0,.707-0.293L25.9,7.515A1,1,0,0,0,24.485,6.1l-0.707.707A1,1,0,0,0,24.485,8.515Z"/>
    <path d="M16.707,23.293a1,1,0,0,0-1.414,0l-2,2a1,1,0,0,0,1.414,1.414L15,26.414V29a1,1,0,0,0,2,0V26.414l0.293,0.293a1,1,0,0,0,1.414-1.414Z"/>
</g>
</svg>