<svg xmlns="http://www.w3.org/2000/svg"  viewBox="0 0 32 40" x="0px" y="0px">
<style>
#set{fill:#f9822f}
</style>
<g id='set'>
    <path d="M29,22H25.5237A9.89,9.89,0,0,0,26,19,10,10,0,0,0,6,19a9.8905,9.8905,0,0,0,.4764,3H3a1,1,0,0,0,0,2H29a1,1,0,0,0,0-2Z"/>
    <path d="M27,25H5a1,1,0,0,0,0,2H27a1,1,0,0,0,0-2Z"/>
    <path d="M25,28H7a1,1,0,0,0,0,2H25a1,1,0,0,0,0-2Z"/>
    <path d="M6.8076,11.2217A1,1,0,0,0,8.2217,9.8076l-.7071-.707a1,1,0,0,0-1.414,1.414Z"/>
    <path d="M24.4854,11.5146a.9967.9967,0,0,0,.707-.2929l.707-.7071a1,1,0,0,0-1.414-1.414l-.7071.707a1,1,0,0,0,.7071,1.707Z"/>
    <path d="M28,20h1a1,1,0,0,0,0-2H28a1,1,0,0,0,0,2Z"/>
    <path d="M3,20H4a1,1,0,0,0,0-2H3a1,1,0,0,0,0,2Z"/>
    <path  d="M15.293,7.707c.0089.009.0212.0117.03.02a.9853.9853,0,0,0,.2938.1965l.0031.0006A.9992.9992,0,0,0,16.707,7.707l2-2a1,1,0,1,0-1.414-1.414L17,4.5859V3a1,1,0,0,0-2,0V4.5859l-.293-.2929a1,1,0,0,0-1.414,1.414Z"/>
</g>
</svg>
